<?xml version="1.0" encoding="utf-8" standalone="no"?>
<!DOCTYPE svg PUBLIC "-//W3C//DTD SVG 1.1//EN"
  "http://www.w3.org/Graphics/SVG/1.1/DTD/svg11.dtd">
<svg xmlns:xlink="http://www.w3.org/1999/xlink" width="1412.70054pt" height="1358.188756pt" viewBox="0 0 1412.70054 1358.188756" xmlns="http://www.w3.org/2000/svg" version="1.1">
 <metadata>
  <rdf:RDF xmlns:dc="http://purl.org/dc/elements/1.1/" xmlns:cc="http://creativecommons.org/ns#" xmlns:rdf="http://www.w3.org/1999/02/22-rdf-syntax-ns#">
   <cc:Work>
    <dc:type rdf:resource="http://purl.org/dc/dcmitype/StillImage"/>
    <dc:date>2024-12-05T14:59:35.496508</dc:date>
    <dc:format>image/svg+xml</dc:format>
    <dc:creator>
     <cc:Agent>
      <dc:title>Matplotlib v3.7.3, https://matplotlib.org/</dc:title>
     </cc:Agent>
    </dc:creator>
   </cc:Work>
  </rdf:RDF>
 </metadata>
 <defs>
  <style type="text/css">*{stroke-linejoin: round; stroke-linecap: butt}</style>
 </defs>
 <g id="figure_1">
  <g id="patch_1">
   <path d="M -0 1358.188756 
L 1412.70054 1358.188756 
L 1412.70054 0 
L -0 0 
z
" style="fill: #ffffff"/>
  </g>
  <g id="axes_1">
   <g id="patch_2">
    <path d="M 145.769484 374.668571 
L 1405.50054 374.668571 
L 1405.50054 240.884 
L 145.769484 240.884 
z
" style="fill: #eaeaf2"/>
   </g>
   <g id="patch_3">
    <path d="M 203.029987 374.668571 
L 203.029987 240.884 
L 402.543933 240.884 
L 402.543933 374.668571 
z
" clip-path="url(#p45465a74b5)" style="fill: #778899; opacity: 0.4; stroke: #778899; stroke-width: 2; stroke-linejoin: miter"/>
   </g>
   <g id="patch_4">
    <path d="M 602.057879 374.668571 
L 602.057879 240.884 
L 801.571825 240.884 
L 801.571825 374.668571 
z
" clip-path="url(#p45465a74b5)" style="fill: #778899; opacity: 0.4; stroke: #778899; stroke-width: 2; stroke-linejoin: miter"/>
   </g>
   <g id="patch_5">
    <path d="M 1001.085772 374.668571 
L 1001.085772 240.884 
L 1200.599718 240.884 
L 1200.599718 374.668571 
z
" clip-path="url(#p45465a74b5)" style="fill: #778899; opacity: 0.4; stroke: #778899; stroke-width: 2; stroke-linejoin: miter"/>
   </g>
   <g id="matplotlib.axis_1">
    <g id="xtick_1">
     <g id="text_1">
      <!-- IID -->
      <g style="fill: #262626" transform="translate(278.891866 416.93879) scale(0.374 -0.374)">
       <defs>
        <path id="ArialMT-49" d="M 597 0 
L 597 4581 
L 1203 4581 
L 1203 0 
L 597 0 
z
" transform="scale(0.015625)"/>
        <path id="ArialMT-44" d="M 494 0 
L 494 4581 
L 2072 4581 
Q 2606 4581 2888 4516 
Q 3281 4425 3559 4188 
Q 3922 3881 4101 3404 
Q 4281 2928 4281 2316 
Q 4281 1794 4159 1391 
Q 4038 988 3847 723 
Q 3656 459 3429 307 
Q 3203 156 2883 78 
Q 2563 0 2147 0 
L 494 0 
z
M 1100 541 
L 2078 541 
Q 2531 541 2789 625 
Q 3047 709 3200 863 
Q 3416 1078 3536 1442 
Q 3656 1806 3656 2325 
Q 3656 3044 3420 3430 
Q 3184 3816 2847 3947 
Q 2603 4041 2063 4041 
L 1100 4041 
L 1100 541 
z
" transform="scale(0.015625)"/>
       </defs>
       <use xlink:href="#ArialMT-49"/>
       <use xlink:href="#ArialMT-49" x="27.783203"/>
       <use xlink:href="#ArialMT-44" x="55.566406"/>
      </g>
     </g>
    </g>
    <g id="xtick_2"/>
    <g id="xtick_3">
     <g id="text_2">
      <!-- 0-shot -->
      <g style="fill: #262626" transform="translate(649.846384 416.93879) scale(0.374 -0.374)">
       <defs>
        <path id="ArialMT-30" d="M 266 2259 
Q 266 3072 433 3567 
Q 600 4063 929 4331 
Q 1259 4600 1759 4600 
Q 2128 4600 2406 4451 
Q 2684 4303 2865 4023 
Q 3047 3744 3150 3342 
Q 3253 2941 3253 2259 
Q 3253 1453 3087 958 
Q 2922 463 2592 192 
Q 2263 -78 1759 -78 
Q 1097 -78 719 397 
Q 266 969 266 2259 
z
M 844 2259 
Q 844 1131 1108 757 
Q 1372 384 1759 384 
Q 2147 384 2411 759 
Q 2675 1134 2675 2259 
Q 2675 3391 2411 3762 
Q 2147 4134 1753 4134 
Q 1366 4134 1134 3806 
Q 844 3388 844 2259 
z
" transform="scale(0.015625)"/>
        <path id="ArialMT-2d" d="M 203 1375 
L 203 1941 
L 1931 1941 
L 1931 1375 
L 203 1375 
z
" transform="scale(0.015625)"/>
        <path id="ArialMT-73" d="M 197 991 
L 753 1078 
Q 800 744 1014 566 
Q 1228 388 1613 388 
Q 2000 388 2187 545 
Q 2375 703 2375 916 
Q 2375 1106 2209 1216 
Q 2094 1291 1634 1406 
Q 1016 1563 777 1677 
Q 538 1791 414 1992 
Q 291 2194 291 2438 
Q 291 2659 392 2848 
Q 494 3038 669 3163 
Q 800 3259 1026 3326 
Q 1253 3394 1513 3394 
Q 1903 3394 2198 3281 
Q 2494 3169 2634 2976 
Q 2775 2784 2828 2463 
L 2278 2388 
Q 2241 2644 2061 2787 
Q 1881 2931 1553 2931 
Q 1166 2931 1000 2803 
Q 834 2675 834 2503 
Q 834 2394 903 2306 
Q 972 2216 1119 2156 
Q 1203 2125 1616 2013 
Q 2213 1853 2448 1751 
Q 2684 1650 2818 1456 
Q 2953 1263 2953 975 
Q 2953 694 2789 445 
Q 2625 197 2315 61 
Q 2006 -75 1616 -75 
Q 969 -75 630 194 
Q 291 463 197 991 
z
" transform="scale(0.015625)"/>
        <path id="ArialMT-68" d="M 422 0 
L 422 4581 
L 984 4581 
L 984 2938 
Q 1378 3394 1978 3394 
Q 2347 3394 2619 3248 
Q 2891 3103 3008 2847 
Q 3125 2591 3125 2103 
L 3125 0 
L 2563 0 
L 2563 2103 
Q 2563 2525 2380 2717 
Q 2197 2909 1863 2909 
Q 1613 2909 1392 2779 
Q 1172 2650 1078 2428 
Q 984 2206 984 1816 
L 984 0 
L 422 0 
z
" transform="scale(0.015625)"/>
        <path id="ArialMT-6f" d="M 213 1659 
Q 213 2581 725 3025 
Q 1153 3394 1769 3394 
Q 2453 3394 2887 2945 
Q 3322 2497 3322 1706 
Q 3322 1066 3130 698 
Q 2938 331 2570 128 
Q 2203 -75 1769 -75 
Q 1072 -75 642 372 
Q 213 819 213 1659 
z
M 791 1659 
Q 791 1022 1069 705 
Q 1347 388 1769 388 
Q 2188 388 2466 706 
Q 2744 1025 2744 1678 
Q 2744 2294 2464 2611 
Q 2184 2928 1769 2928 
Q 1347 2928 1069 2612 
Q 791 2297 791 1659 
z
" transform="scale(0.015625)"/>
        <path id="ArialMT-74" d="M 1650 503 
L 1731 6 
Q 1494 -44 1306 -44 
Q 1000 -44 831 53 
Q 663 150 594 308 
Q 525 466 525 972 
L 525 2881 
L 113 2881 
L 113 3319 
L 525 3319 
L 525 4141 
L 1084 4478 
L 1084 3319 
L 1650 3319 
L 1650 2881 
L 1084 2881 
L 1084 941 
Q 1084 700 1114 631 
Q 1144 563 1211 522 
Q 1278 481 1403 481 
Q 1497 481 1650 503 
z
" transform="scale(0.015625)"/>
       </defs>
       <use xlink:href="#ArialMT-30"/>
       <use xlink:href="#ArialMT-2d" x="55.615234"/>
       <use xlink:href="#ArialMT-73" x="88.916016"/>
       <use xlink:href="#ArialMT-68" x="138.916016"/>
       <use xlink:href="#ArialMT-6f" x="194.53125"/>
       <use xlink:href="#ArialMT-74" x="250.146484"/>
      </g>
      <!-- lexical -->
      <g style="fill: #262626" transform="translate(649.852227 456.496303) scale(0.374 -0.374)">
       <defs>
        <path id="ArialMT-6c" d="M 409 0 
L 409 4581 
L 972 4581 
L 972 0 
L 409 0 
z
" transform="scale(0.015625)"/>
        <path id="ArialMT-65" d="M 2694 1069 
L 3275 997 
Q 3138 488 2766 206 
Q 2394 -75 1816 -75 
Q 1088 -75 661 373 
Q 234 822 234 1631 
Q 234 2469 665 2931 
Q 1097 3394 1784 3394 
Q 2450 3394 2872 2941 
Q 3294 2488 3294 1666 
Q 3294 1616 3291 1516 
L 816 1516 
Q 847 969 1125 678 
Q 1403 388 1819 388 
Q 2128 388 2347 550 
Q 2566 713 2694 1069 
z
M 847 1978 
L 2700 1978 
Q 2663 2397 2488 2606 
Q 2219 2931 1791 2931 
Q 1403 2931 1139 2672 
Q 875 2413 847 1978 
z
" transform="scale(0.015625)"/>
        <path id="ArialMT-78" d="M 47 0 
L 1259 1725 
L 138 3319 
L 841 3319 
L 1350 2541 
Q 1494 2319 1581 2169 
Q 1719 2375 1834 2534 
L 2394 3319 
L 3066 3319 
L 1919 1756 
L 3153 0 
L 2463 0 
L 1781 1031 
L 1600 1309 
L 728 0 
L 47 0 
z
" transform="scale(0.015625)"/>
        <path id="ArialMT-69" d="M 425 3934 
L 425 4581 
L 988 4581 
L 988 3934 
L 425 3934 
z
M 425 0 
L 425 3319 
L 988 3319 
L 988 0 
L 425 0 
z
" transform="scale(0.015625)"/>
        <path id="ArialMT-63" d="M 2588 1216 
L 3141 1144 
Q 3050 572 2676 248 
Q 2303 -75 1759 -75 
Q 1078 -75 664 370 
Q 250 816 250 1647 
Q 250 2184 428 2587 
Q 606 2991 970 3192 
Q 1334 3394 1763 3394 
Q 2303 3394 2647 3120 
Q 2991 2847 3088 2344 
L 2541 2259 
Q 2463 2594 2264 2762 
Q 2066 2931 1784 2931 
Q 1359 2931 1093 2626 
Q 828 2322 828 1663 
Q 828 994 1084 691 
Q 1341 388 1753 388 
Q 2084 388 2306 591 
Q 2528 794 2588 1216 
z
" transform="scale(0.015625)"/>
        <path id="ArialMT-61" d="M 2588 409 
Q 2275 144 1986 34 
Q 1697 -75 1366 -75 
Q 819 -75 525 192 
Q 231 459 231 875 
Q 231 1119 342 1320 
Q 453 1522 633 1644 
Q 813 1766 1038 1828 
Q 1203 1872 1538 1913 
Q 2219 1994 2541 2106 
Q 2544 2222 2544 2253 
Q 2544 2597 2384 2738 
Q 2169 2928 1744 2928 
Q 1347 2928 1158 2789 
Q 969 2650 878 2297 
L 328 2372 
Q 403 2725 575 2942 
Q 747 3159 1072 3276 
Q 1397 3394 1825 3394 
Q 2250 3394 2515 3294 
Q 2781 3194 2906 3042 
Q 3031 2891 3081 2659 
Q 3109 2516 3109 2141 
L 3109 1391 
Q 3109 606 3145 398 
Q 3181 191 3288 0 
L 2700 0 
Q 2613 175 2588 409 
z
M 2541 1666 
Q 2234 1541 1622 1453 
Q 1275 1403 1131 1340 
Q 988 1278 909 1158 
Q 831 1038 831 891 
Q 831 666 1001 516 
Q 1172 366 1500 366 
Q 1825 366 2078 508 
Q 2331 650 2450 897 
Q 2541 1088 2541 1459 
L 2541 1666 
z
" transform="scale(0.015625)"/>
       </defs>
       <use xlink:href="#ArialMT-6c"/>
       <use xlink:href="#ArialMT-65" x="22.216797"/>
       <use xlink:href="#ArialMT-78" x="77.832031"/>
       <use xlink:href="#ArialMT-69" x="127.832031"/>
       <use xlink:href="#ArialMT-63" x="150.048828"/>
       <use xlink:href="#ArialMT-61" x="200.048828"/>
       <use xlink:href="#ArialMT-6c" x="255.664062"/>
      </g>
     </g>
    </g>
    <g id="xtick_4">
     <g id="text_3">
      <!-- Length -->
      <g style="fill: #262626" transform="translate(844.138939 416.93879) scale(0.374 -0.374)">
       <defs>
        <path id="ArialMT-4c" d="M 469 0 
L 469 4581 
L 1075 4581 
L 1075 541 
L 3331 541 
L 3331 0 
L 469 0 
z
" transform="scale(0.015625)"/>
        <path id="ArialMT-6e" d="M 422 0 
L 422 3319 
L 928 3319 
L 928 2847 
Q 1294 3394 1984 3394 
Q 2284 3394 2536 3286 
Q 2788 3178 2913 3003 
Q 3038 2828 3088 2588 
Q 3119 2431 3119 2041 
L 3119 0 
L 2556 0 
L 2556 2019 
Q 2556 2363 2490 2533 
Q 2425 2703 2258 2804 
Q 2091 2906 1866 2906 
Q 1506 2906 1245 2678 
Q 984 2450 984 1813 
L 984 0 
L 422 0 
z
" transform="scale(0.015625)"/>
        <path id="ArialMT-67" d="M 319 -275 
L 866 -356 
Q 900 -609 1056 -725 
Q 1266 -881 1628 -881 
Q 2019 -881 2231 -725 
Q 2444 -569 2519 -288 
Q 2563 -116 2559 434 
Q 2191 0 1641 0 
Q 956 0 581 494 
Q 206 988 206 1678 
Q 206 2153 378 2554 
Q 550 2956 876 3175 
Q 1203 3394 1644 3394 
Q 2231 3394 2613 2919 
L 2613 3319 
L 3131 3319 
L 3131 450 
Q 3131 -325 2973 -648 
Q 2816 -972 2473 -1159 
Q 2131 -1347 1631 -1347 
Q 1038 -1347 672 -1080 
Q 306 -813 319 -275 
z
M 784 1719 
Q 784 1066 1043 766 
Q 1303 466 1694 466 
Q 2081 466 2343 764 
Q 2606 1063 2606 1700 
Q 2606 2309 2336 2618 
Q 2066 2928 1684 2928 
Q 1309 2928 1046 2623 
Q 784 2319 784 1719 
z
" transform="scale(0.015625)"/>
       </defs>
       <use xlink:href="#ArialMT-4c"/>
       <use xlink:href="#ArialMT-65" x="55.615234"/>
       <use xlink:href="#ArialMT-6e" x="111.230469"/>
       <use xlink:href="#ArialMT-67" x="166.845703"/>
       <use xlink:href="#ArialMT-74" x="222.460938"/>
       <use xlink:href="#ArialMT-68" x="250.244141"/>
      </g>
     </g>
    </g>
    <g id="xtick_5"/>
    <g id="xtick_6"/>
   </g>
   <g id="matplotlib.axis_2">
    <g id="ytick_1">
     <g id="line2d_1">
      <path d="M 145.769484 374.668571 
L 1405.50054 374.668571 
" clip-path="url(#p45465a74b5)" style="fill: none; stroke: #ffffff; stroke-width: 2; stroke-linecap: round"/>
     </g>
     <g id="text_4">
      <!-- 0.0 -->
      <g style="fill: #262626" transform="translate(78.283484 388.053681) scale(0.374 -0.374)">
       <defs>
        <path id="ArialMT-2e" d="M 581 0 
L 581 641 
L 1222 641 
L 1222 0 
L 581 0 
z
" transform="scale(0.015625)"/>
       </defs>
       <use xlink:href="#ArialMT-30"/>
       <use xlink:href="#ArialMT-2e" x="55.615234"/>
       <use xlink:href="#ArialMT-30" x="83.398438"/>
      </g>
     </g>
    </g>
    <g id="ytick_2">
     <g id="line2d_2">
      <path d="M 145.769484 310.961633 
L 1405.50054 310.961633 
" clip-path="url(#p45465a74b5)" style="fill: none; stroke: #ffffff; stroke-width: 2; stroke-linecap: round"/>
     </g>
     <g id="text_5">
      <!-- 0.5 -->
      <g style="fill: #262626" transform="translate(78.283484 324.346742) scale(0.374 -0.374)">
       <defs>
        <path id="ArialMT-35" d="M 266 1200 
L 856 1250 
Q 922 819 1161 601 
Q 1400 384 1738 384 
Q 2144 384 2425 690 
Q 2706 997 2706 1503 
Q 2706 1984 2436 2262 
Q 2166 2541 1728 2541 
Q 1456 2541 1237 2417 
Q 1019 2294 894 2097 
L 366 2166 
L 809 4519 
L 3088 4519 
L 3088 3981 
L 1259 3981 
L 1013 2750 
Q 1425 3038 1878 3038 
Q 2478 3038 2890 2622 
Q 3303 2206 3303 1553 
Q 3303 931 2941 478 
Q 2500 -78 1738 -78 
Q 1113 -78 717 272 
Q 322 622 266 1200 
z
" transform="scale(0.015625)"/>
       </defs>
       <use xlink:href="#ArialMT-30"/>
       <use xlink:href="#ArialMT-2e" x="55.615234"/>
       <use xlink:href="#ArialMT-35" x="83.398438"/>
      </g>
     </g>
    </g>
    <g id="ytick_3">
     <g id="line2d_3">
      <path d="M 145.769484 247.254694 
L 1405.50054 247.254694 
" clip-path="url(#p45465a74b5)" style="fill: none; stroke: #ffffff; stroke-width: 2; stroke-linecap: round"/>
     </g>
     <g id="text_6">
      <!-- 1.0 -->
      <g style="fill: #262626" transform="translate(78.283484 260.639803) scale(0.374 -0.374)">
       <defs>
        <path id="ArialMT-31" d="M 2384 0 
L 1822 0 
L 1822 3584 
Q 1619 3391 1289 3197 
Q 959 3003 697 2906 
L 697 3450 
Q 1169 3672 1522 3987 
Q 1875 4303 2022 4600 
L 2384 4600 
L 2384 0 
z
" transform="scale(0.015625)"/>
       </defs>
       <use xlink:href="#ArialMT-31"/>
       <use xlink:href="#ArialMT-2e" x="55.615234"/>
       <use xlink:href="#ArialMT-30" x="83.398438"/>
      </g>
     </g>
    </g>
   </g>
   <g id="patch_6">
    <path d="M 222.981382 374.668571 
L 254.903613 374.668571 
L 254.903613 247.254694 
L 222.981382 247.254694 
z
" clip-path="url(#p45465a74b5)" style="fill: #5875a4; stroke: #ffffff; stroke-width: 2; stroke-linejoin: miter"/>
   </g>
   <g id="patch_7">
    <path d="M 622.009274 374.668571 
L 653.931505 374.668571 
L 653.931505 374.668571 
L 622.009274 374.668571 
z
" clip-path="url(#p45465a74b5)" style="fill: #5875a4; stroke: #ffffff; stroke-width: 2; stroke-linejoin: miter"/>
   </g>
   <g id="patch_8">
    <path d="M 821.52322 374.668571 
L 853.445451 374.668571 
L 853.445451 374.668571 
L 821.52322 374.668571 
z
" clip-path="url(#p45465a74b5)" style="fill: #5875a4; stroke: #ffffff; stroke-width: 2; stroke-linejoin: miter"/>
   </g>
   <g id="patch_9">
    <path d="M 1220.551112 374.668571 
L 1252.473344 374.668571 
L 1252.473344 374.668571 
L 1220.551112 374.668571 
z
" clip-path="url(#p45465a74b5)" style="fill: #5875a4; stroke: #ffffff; stroke-width: 2; stroke-linejoin: miter"/>
   </g>
   <g id="patch_10">
    <path d="M 254.903613 374.668571 
L 286.825844 374.668571 
L 286.825844 247.254694 
L 254.903613 247.254694 
z
" clip-path="url(#p45465a74b5)" style="fill: #cc8963; stroke: #ffffff; stroke-width: 2; stroke-linejoin: miter"/>
   </g>
   <g id="patch_11">
    <path d="M 653.931505 374.668571 
L 685.853737 374.668571 
L 685.853737 374.668571 
L 653.931505 374.668571 
z
" clip-path="url(#p45465a74b5)" style="fill: #cc8963; stroke: #ffffff; stroke-width: 2; stroke-linejoin: miter"/>
   </g>
   <g id="patch_12">
    <path d="M 853.445451 374.668571 
L 885.367683 374.668571 
L 885.367683 359.378906 
L 853.445451 359.378906 
z
" clip-path="url(#p45465a74b5)" style="fill: #cc8963; stroke: #ffffff; stroke-width: 2; stroke-linejoin: miter"/>
   </g>
   <g id="patch_13">
    <path d="M 1252.473344 374.668571 
L 1284.395575 374.668571 
L 1284.395575 374.668571 
L 1252.473344 374.668571 
z
" clip-path="url(#p45465a74b5)" style="fill: #cc8963; stroke: #ffffff; stroke-width: 2; stroke-linejoin: miter"/>
   </g>
   <g id="patch_14">
    <path d="M 286.825844 374.668571 
L 318.748076 374.668571 
L 318.748076 317.332327 
L 286.825844 317.332327 
z
" clip-path="url(#p45465a74b5)" style="fill: #5f9e6e; stroke: #ffffff; stroke-width: 2; stroke-linejoin: miter"/>
   </g>
   <g id="patch_15">
    <path d="M 685.853737 374.668571 
L 717.775968 374.668571 
L 717.775968 374.668571 
L 685.853737 374.668571 
z
" clip-path="url(#p45465a74b5)" style="fill: #5f9e6e; stroke: #ffffff; stroke-width: 2; stroke-linejoin: miter"/>
   </g>
   <g id="patch_16">
    <path d="M 885.367683 374.668571 
L 917.289914 374.668571 
L 917.289914 374.668571 
L 885.367683 374.668571 
z
" clip-path="url(#p45465a74b5)" style="fill: #5f9e6e; stroke: #ffffff; stroke-width: 2; stroke-linejoin: miter"/>
   </g>
   <g id="patch_17">
    <path d="M 1284.395575 374.668571 
L 1316.317807 374.668571 
L 1316.317807 374.668571 
L 1284.395575 374.668571 
z
" clip-path="url(#p45465a74b5)" style="fill: #5f9e6e; stroke: #ffffff; stroke-width: 2; stroke-linejoin: miter"/>
   </g>
   <g id="patch_18">
    <path d="M 318.748076 374.668571 
L 350.670307 374.668571 
L 350.670307 247.254694 
L 318.748076 247.254694 
z
" clip-path="url(#p45465a74b5)" style="fill: #b55d60; stroke: #ffffff; stroke-width: 2; stroke-linejoin: miter"/>
   </g>
   <g id="patch_19">
    <path d="M 717.775968 374.668571 
L 749.698199 374.668571 
L 749.698199 247.254694 
L 717.775968 247.254694 
z
" clip-path="url(#p45465a74b5)" style="fill: #b55d60; stroke: #ffffff; stroke-width: 2; stroke-linejoin: miter"/>
   </g>
   <g id="patch_20">
    <path d="M 917.289914 374.668571 
L 949.212146 374.668571 
L 949.212146 247.254694 
L 917.289914 247.254694 
z
" clip-path="url(#p45465a74b5)" style="fill: #b55d60; stroke: #ffffff; stroke-width: 2; stroke-linejoin: miter"/>
   </g>
   <g id="patch_21">
    <path d="M 1316.317807 374.668571 
L 1348.240038 374.668571 
L 1348.240038 374.668571 
L 1316.317807 374.668571 
z
" clip-path="url(#p45465a74b5)" style="fill: #b55d60; stroke: #ffffff; stroke-width: 2; stroke-linejoin: miter"/>
   </g>
   <g id="line2d_4">
    <path clip-path="url(#p45465a74b5)" style="fill: none; stroke: #424242; stroke-width: 4.5; stroke-linecap: round"/>
   </g>
   <g id="line2d_5">
    <path clip-path="url(#p45465a74b5)" style="fill: none; stroke: #424242; stroke-width: 4.5; stroke-linecap: round"/>
   </g>
   <g id="line2d_6">
    <path clip-path="url(#p45465a74b5)" style="fill: none; stroke: #424242; stroke-width: 4.5; stroke-linecap: round"/>
   </g>
   <g id="line2d_7">
    <path clip-path="url(#p45465a74b5)" style="fill: none; stroke: #424242; stroke-width: 4.5; stroke-linecap: round"/>
   </g>
   <g id="line2d_8">
    <path clip-path="url(#p45465a74b5)" style="fill: none; stroke: #424242; stroke-width: 4.5; stroke-linecap: round"/>
   </g>
   <g id="line2d_9">
    <path clip-path="url(#p45465a74b5)" style="fill: none; stroke: #424242; stroke-width: 4.5; stroke-linecap: round"/>
   </g>
   <g id="line2d_10">
    <path clip-path="url(#p45465a74b5)" style="fill: none; stroke: #424242; stroke-width: 4.5; stroke-linecap: round"/>
   </g>
   <g id="line2d_11">
    <path clip-path="url(#p45465a74b5)" style="fill: none; stroke: #424242; stroke-width: 4.5; stroke-linecap: round"/>
   </g>
   <g id="line2d_12">
    <path clip-path="url(#p45465a74b5)" style="fill: none; stroke: #424242; stroke-width: 4.5; stroke-linecap: round"/>
   </g>
   <g id="line2d_13">
    <path clip-path="url(#p45465a74b5)" style="fill: none; stroke: #424242; stroke-width: 4.5; stroke-linecap: round"/>
   </g>
   <g id="line2d_14">
    <path clip-path="url(#p45465a74b5)" style="fill: none; stroke: #424242; stroke-width: 4.5; stroke-linecap: round"/>
   </g>
   <g id="line2d_15">
    <path clip-path="url(#p45465a74b5)" style="fill: none; stroke: #424242; stroke-width: 4.5; stroke-linecap: round"/>
   </g>
   <g id="line2d_16">
    <path clip-path="url(#p45465a74b5)" style="fill: none; stroke: #424242; stroke-width: 4.5; stroke-linecap: round"/>
   </g>
   <g id="line2d_17">
    <path clip-path="url(#p45465a74b5)" style="fill: none; stroke: #424242; stroke-width: 4.5; stroke-linecap: round"/>
   </g>
   <g id="line2d_18">
    <path clip-path="url(#p45465a74b5)" style="fill: none; stroke: #424242; stroke-width: 4.5; stroke-linecap: round"/>
   </g>
   <g id="line2d_19">
    <path clip-path="url(#p45465a74b5)" style="fill: none; stroke: #424242; stroke-width: 4.5; stroke-linecap: round"/>
   </g>
   <g id="patch_22">
    <path d="M 145.769484 374.668571 
L 145.769484 240.884 
" style="fill: none; stroke: #ffffff; stroke-width: 2.5; stroke-linejoin: miter; stroke-linecap: square"/>
   </g>
   <g id="patch_23">
    <path d="M 145.769484 374.668571 
L 1405.50054 374.668571 
" style="fill: none; stroke: #ffffff; stroke-width: 2.5; stroke-linejoin: miter; stroke-linecap: square"/>
   </g>
   <g id="text_7">
    <!-- Active↔Logical (tree2tree) -->
    <g style="fill: #262626" transform="translate(534.146825 234.884) scale(0.408 -0.408)">
     <defs>
      <path id="ArialMT-41" d="M -9 0 
L 1750 4581 
L 2403 4581 
L 4278 0 
L 3588 0 
L 3053 1388 
L 1138 1388 
L 634 0 
L -9 0 
z
M 1313 1881 
L 2866 1881 
L 2388 3150 
Q 2169 3728 2063 4100 
Q 1975 3659 1816 3225 
L 1313 1881 
z
" transform="scale(0.015625)"/>
      <path id="ArialMT-76" d="M 1344 0 
L 81 3319 
L 675 3319 
L 1388 1331 
Q 1503 1009 1600 663 
Q 1675 925 1809 1294 
L 2547 3319 
L 3125 3319 
L 1869 0 
L 1344 0 
z
" transform="scale(0.015625)"/>
      <path id="ArialMT-2194" d="M 6150 1688 
L 6150 1547 
Q 5856 1413 5572 1184 
Q 5288 956 4881 494 
L 4631 494 
Q 4847 1031 5238 1466 
L 1159 1466 
Q 1550 1031 1766 494 
L 1516 494 
Q 1109 956 825 1184 
Q 541 1413 247 1547 
L 247 1688 
Q 541 1825 825 2051 
Q 1109 2278 1516 2744 
L 1766 2744 
Q 1550 2206 1159 1772 
L 5238 1772 
Q 4847 2206 4631 2744 
L 4881 2744 
Q 5288 2278 5572 2051 
Q 5856 1825 6150 1688 
z
" transform="scale(0.015625)"/>
      <path id="ArialMT-20" transform="scale(0.015625)"/>
      <path id="ArialMT-28" d="M 1497 -1347 
Q 1031 -759 709 28 
Q 388 816 388 1659 
Q 388 2403 628 3084 
Q 909 3875 1497 4659 
L 1900 4659 
Q 1522 4009 1400 3731 
Q 1209 3300 1100 2831 
Q 966 2247 966 1656 
Q 966 153 1900 -1347 
L 1497 -1347 
z
" transform="scale(0.015625)"/>
      <path id="ArialMT-72" d="M 416 0 
L 416 3319 
L 922 3319 
L 922 2816 
Q 1116 3169 1280 3281 
Q 1444 3394 1641 3394 
Q 1925 3394 2219 3213 
L 2025 2691 
Q 1819 2813 1613 2813 
Q 1428 2813 1281 2702 
Q 1134 2591 1072 2394 
Q 978 2094 978 1738 
L 978 0 
L 416 0 
z
" transform="scale(0.015625)"/>
      <path id="ArialMT-32" d="M 3222 541 
L 3222 0 
L 194 0 
Q 188 203 259 391 
Q 375 700 629 1000 
Q 884 1300 1366 1694 
Q 2113 2306 2375 2664 
Q 2638 3022 2638 3341 
Q 2638 3675 2398 3904 
Q 2159 4134 1775 4134 
Q 1369 4134 1125 3890 
Q 881 3647 878 3216 
L 300 3275 
Q 359 3922 746 4261 
Q 1134 4600 1788 4600 
Q 2447 4600 2831 4234 
Q 3216 3869 3216 3328 
Q 3216 3053 3103 2787 
Q 2991 2522 2730 2228 
Q 2469 1934 1863 1422 
Q 1356 997 1212 845 
Q 1069 694 975 541 
L 3222 541 
z
" transform="scale(0.015625)"/>
      <path id="ArialMT-29" d="M 791 -1347 
L 388 -1347 
Q 1322 153 1322 1656 
Q 1322 2244 1188 2822 
Q 1081 3291 891 3722 
Q 769 4003 388 4659 
L 791 4659 
Q 1378 3875 1659 3084 
Q 1900 2403 1900 1659 
Q 1900 816 1576 28 
Q 1253 -759 791 -1347 
z
" transform="scale(0.015625)"/>
     </defs>
     <use xlink:href="#ArialMT-41"/>
     <use xlink:href="#ArialMT-63" x="66.699219"/>
     <use xlink:href="#ArialMT-74" x="116.699219"/>
     <use xlink:href="#ArialMT-69" x="144.482422"/>
     <use xlink:href="#ArialMT-76" x="166.699219"/>
     <use xlink:href="#ArialMT-65" x="216.699219"/>
     <use xlink:href="#ArialMT-2194" x="272.314453"/>
     <use xlink:href="#ArialMT-4c" x="372.314453"/>
     <use xlink:href="#ArialMT-6f" x="427.929688"/>
     <use xlink:href="#ArialMT-67" x="483.544922"/>
     <use xlink:href="#ArialMT-69" x="539.160156"/>
     <use xlink:href="#ArialMT-63" x="561.376953"/>
     <use xlink:href="#ArialMT-61" x="611.376953"/>
     <use xlink:href="#ArialMT-6c" x="666.992188"/>
     <use xlink:href="#ArialMT-20" x="689.208984"/>
     <use xlink:href="#ArialMT-28" x="716.992188"/>
     <use xlink:href="#ArialMT-74" x="750.292969"/>
     <use xlink:href="#ArialMT-72" x="778.076172"/>
     <use xlink:href="#ArialMT-65" x="811.376953"/>
     <use xlink:href="#ArialMT-65" x="866.992188"/>
     <use xlink:href="#ArialMT-32" x="922.607422"/>
     <use xlink:href="#ArialMT-74" x="978.222656"/>
     <use xlink:href="#ArialMT-72" x="1006.005859"/>
     <use xlink:href="#ArialMT-65" x="1039.306641"/>
     <use xlink:href="#ArialMT-65" x="1094.921875"/>
     <use xlink:href="#ArialMT-29" x="1150.537109"/>
    </g>
   </g>
  </g>
  <g id="axes_2">
   <g id="patch_24">
    <path d="M 145.769484 642.237714 
L 1405.50054 642.237714 
L 1405.50054 508.453143 
L 145.769484 508.453143 
z
" style="fill: #eaeaf2"/>
   </g>
   <g id="patch_25">
    <path d="M 203.029987 642.237714 
L 203.029987 508.453143 
L 402.543933 508.453143 
L 402.543933 642.237714 
z
" clip-path="url(#p7fef6e8401)" style="fill: #778899; opacity: 0.4; stroke: #778899; stroke-width: 2; stroke-linejoin: miter"/>
   </g>
   <g id="patch_26">
    <path d="M 602.057879 642.237714 
L 602.057879 508.453143 
L 801.571825 508.453143 
L 801.571825 642.237714 
z
" clip-path="url(#p7fef6e8401)" style="fill: #778899; opacity: 0.4; stroke: #778899; stroke-width: 2; stroke-linejoin: miter"/>
   </g>
   <g id="patch_27">
    <path d="M 1001.085772 642.237714 
L 1001.085772 508.453143 
L 1200.599718 508.453143 
L 1200.599718 642.237714 
z
" clip-path="url(#p7fef6e8401)" style="fill: #778899; opacity: 0.4; stroke: #778899; stroke-width: 2; stroke-linejoin: miter"/>
   </g>
   <g id="matplotlib.axis_3">
    <g id="xtick_7">
     <g id="text_8">
      <!-- IID -->
      <g style="fill: #262626" transform="translate(278.891866 684.507933) scale(0.374 -0.374)">
       <use xlink:href="#ArialMT-49"/>
       <use xlink:href="#ArialMT-49" x="27.783203"/>
       <use xlink:href="#ArialMT-44" x="55.566406"/>
      </g>
     </g>
    </g>
    <g id="xtick_8"/>
    <g id="xtick_9">
     <g id="text_9">
      <!-- 0-shot lexical -->
      <g style="fill: #262626" transform="translate(592.688665 684.507933) scale(0.374 -0.374)">
       <use xlink:href="#ArialMT-30"/>
       <use xlink:href="#ArialMT-2d" x="55.615234"/>
       <use xlink:href="#ArialMT-73" x="88.916016"/>
       <use xlink:href="#ArialMT-68" x="138.916016"/>
       <use xlink:href="#ArialMT-6f" x="194.53125"/>
       <use xlink:href="#ArialMT-74" x="250.146484"/>
       <use xlink:href="#ArialMT-20" x="277.929688"/>
       <use xlink:href="#ArialMT-6c" x="305.712891"/>
       <use xlink:href="#ArialMT-65" x="327.929688"/>
       <use xlink:href="#ArialMT-78" x="383.544922"/>
       <use xlink:href="#ArialMT-69" x="433.544922"/>
       <use xlink:href="#ArialMT-63" x="455.761719"/>
       <use xlink:href="#ArialMT-61" x="505.761719"/>
       <use xlink:href="#ArialMT-6c" x="561.376953"/>
      </g>
     </g>
    </g>
    <g id="xtick_10"/>
    <g id="xtick_11"/>
    <g id="xtick_12"/>
   </g>
   <g id="matplotlib.axis_4">
    <g id="ytick_4">
     <g id="line2d_20">
      <path d="M 145.769484 642.237714 
L 1405.50054 642.237714 
" clip-path="url(#p7fef6e8401)" style="fill: none; stroke: #ffffff; stroke-width: 2; stroke-linecap: round"/>
     </g>
     <g id="text_10">
      <!-- 0.0 -->
      <g style="fill: #262626" transform="translate(78.283484 655.622824) scale(0.374 -0.374)">
       <use xlink:href="#ArialMT-30"/>
       <use xlink:href="#ArialMT-2e" x="55.615234"/>
       <use xlink:href="#ArialMT-30" x="83.398438"/>
      </g>
     </g>
    </g>
    <g id="ytick_5">
     <g id="line2d_21">
      <path d="M 145.769484 578.530776 
L 1405.50054 578.530776 
" clip-path="url(#p7fef6e8401)" style="fill: none; stroke: #ffffff; stroke-width: 2; stroke-linecap: round"/>
     </g>
     <g id="text_11">
      <!-- 0.5 -->
      <g style="fill: #262626" transform="translate(78.283484 591.915885) scale(0.374 -0.374)">
       <use xlink:href="#ArialMT-30"/>
       <use xlink:href="#ArialMT-2e" x="55.615234"/>
       <use xlink:href="#ArialMT-35" x="83.398438"/>
      </g>
     </g>
    </g>
    <g id="ytick_6">
     <g id="line2d_22">
      <path d="M 145.769484 514.823837 
L 1405.50054 514.823837 
" clip-path="url(#p7fef6e8401)" style="fill: none; stroke: #ffffff; stroke-width: 2; stroke-linecap: round"/>
     </g>
     <g id="text_12">
      <!-- 1.0 -->
      <g style="fill: #262626" transform="translate(78.283484 528.208946) scale(0.374 -0.374)">
       <use xlink:href="#ArialMT-31"/>
       <use xlink:href="#ArialMT-2e" x="55.615234"/>
       <use xlink:href="#ArialMT-30" x="83.398438"/>
      </g>
     </g>
    </g>
   </g>
   <g id="patch_28">
    <path d="M 222.981382 642.237714 
L 254.903613 642.237714 
L 254.903613 514.823837 
L 222.981382 514.823837 
z
" clip-path="url(#p7fef6e8401)" style="fill: #5875a4; stroke: #ffffff; stroke-width: 2; stroke-linejoin: miter"/>
   </g>
   <g id="patch_29">
    <path d="M 622.009274 642.237714 
L 653.931505 642.237714 
L 653.931505 638.415298 
L 622.009274 638.415298 
z
" clip-path="url(#p7fef6e8401)" style="fill: #5875a4; stroke: #ffffff; stroke-width: 2; stroke-linejoin: miter"/>
   </g>
   <g id="patch_30">
    <path d="M 1220.551112 642.237714 
L 1252.473344 642.237714 
L 1252.473344 642.237714 
L 1220.551112 642.237714 
z
" clip-path="url(#p7fef6e8401)" style="fill: #5875a4; stroke: #ffffff; stroke-width: 2; stroke-linejoin: miter"/>
   </g>
   <g id="patch_31">
    <path d="M 254.903613 642.237714 
L 286.825844 642.237714 
L 286.825844 514.823837 
L 254.903613 514.823837 
z
" clip-path="url(#p7fef6e8401)" style="fill: #cc8963; stroke: #ffffff; stroke-width: 2; stroke-linejoin: miter"/>
   </g>
   <g id="patch_32">
    <path d="M 653.931505 642.237714 
L 685.853737 642.237714 
L 685.853737 638.415298 
L 653.931505 638.415298 
z
" clip-path="url(#p7fef6e8401)" style="fill: #cc8963; stroke: #ffffff; stroke-width: 2; stroke-linejoin: miter"/>
   </g>
   <g id="patch_33">
    <path d="M 1252.473344 642.237714 
L 1284.395575 642.237714 
L 1284.395575 642.237714 
L 1252.473344 642.237714 
z
" clip-path="url(#p7fef6e8401)" style="fill: #cc8963; stroke: #ffffff; stroke-width: 2; stroke-linejoin: miter"/>
   </g>
   <g id="patch_34">
    <path d="M 1284.395575 642.237714 
L 1316.317807 642.237714 
L 1316.317807 642.237714 
L 1284.395575 642.237714 
z
" clip-path="url(#p7fef6e8401)" style="fill: #5f9e6e; stroke: #ffffff; stroke-width: 2; stroke-linejoin: miter"/>
   </g>
   <g id="patch_35">
    <path d="M 318.748076 642.237714 
L 350.670307 642.237714 
L 350.670307 514.823837 
L 318.748076 514.823837 
z
" clip-path="url(#p7fef6e8401)" style="fill: #b55d60; stroke: #ffffff; stroke-width: 2; stroke-linejoin: miter"/>
   </g>
   <g id="patch_36">
    <path d="M 717.775968 642.237714 
L 749.698199 642.237714 
L 749.698199 564.515249 
L 717.775968 564.515249 
z
" clip-path="url(#p7fef6e8401)" style="fill: #b55d60; stroke: #ffffff; stroke-width: 2; stroke-linejoin: miter"/>
   </g>
   <g id="patch_37">
    <path d="M 1316.317807 642.237714 
L 1348.240038 642.237714 
L 1348.240038 642.237714 
L 1316.317807 642.237714 
z
" clip-path="url(#p7fef6e8401)" style="fill: #b55d60; stroke: #ffffff; stroke-width: 2; stroke-linejoin: miter"/>
   </g>
   <g id="line2d_23">
    <path clip-path="url(#p7fef6e8401)" style="fill: none; stroke: #424242; stroke-width: 4.5; stroke-linecap: round"/>
   </g>
   <g id="line2d_24">
    <path clip-path="url(#p7fef6e8401)" style="fill: none; stroke: #424242; stroke-width: 4.5; stroke-linecap: round"/>
   </g>
   <g id="line2d_25">
    <path clip-path="url(#p7fef6e8401)" style="fill: none; stroke: #424242; stroke-width: 4.5; stroke-linecap: round"/>
   </g>
   <g id="line2d_26">
    <path clip-path="url(#p7fef6e8401)" style="fill: none; stroke: #424242; stroke-width: 4.5; stroke-linecap: round"/>
   </g>
   <g id="line2d_27">
    <path clip-path="url(#p7fef6e8401)" style="fill: none; stroke: #424242; stroke-width: 4.5; stroke-linecap: round"/>
   </g>
   <g id="line2d_28">
    <path clip-path="url(#p7fef6e8401)" style="fill: none; stroke: #424242; stroke-width: 4.5; stroke-linecap: round"/>
   </g>
   <g id="line2d_29">
    <path clip-path="url(#p7fef6e8401)" style="fill: none; stroke: #424242; stroke-width: 4.5; stroke-linecap: round"/>
   </g>
   <g id="line2d_30">
    <path clip-path="url(#p7fef6e8401)" style="fill: none; stroke: #424242; stroke-width: 4.5; stroke-linecap: round"/>
   </g>
   <g id="line2d_31">
    <path clip-path="url(#p7fef6e8401)" style="fill: none; stroke: #424242; stroke-width: 4.5; stroke-linecap: round"/>
   </g>
   <g id="line2d_32">
    <path clip-path="url(#p7fef6e8401)" style="fill: none; stroke: #424242; stroke-width: 4.5; stroke-linecap: round"/>
   </g>
   <g id="patch_38">
    <path d="M 145.769484 642.237714 
L 145.769484 508.453143 
" style="fill: none; stroke: #ffffff; stroke-width: 2.5; stroke-linejoin: miter; stroke-linecap: square"/>
   </g>
   <g id="patch_39">
    <path d="M 145.769484 642.237714 
L 1405.50054 642.237714 
" style="fill: none; stroke: #ffffff; stroke-width: 2.5; stroke-linejoin: miter; stroke-linecap: square"/>
   </g>
   <g id="text_13">
    <!-- FOR2LAM (tree2tree) -->
    <g style="fill: #262626" transform="translate(578.392512 502.453143) scale(0.408 -0.408)">
     <defs>
      <path id="ArialMT-46" d="M 525 0 
L 525 4581 
L 3616 4581 
L 3616 4041 
L 1131 4041 
L 1131 2622 
L 3281 2622 
L 3281 2081 
L 1131 2081 
L 1131 0 
L 525 0 
z
" transform="scale(0.015625)"/>
      <path id="ArialMT-4f" d="M 309 2231 
Q 309 3372 921 4017 
Q 1534 4663 2503 4663 
Q 3138 4663 3647 4359 
Q 4156 4056 4423 3514 
Q 4691 2972 4691 2284 
Q 4691 1588 4409 1038 
Q 4128 488 3612 205 
Q 3097 -78 2500 -78 
Q 1853 -78 1343 234 
Q 834 547 571 1087 
Q 309 1628 309 2231 
z
M 934 2222 
Q 934 1394 1379 917 
Q 1825 441 2497 441 
Q 3181 441 3623 922 
Q 4066 1403 4066 2288 
Q 4066 2847 3877 3264 
Q 3688 3681 3323 3911 
Q 2959 4141 2506 4141 
Q 1863 4141 1398 3698 
Q 934 3256 934 2222 
z
" transform="scale(0.015625)"/>
      <path id="ArialMT-52" d="M 503 0 
L 503 4581 
L 2534 4581 
Q 3147 4581 3465 4457 
Q 3784 4334 3975 4021 
Q 4166 3709 4166 3331 
Q 4166 2844 3850 2509 
Q 3534 2175 2875 2084 
Q 3116 1969 3241 1856 
Q 3506 1613 3744 1247 
L 4541 0 
L 3778 0 
L 3172 953 
Q 2906 1366 2734 1584 
Q 2563 1803 2427 1890 
Q 2291 1978 2150 2013 
Q 2047 2034 1813 2034 
L 1109 2034 
L 1109 0 
L 503 0 
z
M 1109 2559 
L 2413 2559 
Q 2828 2559 3062 2645 
Q 3297 2731 3419 2920 
Q 3541 3109 3541 3331 
Q 3541 3656 3305 3865 
Q 3069 4075 2559 4075 
L 1109 4075 
L 1109 2559 
z
" transform="scale(0.015625)"/>
      <path id="ArialMT-4d" d="M 475 0 
L 475 4581 
L 1388 4581 
L 2472 1338 
Q 2622 884 2691 659 
Q 2769 909 2934 1394 
L 4031 4581 
L 4847 4581 
L 4847 0 
L 4263 0 
L 4263 3834 
L 2931 0 
L 2384 0 
L 1059 3900 
L 1059 0 
L 475 0 
z
" transform="scale(0.015625)"/>
     </defs>
     <use xlink:href="#ArialMT-46"/>
     <use xlink:href="#ArialMT-4f" x="61.083984"/>
     <use xlink:href="#ArialMT-52" x="138.867188"/>
     <use xlink:href="#ArialMT-32" x="211.083984"/>
     <use xlink:href="#ArialMT-4c" x="266.699219"/>
     <use xlink:href="#ArialMT-41" x="322.314453"/>
     <use xlink:href="#ArialMT-4d" x="389.013672"/>
     <use xlink:href="#ArialMT-20" x="472.314453"/>
     <use xlink:href="#ArialMT-28" x="500.097656"/>
     <use xlink:href="#ArialMT-74" x="533.398438"/>
     <use xlink:href="#ArialMT-72" x="561.181641"/>
     <use xlink:href="#ArialMT-65" x="594.482422"/>
     <use xlink:href="#ArialMT-65" x="650.097656"/>
     <use xlink:href="#ArialMT-32" x="705.712891"/>
     <use xlink:href="#ArialMT-74" x="761.328125"/>
     <use xlink:href="#ArialMT-72" x="789.111328"/>
     <use xlink:href="#ArialMT-65" x="822.412109"/>
     <use xlink:href="#ArialMT-65" x="878.027344"/>
     <use xlink:href="#ArialMT-29" x="933.642578"/>
    </g>
   </g>
  </g>
  <g id="axes_3">
   <g id="patch_40">
    <path d="M 145.769484 909.806857 
L 1405.50054 909.806857 
L 1405.50054 776.022286 
L 145.769484 776.022286 
z
" style="fill: #eaeaf2"/>
   </g>
   <g id="patch_41">
    <path d="M 203.029987 909.806857 
L 203.029987 776.022286 
L 402.543933 776.022286 
L 402.543933 909.806857 
z
" clip-path="url(#pe76beb37f4)" style="fill: #778899; opacity: 0.4; stroke: #778899; stroke-width: 2; stroke-linejoin: miter"/>
   </g>
   <g id="patch_42">
    <path d="M 602.057879 909.806857 
L 602.057879 776.022286 
L 801.571825 776.022286 
L 801.571825 909.806857 
z
" clip-path="url(#pe76beb37f4)" style="fill: #778899; opacity: 0.4; stroke: #778899; stroke-width: 2; stroke-linejoin: miter"/>
   </g>
   <g id="patch_43">
    <path d="M 1001.085772 909.806857 
L 1001.085772 776.022286 
L 1200.599718 776.022286 
L 1200.599718 909.806857 
z
" clip-path="url(#pe76beb37f4)" style="fill: #778899; opacity: 0.4; stroke: #778899; stroke-width: 2; stroke-linejoin: miter"/>
   </g>
   <g id="matplotlib.axis_5">
    <g id="xtick_13">
     <g id="text_14">
      <!-- IID -->
      <g style="fill: #262626" transform="translate(278.891866 952.077076) scale(0.374 -0.374)">
       <use xlink:href="#ArialMT-49"/>
       <use xlink:href="#ArialMT-49" x="27.783203"/>
       <use xlink:href="#ArialMT-44" x="55.566406"/>
      </g>
     </g>
    </g>
    <g id="xtick_14"/>
    <g id="xtick_15"/>
    <g id="xtick_16">
     <g id="text_15">
      <!-- Length -->
      <g style="fill: #262626" transform="translate(844.138939 952.077076) scale(0.374 -0.374)">
       <use xlink:href="#ArialMT-4c"/>
       <use xlink:href="#ArialMT-65" x="55.615234"/>
       <use xlink:href="#ArialMT-6e" x="111.230469"/>
       <use xlink:href="#ArialMT-67" x="166.845703"/>
       <use xlink:href="#ArialMT-74" x="222.460938"/>
       <use xlink:href="#ArialMT-68" x="250.244141"/>
      </g>
     </g>
    </g>
    <g id="xtick_17">
     <g id="text_16">
      <!-- Template -->
      <g style="fill: #262626" transform="translate(1024.979182 952.077076) scale(0.374 -0.374)">
       <defs>
        <path id="ArialMT-54" d="M 1659 0 
L 1659 4041 
L 150 4041 
L 150 4581 
L 3781 4581 
L 3781 4041 
L 2266 4041 
L 2266 0 
L 1659 0 
z
" transform="scale(0.015625)"/>
        <path id="ArialMT-6d" d="M 422 0 
L 422 3319 
L 925 3319 
L 925 2853 
Q 1081 3097 1340 3245 
Q 1600 3394 1931 3394 
Q 2300 3394 2536 3241 
Q 2772 3088 2869 2813 
Q 3263 3394 3894 3394 
Q 4388 3394 4653 3120 
Q 4919 2847 4919 2278 
L 4919 0 
L 4359 0 
L 4359 2091 
Q 4359 2428 4304 2576 
Q 4250 2725 4106 2815 
Q 3963 2906 3769 2906 
Q 3419 2906 3187 2673 
Q 2956 2441 2956 1928 
L 2956 0 
L 2394 0 
L 2394 2156 
Q 2394 2531 2256 2718 
Q 2119 2906 1806 2906 
Q 1569 2906 1367 2781 
Q 1166 2656 1075 2415 
Q 984 2175 984 1722 
L 984 0 
L 422 0 
z
" transform="scale(0.015625)"/>
        <path id="ArialMT-70" d="M 422 -1272 
L 422 3319 
L 934 3319 
L 934 2888 
Q 1116 3141 1344 3267 
Q 1572 3394 1897 3394 
Q 2322 3394 2647 3175 
Q 2972 2956 3137 2557 
Q 3303 2159 3303 1684 
Q 3303 1175 3120 767 
Q 2938 359 2589 142 
Q 2241 -75 1856 -75 
Q 1575 -75 1351 44 
Q 1128 163 984 344 
L 984 -1272 
L 422 -1272 
z
M 931 1641 
Q 931 1000 1190 694 
Q 1450 388 1819 388 
Q 2194 388 2461 705 
Q 2728 1022 2728 1688 
Q 2728 2322 2467 2637 
Q 2206 2953 1844 2953 
Q 1484 2953 1207 2617 
Q 931 2281 931 1641 
z
" transform="scale(0.015625)"/>
       </defs>
       <use xlink:href="#ArialMT-54"/>
       <use xlink:href="#ArialMT-65" x="49.958984"/>
       <use xlink:href="#ArialMT-6d" x="105.574219"/>
       <use xlink:href="#ArialMT-70" x="188.875"/>
       <use xlink:href="#ArialMT-6c" x="244.490234"/>
       <use xlink:href="#ArialMT-61" x="266.707031"/>
       <use xlink:href="#ArialMT-74" x="322.322266"/>
       <use xlink:href="#ArialMT-65" x="350.105469"/>
      </g>
     </g>
    </g>
    <g id="xtick_18">
     <g id="text_17">
      <!-- (T)MCD -->
      <g style="fill: #262626" transform="translate(1233.895722 952.532888) scale(0.374 -0.374)">
       <defs>
        <path id="ArialMT-43" d="M 3763 1606 
L 4369 1453 
Q 4178 706 3683 314 
Q 3188 -78 2472 -78 
Q 1731 -78 1267 223 
Q 803 525 561 1097 
Q 319 1669 319 2325 
Q 319 3041 592 3573 
Q 866 4106 1370 4382 
Q 1875 4659 2481 4659 
Q 3169 4659 3637 4309 
Q 4106 3959 4291 3325 
L 3694 3184 
Q 3534 3684 3231 3912 
Q 2928 4141 2469 4141 
Q 1941 4141 1586 3887 
Q 1231 3634 1087 3207 
Q 944 2781 944 2328 
Q 944 1744 1114 1308 
Q 1284 872 1643 656 
Q 2003 441 2422 441 
Q 2931 441 3284 734 
Q 3638 1028 3763 1606 
z
" transform="scale(0.015625)"/>
       </defs>
       <use xlink:href="#ArialMT-28"/>
       <use xlink:href="#ArialMT-54" x="33.300781"/>
       <use xlink:href="#ArialMT-29" x="94.384766"/>
       <use xlink:href="#ArialMT-4d" x="127.685547"/>
       <use xlink:href="#ArialMT-43" x="210.986328"/>
       <use xlink:href="#ArialMT-44" x="283.203125"/>
      </g>
     </g>
    </g>
   </g>
   <g id="matplotlib.axis_6">
    <g id="ytick_7">
     <g id="line2d_33">
      <path d="M 145.769484 909.806857 
L 1405.50054 909.806857 
" clip-path="url(#pe76beb37f4)" style="fill: none; stroke: #ffffff; stroke-width: 2; stroke-linecap: round"/>
     </g>
     <g id="text_18">
      <!-- 0.0 -->
      <g style="fill: #262626" transform="translate(78.283484 923.191967) scale(0.374 -0.374)">
       <use xlink:href="#ArialMT-30"/>
       <use xlink:href="#ArialMT-2e" x="55.615234"/>
       <use xlink:href="#ArialMT-30" x="83.398438"/>
      </g>
     </g>
    </g>
    <g id="ytick_8">
     <g id="line2d_34">
      <path d="M 145.769484 846.099918 
L 1405.50054 846.099918 
" clip-path="url(#pe76beb37f4)" style="fill: none; stroke: #ffffff; stroke-width: 2; stroke-linecap: round"/>
     </g>
     <g id="text_19">
      <!-- 0.5 -->
      <g style="fill: #262626" transform="translate(78.283484 859.485028) scale(0.374 -0.374)">
       <use xlink:href="#ArialMT-30"/>
       <use xlink:href="#ArialMT-2e" x="55.615234"/>
       <use xlink:href="#ArialMT-35" x="83.398438"/>
      </g>
     </g>
    </g>
    <g id="ytick_9">
     <g id="line2d_35">
      <path d="M 145.769484 782.39298 
L 1405.50054 782.39298 
" clip-path="url(#pe76beb37f4)" style="fill: none; stroke: #ffffff; stroke-width: 2; stroke-linecap: round"/>
     </g>
     <g id="text_20">
      <!-- 1.0 -->
      <g style="fill: #262626" transform="translate(78.283484 795.778089) scale(0.374 -0.374)">
       <use xlink:href="#ArialMT-31"/>
       <use xlink:href="#ArialMT-2e" x="55.615234"/>
       <use xlink:href="#ArialMT-30" x="83.398438"/>
      </g>
     </g>
    </g>
   </g>
   <g id="patch_44">
    <path d="M 222.981382 909.806857 
L 254.903613 909.806857 
L 254.903613 797.682645 
L 222.981382 797.682645 
z
" clip-path="url(#pe76beb37f4)" style="fill: #5875a4; stroke: #ffffff; stroke-width: 2; stroke-linejoin: miter"/>
   </g>
   <g id="patch_45">
    <path d="M 821.52322 909.806857 
L 853.445451 909.806857 
L 853.445451 876.679249 
L 821.52322 876.679249 
z
" clip-path="url(#pe76beb37f4)" style="fill: #5875a4; stroke: #ffffff; stroke-width: 2; stroke-linejoin: miter"/>
   </g>
   <g id="patch_46">
    <path d="M 1021.037166 909.806857 
L 1052.959398 909.806857 
L 1052.959398 809.149894 
L 1021.037166 809.149894 
z
" clip-path="url(#pe76beb37f4)" style="fill: #5875a4; stroke: #ffffff; stroke-width: 2; stroke-linejoin: miter"/>
   </g>
   <g id="patch_47">
    <path d="M 1220.551112 909.806857 
L 1252.473344 909.806857 
L 1252.473344 858.841306 
L 1220.551112 858.841306 
z
" clip-path="url(#pe76beb37f4)" style="fill: #5875a4; stroke: #ffffff; stroke-width: 2; stroke-linejoin: miter"/>
   </g>
   <g id="patch_48">
    <path d="M 254.903613 909.806857 
L 286.825844 909.806857 
L 286.825844 798.956784 
L 254.903613 798.956784 
z
" clip-path="url(#pe76beb37f4)" style="fill: #cc8963; stroke: #ffffff; stroke-width: 2; stroke-linejoin: miter"/>
   </g>
   <g id="patch_49">
    <path d="M 853.445451 909.806857 
L 885.367683 909.806857 
L 885.367683 877.953388 
L 853.445451 877.953388 
z
" clip-path="url(#pe76beb37f4)" style="fill: #cc8963; stroke: #ffffff; stroke-width: 2; stroke-linejoin: miter"/>
   </g>
   <g id="patch_50">
    <path d="M 1052.959398 909.806857 
L 1084.881629 909.806857 
L 1084.881629 811.698171 
L 1052.959398 811.698171 
z
" clip-path="url(#pe76beb37f4)" style="fill: #cc8963; stroke: #ffffff; stroke-width: 2; stroke-linejoin: miter"/>
   </g>
   <g id="patch_51">
    <path d="M 1252.473344 909.806857 
L 1284.395575 909.806857 
L 1284.395575 862.663722 
L 1252.473344 862.663722 
z
" clip-path="url(#pe76beb37f4)" style="fill: #cc8963; stroke: #ffffff; stroke-width: 2; stroke-linejoin: miter"/>
   </g>
   <g id="patch_52">
    <path d="M 286.825844 909.806857 
L 318.748076 909.806857 
L 318.748076 812.97231 
L 286.825844 812.97231 
z
" clip-path="url(#pe76beb37f4)" style="fill: #5f9e6e; stroke: #ffffff; stroke-width: 2; stroke-linejoin: miter"/>
   </g>
   <g id="patch_53">
    <path d="M 885.367683 909.806857 
L 917.289914 909.806857 
L 917.289914 876.679249 
L 885.367683 876.679249 
z
" clip-path="url(#pe76beb37f4)" style="fill: #5f9e6e; stroke: #ffffff; stroke-width: 2; stroke-linejoin: miter"/>
   </g>
   <g id="patch_54">
    <path d="M 1084.881629 909.806857 
L 1116.80386 909.806857 
L 1116.80386 830.810253 
L 1084.881629 830.810253 
z
" clip-path="url(#pe76beb37f4)" style="fill: #5f9e6e; stroke: #ffffff; stroke-width: 2; stroke-linejoin: miter"/>
   </g>
   <g id="patch_55">
    <path d="M 1284.395575 909.806857 
L 1316.317807 909.806857 
L 1316.317807 857.567167 
L 1284.395575 857.567167 
z
" clip-path="url(#pe76beb37f4)" style="fill: #5f9e6e; stroke: #ffffff; stroke-width: 2; stroke-linejoin: miter"/>
   </g>
   <g id="patch_56">
    <path d="M 318.748076 909.806857 
L 350.670307 909.806857 
L 350.670307 816.794727 
L 318.748076 816.794727 
z
" clip-path="url(#pe76beb37f4)" style="fill: #b55d60; stroke: #ffffff; stroke-width: 2; stroke-linejoin: miter"/>
   </g>
   <g id="patch_57">
    <path d="M 917.289914 909.806857 
L 949.212146 909.806857 
L 949.212146 884.324082 
L 917.289914 884.324082 
z
" clip-path="url(#pe76beb37f4)" style="fill: #b55d60; stroke: #ffffff; stroke-width: 2; stroke-linejoin: miter"/>
   </g>
   <g id="patch_58">
    <path d="M 1116.80386 909.806857 
L 1148.726092 909.806857 
L 1148.726092 884.324082 
L 1116.80386 884.324082 
z
" clip-path="url(#pe76beb37f4)" style="fill: #b55d60; stroke: #ffffff; stroke-width: 2; stroke-linejoin: miter"/>
   </g>
   <g id="patch_59">
    <path d="M 1316.317807 909.806857 
L 1348.240038 909.806857 
L 1348.240038 863.937861 
L 1316.317807 863.937861 
z
" clip-path="url(#pe76beb37f4)" style="fill: #b55d60; stroke: #ffffff; stroke-width: 2; stroke-linejoin: miter"/>
   </g>
   <g id="line2d_36">
    <path clip-path="url(#pe76beb37f4)" style="fill: none; stroke: #424242; stroke-width: 4.5; stroke-linecap: round"/>
   </g>
   <g id="line2d_37">
    <path clip-path="url(#pe76beb37f4)" style="fill: none; stroke: #424242; stroke-width: 4.5; stroke-linecap: round"/>
   </g>
   <g id="line2d_38">
    <path clip-path="url(#pe76beb37f4)" style="fill: none; stroke: #424242; stroke-width: 4.5; stroke-linecap: round"/>
   </g>
   <g id="line2d_39">
    <path clip-path="url(#pe76beb37f4)" style="fill: none; stroke: #424242; stroke-width: 4.5; stroke-linecap: round"/>
   </g>
   <g id="line2d_40">
    <path clip-path="url(#pe76beb37f4)" style="fill: none; stroke: #424242; stroke-width: 4.5; stroke-linecap: round"/>
   </g>
   <g id="line2d_41">
    <path clip-path="url(#pe76beb37f4)" style="fill: none; stroke: #424242; stroke-width: 4.5; stroke-linecap: round"/>
   </g>
   <g id="line2d_42">
    <path clip-path="url(#pe76beb37f4)" style="fill: none; stroke: #424242; stroke-width: 4.5; stroke-linecap: round"/>
   </g>
   <g id="line2d_43">
    <path clip-path="url(#pe76beb37f4)" style="fill: none; stroke: #424242; stroke-width: 4.5; stroke-linecap: round"/>
   </g>
   <g id="line2d_44">
    <path clip-path="url(#pe76beb37f4)" style="fill: none; stroke: #424242; stroke-width: 4.5; stroke-linecap: round"/>
   </g>
   <g id="line2d_45">
    <path clip-path="url(#pe76beb37f4)" style="fill: none; stroke: #424242; stroke-width: 4.5; stroke-linecap: round"/>
   </g>
   <g id="line2d_46">
    <path clip-path="url(#pe76beb37f4)" style="fill: none; stroke: #424242; stroke-width: 4.5; stroke-linecap: round"/>
   </g>
   <g id="line2d_47">
    <path clip-path="url(#pe76beb37f4)" style="fill: none; stroke: #424242; stroke-width: 4.5; stroke-linecap: round"/>
   </g>
   <g id="line2d_48">
    <path clip-path="url(#pe76beb37f4)" style="fill: none; stroke: #424242; stroke-width: 4.5; stroke-linecap: round"/>
   </g>
   <g id="line2d_49">
    <path clip-path="url(#pe76beb37f4)" style="fill: none; stroke: #424242; stroke-width: 4.5; stroke-linecap: round"/>
   </g>
   <g id="line2d_50">
    <path clip-path="url(#pe76beb37f4)" style="fill: none; stroke: #424242; stroke-width: 4.5; stroke-linecap: round"/>
   </g>
   <g id="line2d_51">
    <path clip-path="url(#pe76beb37f4)" style="fill: none; stroke: #424242; stroke-width: 4.5; stroke-linecap: round"/>
   </g>
   <g id="patch_60">
    <path d="M 145.769484 909.806857 
L 145.769484 776.022286 
" style="fill: none; stroke: #ffffff; stroke-width: 2.5; stroke-linejoin: miter; stroke-linecap: square"/>
   </g>
   <g id="patch_61">
    <path d="M 145.769484 909.806857 
L 1405.50054 909.806857 
" style="fill: none; stroke: #ffffff; stroke-width: 2.5; stroke-linejoin: miter; stroke-linecap: square"/>
   </g>
   <g id="text_21">
    <!-- GeoQuery (seq2tree) -->
    <g style="fill: #262626" transform="translate(582.89645 770.022286) scale(0.408 -0.408)">
     <defs>
      <path id="ArialMT-47" d="M 2638 1797 
L 2638 2334 
L 4578 2338 
L 4578 638 
Q 4131 281 3656 101 
Q 3181 -78 2681 -78 
Q 2006 -78 1454 211 
Q 903 500 622 1047 
Q 341 1594 341 2269 
Q 341 2938 620 3517 
Q 900 4097 1425 4378 
Q 1950 4659 2634 4659 
Q 3131 4659 3532 4498 
Q 3934 4338 4162 4050 
Q 4391 3763 4509 3300 
L 3963 3150 
Q 3859 3500 3706 3700 
Q 3553 3900 3268 4020 
Q 2984 4141 2638 4141 
Q 2222 4141 1919 4014 
Q 1616 3888 1430 3681 
Q 1244 3475 1141 3228 
Q 966 2803 966 2306 
Q 966 1694 1177 1281 
Q 1388 869 1791 669 
Q 2194 469 2647 469 
Q 3041 469 3416 620 
Q 3791 772 3984 944 
L 3984 1797 
L 2638 1797 
z
" transform="scale(0.015625)"/>
      <path id="ArialMT-51" d="M 3966 491 
Q 4388 200 4744 66 
L 4566 -356 
Q 4072 -178 3581 206 
Q 3072 -78 2456 -78 
Q 1834 -78 1328 222 
Q 822 522 548 1065 
Q 275 1609 275 2291 
Q 275 2969 550 3525 
Q 825 4081 1333 4372 
Q 1841 4663 2469 4663 
Q 3103 4663 3612 4361 
Q 4122 4059 4389 3517 
Q 4656 2975 4656 2294 
Q 4656 1728 4484 1276 
Q 4313 825 3966 491 
z
M 2631 1266 
Q 3156 1119 3497 828 
Q 4031 1316 4031 2294 
Q 4031 2850 3842 3265 
Q 3653 3681 3289 3911 
Q 2925 4141 2472 4141 
Q 1794 4141 1347 3677 
Q 900 3213 900 2291 
Q 900 1397 1342 919 
Q 1784 441 2472 441 
Q 2797 441 3084 563 
Q 2800 747 2484 825 
L 2631 1266 
z
" transform="scale(0.015625)"/>
      <path id="ArialMT-75" d="M 2597 0 
L 2597 488 
Q 2209 -75 1544 -75 
Q 1250 -75 995 37 
Q 741 150 617 320 
Q 494 491 444 738 
Q 409 903 409 1263 
L 409 3319 
L 972 3319 
L 972 1478 
Q 972 1038 1006 884 
Q 1059 663 1231 536 
Q 1403 409 1656 409 
Q 1909 409 2131 539 
Q 2353 669 2445 892 
Q 2538 1116 2538 1541 
L 2538 3319 
L 3100 3319 
L 3100 0 
L 2597 0 
z
" transform="scale(0.015625)"/>
      <path id="ArialMT-79" d="M 397 -1278 
L 334 -750 
Q 519 -800 656 -800 
Q 844 -800 956 -737 
Q 1069 -675 1141 -563 
Q 1194 -478 1313 -144 
Q 1328 -97 1363 -6 
L 103 3319 
L 709 3319 
L 1400 1397 
Q 1534 1031 1641 628 
Q 1738 1016 1872 1384 
L 2581 3319 
L 3144 3319 
L 1881 -56 
Q 1678 -603 1566 -809 
Q 1416 -1088 1222 -1217 
Q 1028 -1347 759 -1347 
Q 597 -1347 397 -1278 
z
" transform="scale(0.015625)"/>
      <path id="ArialMT-71" d="M 2538 -1272 
L 2538 353 
Q 2406 169 2170 47 
Q 1934 -75 1669 -75 
Q 1078 -75 651 397 
Q 225 869 225 1691 
Q 225 2191 398 2587 
Q 572 2984 901 3189 
Q 1231 3394 1625 3394 
Q 2241 3394 2594 2875 
L 2594 3319 
L 3100 3319 
L 3100 -1272 
L 2538 -1272 
z
M 803 1669 
Q 803 1028 1072 708 
Q 1341 388 1716 388 
Q 2075 388 2334 692 
Q 2594 997 2594 1619 
Q 2594 2281 2320 2615 
Q 2047 2950 1678 2950 
Q 1313 2950 1058 2639 
Q 803 2328 803 1669 
z
" transform="scale(0.015625)"/>
     </defs>
     <use xlink:href="#ArialMT-47"/>
     <use xlink:href="#ArialMT-65" x="77.783203"/>
     <use xlink:href="#ArialMT-6f" x="133.398438"/>
     <use xlink:href="#ArialMT-51" x="189.013672"/>
     <use xlink:href="#ArialMT-75" x="266.796875"/>
     <use xlink:href="#ArialMT-65" x="322.412109"/>
     <use xlink:href="#ArialMT-72" x="378.027344"/>
     <use xlink:href="#ArialMT-79" x="411.328125"/>
     <use xlink:href="#ArialMT-20" x="461.328125"/>
     <use xlink:href="#ArialMT-28" x="489.111328"/>
     <use xlink:href="#ArialMT-73" x="522.412109"/>
     <use xlink:href="#ArialMT-65" x="572.412109"/>
     <use xlink:href="#ArialMT-71" x="628.027344"/>
     <use xlink:href="#ArialMT-32" x="683.642578"/>
     <use xlink:href="#ArialMT-74" x="739.257812"/>
     <use xlink:href="#ArialMT-72" x="767.041016"/>
     <use xlink:href="#ArialMT-65" x="800.341797"/>
     <use xlink:href="#ArialMT-65" x="855.957031"/>
     <use xlink:href="#ArialMT-29" x="911.572266"/>
    </g>
   </g>
  </g>
  <g id="axes_4">
   <g id="patch_62">
    <path d="M 145.769484 1177.376 
L 1405.50054 1177.376 
L 1405.50054 1043.591429 
L 145.769484 1043.591429 
z
" style="fill: #eaeaf2"/>
   </g>
   <g id="patch_63">
    <path d="M 203.029987 1177.376 
L 203.029987 1043.591429 
L 397.133385 1043.591429 
L 397.133385 1177.376 
z
" clip-path="url(#p5fe706cf0c)" style="fill: #778899; opacity: 0.4; stroke: #778899; stroke-width: 2; stroke-linejoin: miter"/>
   </g>
   <g id="patch_64">
    <path d="M 591.236784 1177.376 
L 591.236784 1043.591429 
L 785.340182 1043.591429 
L 785.340182 1177.376 
z
" clip-path="url(#p5fe706cf0c)" style="fill: #778899; opacity: 0.4; stroke: #778899; stroke-width: 2; stroke-linejoin: miter"/>
   </g>
   <g id="patch_65">
    <path d="M 979.443581 1177.376 
L 979.443581 1043.591429 
L 1173.546979 1043.591429 
L 1173.546979 1177.376 
z
" clip-path="url(#p5fe706cf0c)" style="fill: #778899; opacity: 0.4; stroke: #778899; stroke-width: 2; stroke-linejoin: miter"/>
   </g>
   <g id="matplotlib.axis_7">
    <g id="xtick_19">
     <g id="text_22">
      <!-- IID -->
      <g style="fill: #262626" transform="translate(276.186593 1219.646219) scale(0.374 -0.374)">
       <use xlink:href="#ArialMT-49"/>
       <use xlink:href="#ArialMT-49" x="27.783203"/>
       <use xlink:href="#ArialMT-44" x="55.566406"/>
      </g>
     </g>
    </g>
    <g id="xtick_20">
     <g id="text_23">
      <!-- 1-shot -->
      <g style="fill: #262626" transform="translate(442.216616 1219.646219) scale(0.374 -0.374)">
       <use xlink:href="#ArialMT-31"/>
       <use xlink:href="#ArialMT-2d" x="55.615234"/>
       <use xlink:href="#ArialMT-73" x="88.916016"/>
       <use xlink:href="#ArialMT-68" x="138.916016"/>
       <use xlink:href="#ArialMT-6f" x="194.53125"/>
       <use xlink:href="#ArialMT-74" x="250.146484"/>
      </g>
      <!-- lexical -->
      <g style="fill: #262626" transform="translate(442.22246 1259.203731) scale(0.374 -0.374)">
       <use xlink:href="#ArialMT-6c"/>
       <use xlink:href="#ArialMT-65" x="22.216797"/>
       <use xlink:href="#ArialMT-78" x="77.832031"/>
       <use xlink:href="#ArialMT-69" x="127.832031"/>
       <use xlink:href="#ArialMT-63" x="150.048828"/>
       <use xlink:href="#ArialMT-61" x="200.048828"/>
       <use xlink:href="#ArialMT-6c" x="255.664062"/>
      </g>
     </g>
    </g>
    <g id="xtick_21">
     <g id="text_24">
      <!-- 0-shot -->
      <g style="fill: #262626" transform="translate(636.320014 1219.646219) scale(0.374 -0.374)">
       <use xlink:href="#ArialMT-30"/>
       <use xlink:href="#ArialMT-2d" x="55.615234"/>
       <use xlink:href="#ArialMT-73" x="88.916016"/>
       <use xlink:href="#ArialMT-68" x="138.916016"/>
       <use xlink:href="#ArialMT-6f" x="194.53125"/>
       <use xlink:href="#ArialMT-74" x="250.146484"/>
      </g>
      <!-- lexical -->
      <g style="fill: #262626" transform="translate(636.325858 1259.203731) scale(0.374 -0.374)">
       <use xlink:href="#ArialMT-6c"/>
       <use xlink:href="#ArialMT-65" x="22.216797"/>
       <use xlink:href="#ArialMT-78" x="77.832031"/>
       <use xlink:href="#ArialMT-69" x="127.832031"/>
       <use xlink:href="#ArialMT-63" x="150.048828"/>
       <use xlink:href="#ArialMT-61" x="200.048828"/>
       <use xlink:href="#ArialMT-6c" x="255.664062"/>
      </g>
     </g>
    </g>
    <g id="xtick_22">
     <g id="text_25">
      <!-- Length -->
      <g style="fill: #262626" transform="translate(825.202022 1219.646219) scale(0.374 -0.374)">
       <use xlink:href="#ArialMT-4c"/>
       <use xlink:href="#ArialMT-65" x="55.615234"/>
       <use xlink:href="#ArialMT-6e" x="111.230469"/>
       <use xlink:href="#ArialMT-67" x="166.845703"/>
       <use xlink:href="#ArialMT-74" x="222.460938"/>
       <use xlink:href="#ArialMT-68" x="250.244141"/>
      </g>
     </g>
    </g>
    <g id="xtick_23">
     <g id="text_26">
      <!-- Template -->
      <g style="fill: #262626" transform="translate(1000.631718 1219.646219) scale(0.374 -0.374)">
       <use xlink:href="#ArialMT-54"/>
       <use xlink:href="#ArialMT-65" x="49.958984"/>
       <use xlink:href="#ArialMT-6d" x="105.574219"/>
       <use xlink:href="#ArialMT-70" x="188.875"/>
       <use xlink:href="#ArialMT-6c" x="244.490234"/>
       <use xlink:href="#ArialMT-61" x="266.707031"/>
       <use xlink:href="#ArialMT-74" x="322.322266"/>
       <use xlink:href="#ArialMT-65" x="350.105469"/>
      </g>
     </g>
    </g>
    <g id="xtick_24">
     <g id="text_27">
      <!-- MCD -->
      <g style="fill: #262626" transform="translate(1228.01235 1219.646219) scale(0.374 -0.374)">
       <use xlink:href="#ArialMT-4d"/>
       <use xlink:href="#ArialMT-43" x="83.300781"/>
       <use xlink:href="#ArialMT-44" x="155.517578"/>
      </g>
     </g>
    </g>
    <g id="text_28">
     <!--  -->
     <g style="fill: #262626" transform="translate(775.635012 1299.840856) scale(0.408 -0.408)"/>
     <!-- Test time distributional shift -->
     <g style="fill: #262626" transform="translate(504.0122 1342.937131) scale(0.408 -0.408)">
      <defs>
       <path id="Arial-BoldMT-54" d="M 1497 0 
L 1497 3806 
L 138 3806 
L 138 4581 
L 3778 4581 
L 3778 3806 
L 2422 3806 
L 2422 0 
L 1497 0 
z
" transform="scale(0.015625)"/>
       <path id="Arial-BoldMT-65" d="M 2381 1056 
L 3256 909 
Q 3088 428 2723 176 
Q 2359 -75 1813 -75 
Q 947 -75 531 491 
Q 203 944 203 1634 
Q 203 2459 634 2926 
Q 1066 3394 1725 3394 
Q 2466 3394 2894 2905 
Q 3322 2416 3303 1406 
L 1103 1406 
Q 1113 1016 1316 798 
Q 1519 581 1822 581 
Q 2028 581 2168 693 
Q 2309 806 2381 1056 
z
M 2431 1944 
Q 2422 2325 2234 2523 
Q 2047 2722 1778 2722 
Q 1491 2722 1303 2513 
Q 1116 2303 1119 1944 
L 2431 1944 
z
" transform="scale(0.015625)"/>
       <path id="Arial-BoldMT-73" d="M 150 947 
L 1031 1081 
Q 1088 825 1259 692 
Q 1431 559 1741 559 
Q 2081 559 2253 684 
Q 2369 772 2369 919 
Q 2369 1019 2306 1084 
Q 2241 1147 2013 1200 
Q 950 1434 666 1628 
Q 272 1897 272 2375 
Q 272 2806 612 3100 
Q 953 3394 1669 3394 
Q 2350 3394 2681 3172 
Q 3013 2950 3138 2516 
L 2309 2363 
Q 2256 2556 2107 2659 
Q 1959 2763 1684 2763 
Q 1338 2763 1188 2666 
Q 1088 2597 1088 2488 
Q 1088 2394 1175 2328 
Q 1294 2241 1995 2081 
Q 2697 1922 2975 1691 
Q 3250 1456 3250 1038 
Q 3250 581 2869 253 
Q 2488 -75 1741 -75 
Q 1063 -75 667 200 
Q 272 475 150 947 
z
" transform="scale(0.015625)"/>
       <path id="Arial-BoldMT-74" d="M 1981 3319 
L 1981 2619 
L 1381 2619 
L 1381 1281 
Q 1381 875 1398 808 
Q 1416 741 1477 697 
Q 1538 653 1625 653 
Q 1747 653 1978 738 
L 2053 56 
Q 1747 -75 1359 -75 
Q 1122 -75 931 4 
Q 741 84 652 211 
Q 563 338 528 553 
Q 500 706 500 1172 
L 500 2619 
L 97 2619 
L 97 3319 
L 500 3319 
L 500 3978 
L 1381 4491 
L 1381 3319 
L 1981 3319 
z
" transform="scale(0.015625)"/>
       <path id="Arial-BoldMT-20" transform="scale(0.015625)"/>
       <path id="Arial-BoldMT-69" d="M 459 3769 
L 459 4581 
L 1338 4581 
L 1338 3769 
L 459 3769 
z
M 459 0 
L 459 3319 
L 1338 3319 
L 1338 0 
L 459 0 
z
" transform="scale(0.015625)"/>
       <path id="Arial-BoldMT-6d" d="M 394 3319 
L 1203 3319 
L 1203 2866 
Q 1638 3394 2238 3394 
Q 2556 3394 2790 3262 
Q 3025 3131 3175 2866 
Q 3394 3131 3647 3262 
Q 3900 3394 4188 3394 
Q 4553 3394 4806 3245 
Q 5059 3097 5184 2809 
Q 5275 2597 5275 2122 
L 5275 0 
L 4397 0 
L 4397 1897 
Q 4397 2391 4306 2534 
Q 4184 2722 3931 2722 
Q 3747 2722 3584 2609 
Q 3422 2497 3350 2280 
Q 3278 2063 3278 1594 
L 3278 0 
L 2400 0 
L 2400 1819 
Q 2400 2303 2353 2443 
Q 2306 2584 2207 2653 
Q 2109 2722 1941 2722 
Q 1738 2722 1575 2612 
Q 1413 2503 1342 2297 
Q 1272 2091 1272 1613 
L 1272 0 
L 394 0 
L 394 3319 
z
" transform="scale(0.015625)"/>
       <path id="Arial-BoldMT-64" d="M 3503 0 
L 2688 0 
L 2688 488 
Q 2484 203 2207 64 
Q 1931 -75 1650 -75 
Q 1078 -75 670 386 
Q 263 847 263 1672 
Q 263 2516 659 2955 
Q 1056 3394 1663 3394 
Q 2219 3394 2625 2931 
L 2625 4581 
L 3503 4581 
L 3503 0 
z
M 1159 1731 
Q 1159 1200 1306 963 
Q 1519 619 1900 619 
Q 2203 619 2415 876 
Q 2628 1134 2628 1647 
Q 2628 2219 2422 2470 
Q 2216 2722 1894 2722 
Q 1581 2722 1370 2473 
Q 1159 2225 1159 1731 
z
" transform="scale(0.015625)"/>
       <path id="Arial-BoldMT-72" d="M 1300 0 
L 422 0 
L 422 3319 
L 1238 3319 
L 1238 2847 
Q 1447 3181 1614 3287 
Q 1781 3394 1994 3394 
Q 2294 3394 2572 3228 
L 2300 2463 
Q 2078 2606 1888 2606 
Q 1703 2606 1575 2504 
Q 1447 2403 1373 2137 
Q 1300 1872 1300 1025 
L 1300 0 
z
" transform="scale(0.015625)"/>
       <path id="Arial-BoldMT-62" d="M 422 0 
L 422 4581 
L 1300 4581 
L 1300 2931 
Q 1706 3394 2263 3394 
Q 2869 3394 3266 2955 
Q 3663 2516 3663 1694 
Q 3663 844 3258 384 
Q 2853 -75 2275 -75 
Q 1991 -75 1714 67 
Q 1438 209 1238 488 
L 1238 0 
L 422 0 
z
M 1294 1731 
Q 1294 1216 1456 969 
Q 1684 619 2063 619 
Q 2353 619 2558 867 
Q 2763 1116 2763 1650 
Q 2763 2219 2556 2470 
Q 2350 2722 2028 2722 
Q 1713 2722 1503 2476 
Q 1294 2231 1294 1731 
z
" transform="scale(0.015625)"/>
       <path id="Arial-BoldMT-75" d="M 2644 0 
L 2644 497 
Q 2463 231 2167 78 
Q 1872 -75 1544 -75 
Q 1209 -75 943 72 
Q 678 219 559 484 
Q 441 750 441 1219 
L 441 3319 
L 1319 3319 
L 1319 1794 
Q 1319 1094 1367 936 
Q 1416 778 1544 686 
Q 1672 594 1869 594 
Q 2094 594 2272 717 
Q 2450 841 2515 1023 
Q 2581 1206 2581 1919 
L 2581 3319 
L 3459 3319 
L 3459 0 
L 2644 0 
z
" transform="scale(0.015625)"/>
       <path id="Arial-BoldMT-6f" d="M 256 1706 
Q 256 2144 472 2553 
Q 688 2963 1083 3178 
Q 1478 3394 1966 3394 
Q 2719 3394 3200 2905 
Q 3681 2416 3681 1669 
Q 3681 916 3195 420 
Q 2709 -75 1972 -75 
Q 1516 -75 1102 131 
Q 688 338 472 736 
Q 256 1134 256 1706 
z
M 1156 1659 
Q 1156 1166 1390 903 
Q 1625 641 1969 641 
Q 2313 641 2545 903 
Q 2778 1166 2778 1666 
Q 2778 2153 2545 2415 
Q 2313 2678 1969 2678 
Q 1625 2678 1390 2415 
Q 1156 2153 1156 1659 
z
" transform="scale(0.015625)"/>
       <path id="Arial-BoldMT-6e" d="M 3478 0 
L 2600 0 
L 2600 1694 
Q 2600 2231 2544 2389 
Q 2488 2547 2361 2634 
Q 2234 2722 2056 2722 
Q 1828 2722 1647 2597 
Q 1466 2472 1398 2265 
Q 1331 2059 1331 1503 
L 1331 0 
L 453 0 
L 453 3319 
L 1269 3319 
L 1269 2831 
Q 1703 3394 2363 3394 
Q 2653 3394 2893 3289 
Q 3134 3184 3257 3021 
Q 3381 2859 3429 2653 
Q 3478 2447 3478 2063 
L 3478 0 
z
" transform="scale(0.015625)"/>
       <path id="Arial-BoldMT-61" d="M 1116 2306 
L 319 2450 
Q 453 2931 781 3162 
Q 1109 3394 1756 3394 
Q 2344 3394 2631 3255 
Q 2919 3116 3036 2902 
Q 3153 2688 3153 2116 
L 3144 1091 
Q 3144 653 3186 445 
Q 3228 238 3344 0 
L 2475 0 
Q 2441 88 2391 259 
Q 2369 338 2359 363 
Q 2134 144 1878 34 
Q 1622 -75 1331 -75 
Q 819 -75 523 203 
Q 228 481 228 906 
Q 228 1188 362 1408 
Q 497 1628 739 1745 
Q 981 1863 1438 1950 
Q 2053 2066 2291 2166 
L 2291 2253 
Q 2291 2506 2166 2614 
Q 2041 2722 1694 2722 
Q 1459 2722 1328 2630 
Q 1197 2538 1116 2306 
z
M 2291 1594 
Q 2122 1538 1756 1459 
Q 1391 1381 1278 1306 
Q 1106 1184 1106 997 
Q 1106 813 1243 678 
Q 1381 544 1594 544 
Q 1831 544 2047 700 
Q 2206 819 2256 991 
Q 2291 1103 2291 1419 
L 2291 1594 
z
" transform="scale(0.015625)"/>
       <path id="Arial-BoldMT-6c" d="M 459 0 
L 459 4581 
L 1338 4581 
L 1338 0 
L 459 0 
z
" transform="scale(0.015625)"/>
       <path id="Arial-BoldMT-68" d="M 1334 4581 
L 1334 2897 
Q 1759 3394 2350 3394 
Q 2653 3394 2897 3281 
Q 3141 3169 3264 2994 
Q 3388 2819 3433 2606 
Q 3478 2394 3478 1947 
L 3478 0 
L 2600 0 
L 2600 1753 
Q 2600 2275 2550 2415 
Q 2500 2556 2373 2639 
Q 2247 2722 2056 2722 
Q 1838 2722 1666 2615 
Q 1494 2509 1414 2295 
Q 1334 2081 1334 1663 
L 1334 0 
L 456 0 
L 456 4581 
L 1334 4581 
z
" transform="scale(0.015625)"/>
       <path id="Arial-BoldMT-66" d="M 75 3319 
L 563 3319 
L 563 3569 
Q 563 3988 652 4194 
Q 741 4400 980 4529 
Q 1219 4659 1584 4659 
Q 1959 4659 2319 4547 
L 2200 3934 
Q 1991 3984 1797 3984 
Q 1606 3984 1523 3895 
Q 1441 3806 1441 3553 
L 1441 3319 
L 2097 3319 
L 2097 2628 
L 1441 2628 
L 1441 0 
L 563 0 
L 563 2628 
L 75 2628 
L 75 3319 
z
" transform="scale(0.015625)"/>
      </defs>
      <use xlink:href="#Arial-BoldMT-54"/>
      <use xlink:href="#Arial-BoldMT-65" x="53.708984"/>
      <use xlink:href="#Arial-BoldMT-73" x="109.324219"/>
      <use xlink:href="#Arial-BoldMT-74" x="164.939453"/>
      <use xlink:href="#Arial-BoldMT-20" x="198.240234"/>
      <use xlink:href="#Arial-BoldMT-74" x="226.023438"/>
      <use xlink:href="#Arial-BoldMT-69" x="259.324219"/>
      <use xlink:href="#Arial-BoldMT-6d" x="287.107422"/>
      <use xlink:href="#Arial-BoldMT-65" x="376.023438"/>
      <use xlink:href="#Arial-BoldMT-20" x="431.638672"/>
      <use xlink:href="#Arial-BoldMT-64" x="459.421875"/>
      <use xlink:href="#Arial-BoldMT-69" x="520.505859"/>
      <use xlink:href="#Arial-BoldMT-73" x="548.289062"/>
      <use xlink:href="#Arial-BoldMT-74" x="603.904297"/>
      <use xlink:href="#Arial-BoldMT-72" x="637.205078"/>
      <use xlink:href="#Arial-BoldMT-69" x="676.121094"/>
      <use xlink:href="#Arial-BoldMT-62" x="703.904297"/>
      <use xlink:href="#Arial-BoldMT-75" x="764.988281"/>
      <use xlink:href="#Arial-BoldMT-74" x="826.072266"/>
      <use xlink:href="#Arial-BoldMT-69" x="859.373047"/>
      <use xlink:href="#Arial-BoldMT-6f" x="887.15625"/>
      <use xlink:href="#Arial-BoldMT-6e" x="948.240234"/>
      <use xlink:href="#Arial-BoldMT-61" x="1009.324219"/>
      <use xlink:href="#Arial-BoldMT-6c" x="1064.939453"/>
      <use xlink:href="#Arial-BoldMT-20" x="1092.722656"/>
      <use xlink:href="#Arial-BoldMT-73" x="1120.505859"/>
      <use xlink:href="#Arial-BoldMT-68" x="1176.121094"/>
      <use xlink:href="#Arial-BoldMT-69" x="1237.205078"/>
      <use xlink:href="#Arial-BoldMT-66" x="1264.988281"/>
      <use xlink:href="#Arial-BoldMT-74" x="1298.289062"/>
     </g>
    </g>
   </g>
   <g id="matplotlib.axis_8">
    <g id="ytick_10">
     <g id="line2d_52">
      <path d="M 145.769484 1177.376 
L 1405.50054 1177.376 
" clip-path="url(#p5fe706cf0c)" style="fill: none; stroke: #ffffff; stroke-width: 2; stroke-linecap: round"/>
     </g>
     <g id="text_29">
      <!-- 0.0 -->
      <g style="fill: #262626" transform="translate(78.283484 1190.761109) scale(0.374 -0.374)">
       <use xlink:href="#ArialMT-30"/>
       <use xlink:href="#ArialMT-2e" x="55.615234"/>
       <use xlink:href="#ArialMT-30" x="83.398438"/>
      </g>
     </g>
    </g>
    <g id="ytick_11">
     <g id="line2d_53">
      <path d="M 145.769484 1113.669061 
L 1405.50054 1113.669061 
" clip-path="url(#p5fe706cf0c)" style="fill: none; stroke: #ffffff; stroke-width: 2; stroke-linecap: round"/>
     </g>
     <g id="text_30">
      <!-- 0.5 -->
      <g style="fill: #262626" transform="translate(78.283484 1127.054171) scale(0.374 -0.374)">
       <use xlink:href="#ArialMT-30"/>
       <use xlink:href="#ArialMT-2e" x="55.615234"/>
       <use xlink:href="#ArialMT-35" x="83.398438"/>
      </g>
     </g>
    </g>
    <g id="ytick_12">
     <g id="line2d_54">
      <path d="M 145.769484 1049.962122 
L 1405.50054 1049.962122 
" clip-path="url(#p5fe706cf0c)" style="fill: none; stroke: #ffffff; stroke-width: 2; stroke-linecap: round"/>
     </g>
     <g id="text_31">
      <!-- 1.0 -->
      <g style="fill: #262626" transform="translate(78.283484 1063.347232) scale(0.374 -0.374)">
       <use xlink:href="#ArialMT-31"/>
       <use xlink:href="#ArialMT-2e" x="55.615234"/>
       <use xlink:href="#ArialMT-30" x="83.398438"/>
      </g>
     </g>
    </g>
    <g id="text_32">
     <!-- Accuracy -->
     <g style="fill: #262626" transform="translate(36.403875 760.848816) rotate(-90) scale(0.408 -0.408)">
      <defs>
       <path id="Arial-BoldMT-41" d="M 4597 0 
L 3591 0 
L 3191 1041 
L 1359 1041 
L 981 0 
L 0 0 
L 1784 4581 
L 2763 4581 
L 4597 0 
z
M 2894 1813 
L 2263 3513 
L 1644 1813 
L 2894 1813 
z
" transform="scale(0.015625)"/>
       <path id="Arial-BoldMT-63" d="M 3353 2338 
L 2488 2181 
Q 2444 2441 2289 2572 
Q 2134 2703 1888 2703 
Q 1559 2703 1364 2476 
Q 1169 2250 1169 1719 
Q 1169 1128 1367 884 
Q 1566 641 1900 641 
Q 2150 641 2309 783 
Q 2469 925 2534 1272 
L 3397 1125 
Q 3263 531 2881 228 
Q 2500 -75 1859 -75 
Q 1131 -75 698 384 
Q 266 844 266 1656 
Q 266 2478 700 2936 
Q 1134 3394 1875 3394 
Q 2481 3394 2839 3133 
Q 3197 2872 3353 2338 
z
" transform="scale(0.015625)"/>
       <path id="Arial-BoldMT-79" d="M 44 3319 
L 978 3319 
L 1772 963 
L 2547 3319 
L 3456 3319 
L 2284 125 
L 2075 -453 
Q 1959 -744 1854 -897 
Q 1750 -1050 1614 -1145 
Q 1478 -1241 1279 -1294 
Q 1081 -1347 831 -1347 
Q 578 -1347 334 -1294 
L 256 -606 
Q 463 -647 628 -647 
Q 934 -647 1081 -467 
Q 1228 -288 1306 -9 
L 44 3319 
z
" transform="scale(0.015625)"/>
      </defs>
      <use xlink:href="#Arial-BoldMT-41"/>
      <use xlink:href="#Arial-BoldMT-63" x="72.216797"/>
      <use xlink:href="#Arial-BoldMT-63" x="127.832031"/>
      <use xlink:href="#Arial-BoldMT-75" x="183.447266"/>
      <use xlink:href="#Arial-BoldMT-72" x="244.53125"/>
      <use xlink:href="#Arial-BoldMT-61" x="283.447266"/>
      <use xlink:href="#Arial-BoldMT-63" x="339.0625"/>
      <use xlink:href="#Arial-BoldMT-79" x="394.677734"/>
     </g>
    </g>
   </g>
   <g id="patch_66">
    <path d="M 222.440327 1177.376 
L 253.496871 1177.376 
L 253.496871 1049.962122 
L 222.440327 1049.962122 
z
" clip-path="url(#p5fe706cf0c)" style="fill: #5875a4; stroke: #ffffff; stroke-width: 2; stroke-linejoin: miter"/>
   </g>
   <g id="patch_67">
    <path d="M 416.543725 1177.376 
L 447.600269 1177.376 
L 447.600269 1167.18289 
L 416.543725 1167.18289 
z
" clip-path="url(#p5fe706cf0c)" style="fill: #5875a4; stroke: #ffffff; stroke-width: 2; stroke-linejoin: miter"/>
   </g>
   <g id="patch_68">
    <path d="M 610.647124 1177.376 
L 641.703668 1177.376 
L 641.703668 1177.376 
L 610.647124 1177.376 
z
" clip-path="url(#p5fe706cf0c)" style="fill: #5875a4; stroke: #ffffff; stroke-width: 2; stroke-linejoin: miter"/>
   </g>
   <g id="patch_69">
    <path d="M 804.750522 1177.376 
L 835.807066 1177.376 
L 835.807066 1168.457029 
L 804.750522 1168.457029 
z
" clip-path="url(#p5fe706cf0c)" style="fill: #5875a4; stroke: #ffffff; stroke-width: 2; stroke-linejoin: miter"/>
   </g>
   <g id="patch_70">
    <path d="M 998.853921 1177.376 
L 1029.910464 1177.376 
L 1029.910464 1049.962122 
L 998.853921 1049.962122 
z
" clip-path="url(#p5fe706cf0c)" style="fill: #5875a4; stroke: #ffffff; stroke-width: 2; stroke-linejoin: miter"/>
   </g>
   <g id="patch_71">
    <path d="M 1192.957319 1177.376 
L 1224.013863 1177.376 
L 1224.013863 1174.827722 
L 1192.957319 1174.827722 
z
" clip-path="url(#p5fe706cf0c)" style="fill: #5875a4; stroke: #ffffff; stroke-width: 2; stroke-linejoin: miter"/>
   </g>
   <g id="patch_72">
    <path d="M 253.496871 1177.376 
L 284.553414 1177.376 
L 284.553414 1049.962122 
L 253.496871 1049.962122 
z
" clip-path="url(#p5fe706cf0c)" style="fill: #cc8963; stroke: #ffffff; stroke-width: 2; stroke-linejoin: miter"/>
   </g>
   <g id="patch_73">
    <path d="M 447.600269 1177.376 
L 478.656813 1177.376 
L 478.656813 1163.360473 
L 447.600269 1163.360473 
z
" clip-path="url(#p5fe706cf0c)" style="fill: #cc8963; stroke: #ffffff; stroke-width: 2; stroke-linejoin: miter"/>
   </g>
   <g id="patch_74">
    <path d="M 641.703668 1177.376 
L 672.760211 1177.376 
L 672.760211 1177.376 
L 641.703668 1177.376 
z
" clip-path="url(#p5fe706cf0c)" style="fill: #cc8963; stroke: #ffffff; stroke-width: 2; stroke-linejoin: miter"/>
   </g>
   <g id="patch_75">
    <path d="M 835.807066 1177.376 
L 866.86361 1177.376 
L 866.86361 1153.167363 
L 835.807066 1153.167363 
z
" clip-path="url(#p5fe706cf0c)" style="fill: #cc8963; stroke: #ffffff; stroke-width: 2; stroke-linejoin: miter"/>
   </g>
   <g id="patch_76">
    <path d="M 1029.910464 1177.376 
L 1060.967008 1177.376 
L 1060.967008 1049.962122 
L 1029.910464 1049.962122 
z
" clip-path="url(#p5fe706cf0c)" style="fill: #cc8963; stroke: #ffffff; stroke-width: 2; stroke-linejoin: miter"/>
   </g>
   <g id="patch_77">
    <path d="M 1224.013863 1177.376 
L 1255.070407 1177.376 
L 1255.070407 1176.101861 
L 1224.013863 1176.101861 
z
" clip-path="url(#p5fe706cf0c)" style="fill: #cc8963; stroke: #ffffff; stroke-width: 2; stroke-linejoin: miter"/>
   </g>
   <g id="patch_78">
    <path d="M 284.553414 1177.376 
L 315.609958 1177.376 
L 315.609958 1049.962122 
L 284.553414 1049.962122 
z
" clip-path="url(#p5fe706cf0c)" style="fill: #5f9e6e; stroke: #ffffff; stroke-width: 2; stroke-linejoin: miter"/>
   </g>
   <g id="patch_79">
    <path d="M 478.656813 1177.376 
L 509.713357 1177.376 
L 509.713357 1049.962122 
L 478.656813 1049.962122 
z
" clip-path="url(#p5fe706cf0c)" style="fill: #5f9e6e; stroke: #ffffff; stroke-width: 2; stroke-linejoin: miter"/>
   </g>
   <g id="patch_80">
    <path d="M 672.760211 1177.376 
L 703.816755 1177.376 
L 703.816755 1177.376 
L 672.760211 1177.376 
z
" clip-path="url(#p5fe706cf0c)" style="fill: #5f9e6e; stroke: #ffffff; stroke-width: 2; stroke-linejoin: miter"/>
   </g>
   <g id="patch_81">
    <path d="M 866.86361 1177.376 
L 897.920154 1177.376 
L 897.920154 1049.962122 
L 866.86361 1049.962122 
z
" clip-path="url(#p5fe706cf0c)" style="fill: #5f9e6e; stroke: #ffffff; stroke-width: 2; stroke-linejoin: miter"/>
   </g>
   <g id="patch_82">
    <path d="M 1060.967008 1177.376 
L 1092.023552 1177.376 
L 1092.023552 1177.376 
L 1060.967008 1177.376 
z
" clip-path="url(#p5fe706cf0c)" style="fill: #5f9e6e; stroke: #ffffff; stroke-width: 2; stroke-linejoin: miter"/>
   </g>
   <g id="patch_83">
    <path d="M 1255.070407 1177.376 
L 1286.12695 1177.376 
L 1286.12695 1049.962122 
L 1255.070407 1049.962122 
z
" clip-path="url(#p5fe706cf0c)" style="fill: #5f9e6e; stroke: #ffffff; stroke-width: 2; stroke-linejoin: miter"/>
   </g>
   <g id="patch_84">
    <path d="M 315.609958 1177.376 
L 346.666502 1177.376 
L 346.666502 1049.962122 
L 315.609958 1049.962122 
z
" clip-path="url(#p5fe706cf0c)" style="fill: #b55d60; stroke: #ffffff; stroke-width: 2; stroke-linejoin: miter"/>
   </g>
   <g id="patch_85">
    <path d="M 509.713357 1177.376 
L 540.7699 1177.376 
L 540.7699 1051.236261 
L 509.713357 1051.236261 
z
" clip-path="url(#p5fe706cf0c)" style="fill: #b55d60; stroke: #ffffff; stroke-width: 2; stroke-linejoin: miter"/>
   </g>
   <g id="patch_86">
    <path d="M 703.816755 1177.376 
L 734.873299 1177.376 
L 734.873299 1051.236261 
L 703.816755 1051.236261 
z
" clip-path="url(#p5fe706cf0c)" style="fill: #b55d60; stroke: #ffffff; stroke-width: 2; stroke-linejoin: miter"/>
   </g>
   <g id="patch_87">
    <path d="M 897.920154 1177.376 
L 928.976697 1177.376 
L 928.976697 1081.815592 
L 897.920154 1081.815592 
z
" clip-path="url(#p5fe706cf0c)" style="fill: #b55d60; stroke: #ffffff; stroke-width: 2; stroke-linejoin: miter"/>
   </g>
   <g id="patch_88">
    <path d="M 1092.023552 1177.376 
L 1123.080096 1177.376 
L 1123.080096 1056.332816 
L 1092.023552 1056.332816 
z
" clip-path="url(#p5fe706cf0c)" style="fill: #b55d60; stroke: #ffffff; stroke-width: 2; stroke-linejoin: miter"/>
   </g>
   <g id="patch_89">
    <path d="M 1286.12695 1177.376 
L 1317.183494 1177.376 
L 1317.183494 1173.553584 
L 1286.12695 1173.553584 
z
" clip-path="url(#p5fe706cf0c)" style="fill: #b55d60; stroke: #ffffff; stroke-width: 2; stroke-linejoin: miter"/>
   </g>
   <g id="patch_90">
    <path d="M 346.666502 1177.376 
L 377.723046 1177.376 
L 377.723046 1049.962122 
L 346.666502 1049.962122 
z
" clip-path="url(#p5fe706cf0c)" style="fill: #857aab; stroke: #ffffff; stroke-width: 2; stroke-linejoin: miter"/>
   </g>
   <g id="patch_91">
    <path d="M 540.7699 1177.376 
L 571.826444 1177.376 
L 571.826444 1066.525927 
L 540.7699 1066.525927 
z
" clip-path="url(#p5fe706cf0c)" style="fill: #857aab; stroke: #ffffff; stroke-width: 2; stroke-linejoin: miter"/>
   </g>
   <g id="patch_92">
    <path d="M 734.873299 1177.376 
L 765.929843 1177.376 
L 765.929843 1052.5104 
L 734.873299 1052.5104 
z
" clip-path="url(#p5fe706cf0c)" style="fill: #857aab; stroke: #ffffff; stroke-width: 2; stroke-linejoin: miter"/>
   </g>
   <g id="patch_93">
    <path d="M 928.976697 1177.376 
L 960.033241 1177.376 
L 960.033241 1169.731167 
L 928.976697 1169.731167 
z
" clip-path="url(#p5fe706cf0c)" style="fill: #857aab; stroke: #ffffff; stroke-width: 2; stroke-linejoin: miter"/>
   </g>
   <g id="patch_94">
    <path d="M 1123.080096 1177.376 
L 1154.136639 1177.376 
L 1154.136639 1052.5104 
L 1123.080096 1052.5104 
z
" clip-path="url(#p5fe706cf0c)" style="fill: #857aab; stroke: #ffffff; stroke-width: 2; stroke-linejoin: miter"/>
   </g>
   <g id="patch_95">
    <path d="M 1317.183494 1177.376 
L 1348.240038 1177.376 
L 1348.240038 1177.376 
L 1317.183494 1177.376 
z
" clip-path="url(#p5fe706cf0c)" style="fill: #857aab; stroke: #ffffff; stroke-width: 2; stroke-linejoin: miter"/>
   </g>
   <g id="patch_96">
    <path d="M 300.081686 1177.376 
L 300.081686 1177.376 
L 300.081686 1177.376 
L 300.081686 1177.376 
z
" clip-path="url(#p5fe706cf0c)" style="fill: #5875a4; stroke: #ffffff; stroke-width: 2; stroke-linejoin: miter"/>
   </g>
   <g id="patch_97">
    <path d="M 300.081686 1177.376 
L 300.081686 1177.376 
L 300.081686 1177.376 
L 300.081686 1177.376 
z
" clip-path="url(#p5fe706cf0c)" style="fill: #cc8963; stroke: #ffffff; stroke-width: 2; stroke-linejoin: miter"/>
   </g>
   <g id="patch_98">
    <path d="M 300.081686 1177.376 
L 300.081686 1177.376 
L 300.081686 1177.376 
L 300.081686 1177.376 
z
" clip-path="url(#p5fe706cf0c)" style="fill: #5f9e6e; stroke: #ffffff; stroke-width: 2; stroke-linejoin: miter"/>
   </g>
   <g id="patch_99">
    <path d="M 300.081686 1177.376 
L 300.081686 1177.376 
L 300.081686 1177.376 
L 300.081686 1177.376 
z
" clip-path="url(#p5fe706cf0c)" style="fill: #b55d60; stroke: #ffffff; stroke-width: 2; stroke-linejoin: miter"/>
   </g>
   <g id="patch_100">
    <path d="M 300.081686 1177.376 
L 300.081686 1177.376 
L 300.081686 1177.376 
L 300.081686 1177.376 
z
" clip-path="url(#p5fe706cf0c)" style="fill: #857aab; stroke: #ffffff; stroke-width: 2; stroke-linejoin: miter"/>
   </g>
   <g id="line2d_55">
    <path clip-path="url(#p5fe706cf0c)" style="fill: none; stroke: #424242; stroke-width: 4.5; stroke-linecap: round"/>
   </g>
   <g id="line2d_56">
    <path clip-path="url(#p5fe706cf0c)" style="fill: none; stroke: #424242; stroke-width: 4.5; stroke-linecap: round"/>
   </g>
   <g id="line2d_57">
    <path clip-path="url(#p5fe706cf0c)" style="fill: none; stroke: #424242; stroke-width: 4.5; stroke-linecap: round"/>
   </g>
   <g id="line2d_58">
    <path clip-path="url(#p5fe706cf0c)" style="fill: none; stroke: #424242; stroke-width: 4.5; stroke-linecap: round"/>
   </g>
   <g id="line2d_59">
    <path clip-path="url(#p5fe706cf0c)" style="fill: none; stroke: #424242; stroke-width: 4.5; stroke-linecap: round"/>
   </g>
   <g id="line2d_60">
    <path clip-path="url(#p5fe706cf0c)" style="fill: none; stroke: #424242; stroke-width: 4.5; stroke-linecap: round"/>
   </g>
   <g id="line2d_61">
    <path clip-path="url(#p5fe706cf0c)" style="fill: none; stroke: #424242; stroke-width: 4.5; stroke-linecap: round"/>
   </g>
   <g id="line2d_62">
    <path clip-path="url(#p5fe706cf0c)" style="fill: none; stroke: #424242; stroke-width: 4.5; stroke-linecap: round"/>
   </g>
   <g id="line2d_63">
    <path clip-path="url(#p5fe706cf0c)" style="fill: none; stroke: #424242; stroke-width: 4.5; stroke-linecap: round"/>
   </g>
   <g id="line2d_64">
    <path clip-path="url(#p5fe706cf0c)" style="fill: none; stroke: #424242; stroke-width: 4.5; stroke-linecap: round"/>
   </g>
   <g id="line2d_65">
    <path clip-path="url(#p5fe706cf0c)" style="fill: none; stroke: #424242; stroke-width: 4.5; stroke-linecap: round"/>
   </g>
   <g id="line2d_66">
    <path clip-path="url(#p5fe706cf0c)" style="fill: none; stroke: #424242; stroke-width: 4.5; stroke-linecap: round"/>
   </g>
   <g id="line2d_67">
    <path clip-path="url(#p5fe706cf0c)" style="fill: none; stroke: #424242; stroke-width: 4.5; stroke-linecap: round"/>
   </g>
   <g id="line2d_68">
    <path clip-path="url(#p5fe706cf0c)" style="fill: none; stroke: #424242; stroke-width: 4.5; stroke-linecap: round"/>
   </g>
   <g id="line2d_69">
    <path clip-path="url(#p5fe706cf0c)" style="fill: none; stroke: #424242; stroke-width: 4.5; stroke-linecap: round"/>
   </g>
   <g id="line2d_70">
    <path clip-path="url(#p5fe706cf0c)" style="fill: none; stroke: #424242; stroke-width: 4.5; stroke-linecap: round"/>
   </g>
   <g id="line2d_71">
    <path clip-path="url(#p5fe706cf0c)" style="fill: none; stroke: #424242; stroke-width: 4.5; stroke-linecap: round"/>
   </g>
   <g id="line2d_72">
    <path clip-path="url(#p5fe706cf0c)" style="fill: none; stroke: #424242; stroke-width: 4.5; stroke-linecap: round"/>
   </g>
   <g id="line2d_73">
    <path clip-path="url(#p5fe706cf0c)" style="fill: none; stroke: #424242; stroke-width: 4.5; stroke-linecap: round"/>
   </g>
   <g id="line2d_74">
    <path clip-path="url(#p5fe706cf0c)" style="fill: none; stroke: #424242; stroke-width: 4.5; stroke-linecap: round"/>
   </g>
   <g id="line2d_75">
    <path clip-path="url(#p5fe706cf0c)" style="fill: none; stroke: #424242; stroke-width: 4.5; stroke-linecap: round"/>
   </g>
   <g id="line2d_76">
    <path clip-path="url(#p5fe706cf0c)" style="fill: none; stroke: #424242; stroke-width: 4.5; stroke-linecap: round"/>
   </g>
   <g id="line2d_77">
    <path clip-path="url(#p5fe706cf0c)" style="fill: none; stroke: #424242; stroke-width: 4.5; stroke-linecap: round"/>
   </g>
   <g id="line2d_78">
    <path clip-path="url(#p5fe706cf0c)" style="fill: none; stroke: #424242; stroke-width: 4.5; stroke-linecap: round"/>
   </g>
   <g id="line2d_79">
    <path clip-path="url(#p5fe706cf0c)" style="fill: none; stroke: #424242; stroke-width: 4.5; stroke-linecap: round"/>
   </g>
   <g id="line2d_80">
    <path clip-path="url(#p5fe706cf0c)" style="fill: none; stroke: #424242; stroke-width: 4.5; stroke-linecap: round"/>
   </g>
   <g id="line2d_81">
    <path clip-path="url(#p5fe706cf0c)" style="fill: none; stroke: #424242; stroke-width: 4.5; stroke-linecap: round"/>
   </g>
   <g id="line2d_82">
    <path clip-path="url(#p5fe706cf0c)" style="fill: none; stroke: #424242; stroke-width: 4.5; stroke-linecap: round"/>
   </g>
   <g id="line2d_83">
    <path clip-path="url(#p5fe706cf0c)" style="fill: none; stroke: #424242; stroke-width: 4.5; stroke-linecap: round"/>
   </g>
   <g id="line2d_84">
    <path clip-path="url(#p5fe706cf0c)" style="fill: none; stroke: #424242; stroke-width: 4.5; stroke-linecap: round"/>
   </g>
   <g id="patch_101">
    <path d="M 145.769484 1177.376 
L 145.769484 1043.591429 
" style="fill: none; stroke: #ffffff; stroke-width: 2.5; stroke-linejoin: miter; stroke-linecap: square"/>
   </g>
   <g id="patch_102">
    <path d="M 145.769484 1177.376 
L 1405.50054 1177.376 
" style="fill: none; stroke: #ffffff; stroke-width: 2.5; stroke-linejoin: miter; stroke-linecap: square"/>
   </g>
   <g id="text_33">
    <!-- SCAN (seq2seq) -->
    <g style="fill: #262626" transform="translate(622.580825 1037.591429) scale(0.408 -0.408)">
     <defs>
      <path id="ArialMT-53" d="M 288 1472 
L 859 1522 
Q 900 1178 1048 958 
Q 1197 738 1509 602 
Q 1822 466 2213 466 
Q 2559 466 2825 569 
Q 3091 672 3220 851 
Q 3350 1031 3350 1244 
Q 3350 1459 3225 1620 
Q 3100 1781 2813 1891 
Q 2628 1963 1997 2114 
Q 1366 2266 1113 2400 
Q 784 2572 623 2826 
Q 463 3081 463 3397 
Q 463 3744 659 4045 
Q 856 4347 1234 4503 
Q 1613 4659 2075 4659 
Q 2584 4659 2973 4495 
Q 3363 4331 3572 4012 
Q 3781 3694 3797 3291 
L 3216 3247 
Q 3169 3681 2898 3903 
Q 2628 4125 2100 4125 
Q 1550 4125 1298 3923 
Q 1047 3722 1047 3438 
Q 1047 3191 1225 3031 
Q 1400 2872 2139 2705 
Q 2878 2538 3153 2413 
Q 3553 2228 3743 1945 
Q 3934 1663 3934 1294 
Q 3934 928 3725 604 
Q 3516 281 3123 101 
Q 2731 -78 2241 -78 
Q 1619 -78 1198 103 
Q 778 284 539 648 
Q 300 1013 288 1472 
z
" transform="scale(0.015625)"/>
      <path id="ArialMT-4e" d="M 488 0 
L 488 4581 
L 1109 4581 
L 3516 984 
L 3516 4581 
L 4097 4581 
L 4097 0 
L 3475 0 
L 1069 3600 
L 1069 0 
L 488 0 
z
" transform="scale(0.015625)"/>
     </defs>
     <use xlink:href="#ArialMT-53"/>
     <use xlink:href="#ArialMT-43" x="66.699219"/>
     <use xlink:href="#ArialMT-41" x="138.916016"/>
     <use xlink:href="#ArialMT-4e" x="205.615234"/>
     <use xlink:href="#ArialMT-20" x="277.832031"/>
     <use xlink:href="#ArialMT-28" x="305.615234"/>
     <use xlink:href="#ArialMT-73" x="338.916016"/>
     <use xlink:href="#ArialMT-65" x="388.916016"/>
     <use xlink:href="#ArialMT-71" x="444.53125"/>
     <use xlink:href="#ArialMT-32" x="500.146484"/>
     <use xlink:href="#ArialMT-73" x="555.761719"/>
     <use xlink:href="#ArialMT-65" x="605.761719"/>
     <use xlink:href="#ArialMT-71" x="661.376953"/>
     <use xlink:href="#ArialMT-29" x="716.992188"/>
    </g>
   </g>
  </g>
  <g id="legend_1">
   <g id="text_34">
    <!-- Model -->
    <g style="fill: #262626" transform="translate(689.223253 51.363875) scale(0.408 -0.408)">
     <defs>
      <path id="Arial-BoldMT-4d" d="M 453 0 
L 453 4581 
L 1838 4581 
L 2669 1456 
L 3491 4581 
L 4878 4581 
L 4878 0 
L 4019 0 
L 4019 3606 
L 3109 0 
L 2219 0 
L 1313 3606 
L 1313 0 
L 453 0 
z
" transform="scale(0.015625)"/>
     </defs>
     <use xlink:href="#Arial-BoldMT-4d"/>
     <use xlink:href="#Arial-BoldMT-6f" x="83.300781"/>
     <use xlink:href="#Arial-BoldMT-64" x="144.384766"/>
     <use xlink:href="#Arial-BoldMT-65" x="205.46875"/>
     <use xlink:href="#Arial-BoldMT-6c" x="261.083984"/>
    </g>
   </g>
   <g id="patch_103">
    <path d="M 208.40694 104.885719 
L 283.20694 104.885719 
L 283.20694 78.705719 
L 208.40694 78.705719 
z
" style="fill: #5875a4; stroke: #ffffff; stroke-width: 2; stroke-linejoin: miter"/>
   </g>
   <g id="text_35">
    <!-- Transformer -->
    <g style="fill: #262626" transform="translate(313.12694 104.885719) scale(0.374 -0.374)">
     <defs>
      <path id="ArialMT-66" d="M 556 0 
L 556 2881 
L 59 2881 
L 59 3319 
L 556 3319 
L 556 3672 
Q 556 4006 616 4169 
Q 697 4388 901 4523 
Q 1106 4659 1475 4659 
Q 1713 4659 2000 4603 
L 1916 4113 
Q 1741 4144 1584 4144 
Q 1328 4144 1222 4034 
Q 1116 3925 1116 3625 
L 1116 3319 
L 1763 3319 
L 1763 2881 
L 1116 2881 
L 1116 0 
L 556 0 
z
" transform="scale(0.015625)"/>
     </defs>
     <use xlink:href="#ArialMT-54"/>
     <use xlink:href="#ArialMT-72" x="57.333984"/>
     <use xlink:href="#ArialMT-61" x="90.634766"/>
     <use xlink:href="#ArialMT-6e" x="146.25"/>
     <use xlink:href="#ArialMT-73" x="201.865234"/>
     <use xlink:href="#ArialMT-66" x="251.865234"/>
     <use xlink:href="#ArialMT-6f" x="279.648438"/>
     <use xlink:href="#ArialMT-72" x="335.263672"/>
     <use xlink:href="#ArialMT-6d" x="368.564453"/>
     <use xlink:href="#ArialMT-65" x="451.865234"/>
     <use xlink:href="#ArialMT-72" x="507.480469"/>
    </g>
   </g>
   <g id="patch_104">
    <path d="M 208.40694 157.789188 
L 283.20694 157.789188 
L 283.20694 131.609188 
L 208.40694 131.609188 
z
" style="fill: #b55d60; stroke: #ffffff; stroke-width: 2; stroke-linejoin: miter"/>
   </g>
   <g id="text_36">
    <!-- sDTM -->
    <g style="fill: #262626" transform="translate(313.12694 157.789188) scale(0.374 -0.374)">
     <use xlink:href="#ArialMT-73"/>
     <use xlink:href="#ArialMT-44" x="50"/>
     <use xlink:href="#ArialMT-54" x="122.216797"/>
     <use xlink:href="#ArialMT-4d" x="183.300781"/>
    </g>
   </g>
   <g id="patch_105">
    <path d="M 590.161597 104.885719 
L 664.961597 104.885719 
L 664.961597 78.705719 
L 590.161597 78.705719 
z
" style="fill: #cc8963; stroke: #ffffff; stroke-width: 2; stroke-linejoin: miter"/>
   </g>
   <g id="text_37">
    <!-- RU-Transformer -->
    <g style="fill: #262626" transform="translate(694.881597 104.885719) scale(0.374 -0.374)">
     <defs>
      <path id="ArialMT-55" d="M 3500 4581 
L 4106 4581 
L 4106 1934 
Q 4106 1244 3950 837 
Q 3794 431 3386 176 
Q 2978 -78 2316 -78 
Q 1672 -78 1262 144 
Q 853 366 678 786 
Q 503 1206 503 1934 
L 503 4581 
L 1109 4581 
L 1109 1938 
Q 1109 1341 1220 1058 
Q 1331 775 1601 622 
Q 1872 469 2263 469 
Q 2931 469 3215 772 
Q 3500 1075 3500 1938 
L 3500 4581 
z
" transform="scale(0.015625)"/>
     </defs>
     <use xlink:href="#ArialMT-52"/>
     <use xlink:href="#ArialMT-55" x="72.216797"/>
     <use xlink:href="#ArialMT-2d" x="144.433594"/>
     <use xlink:href="#ArialMT-54" x="177.734375"/>
     <use xlink:href="#ArialMT-72" x="235.068359"/>
     <use xlink:href="#ArialMT-61" x="268.369141"/>
     <use xlink:href="#ArialMT-6e" x="323.984375"/>
     <use xlink:href="#ArialMT-73" x="379.599609"/>
     <use xlink:href="#ArialMT-66" x="429.599609"/>
     <use xlink:href="#ArialMT-6f" x="457.382812"/>
     <use xlink:href="#ArialMT-72" x="512.998047"/>
     <use xlink:href="#ArialMT-6d" x="546.298828"/>
     <use xlink:href="#ArialMT-65" x="629.599609"/>
     <use xlink:href="#ArialMT-72" x="685.214844"/>
    </g>
   </g>
   <g id="patch_106">
    <path d="M 590.161597 158.245 
L 664.961597 158.245 
L 664.961597 132.065 
L 590.161597 132.065 
z
" style="fill: #857aab; stroke: #ffffff; stroke-width: 2; stroke-linejoin: miter"/>
   </g>
   <g id="text_38">
    <!-- sDTM (LAUD trees) -->
    <g style="fill: #262626" transform="translate(694.881597 158.245) scale(0.374 -0.374)">
     <use xlink:href="#ArialMT-73"/>
     <use xlink:href="#ArialMT-44" x="50"/>
     <use xlink:href="#ArialMT-54" x="122.216797"/>
     <use xlink:href="#ArialMT-4d" x="183.300781"/>
     <use xlink:href="#ArialMT-20" x="266.601562"/>
     <use xlink:href="#ArialMT-28" x="294.384766"/>
     <use xlink:href="#ArialMT-4c" x="327.685547"/>
     <use xlink:href="#ArialMT-41" x="383.300781"/>
     <use xlink:href="#ArialMT-55" x="450"/>
     <use xlink:href="#ArialMT-44" x="522.216797"/>
     <use xlink:href="#ArialMT-20" x="594.433594"/>
     <use xlink:href="#ArialMT-74" x="622.216797"/>
     <use xlink:href="#ArialMT-72" x="650"/>
     <use xlink:href="#ArialMT-65" x="683.300781"/>
     <use xlink:href="#ArialMT-65" x="738.916016"/>
     <use xlink:href="#ArialMT-73" x="794.53125"/>
     <use xlink:href="#ArialMT-29" x="844.53125"/>
    </g>
   </g>
   <g id="patch_107">
    <path d="M 1097.977628 104.885719 
L 1172.777628 104.885719 
L 1172.777628 78.705719 
L 1097.977628 78.705719 
z
" style="fill: #5f9e6e; stroke: #ffffff; stroke-width: 2; stroke-linejoin: miter"/>
   </g>
   <g id="text_39">
    <!-- NQG -->
    <g style="fill: #262626" transform="translate(1202.697628 104.885719) scale(0.374 -0.374)">
     <use xlink:href="#ArialMT-4e"/>
     <use xlink:href="#ArialMT-51" x="72.216797"/>
     <use xlink:href="#ArialMT-47" x="150"/>
    </g>
   </g>
  </g>
 </g>
 <defs>
  <clipPath id="p45465a74b5">
   <rect x="145.769484" y="240.884" width="1259.731056" height="133.784571"/>
  </clipPath>
  <clipPath id="p7fef6e8401">
   <rect x="145.769484" y="508.453143" width="1259.731056" height="133.784571"/>
  </clipPath>
  <clipPath id="pe76beb37f4">
   <rect x="145.769484" y="776.022286" width="1259.731056" height="133.784571"/>
  </clipPath>
  <clipPath id="p5fe706cf0c">
   <rect x="145.769484" y="1043.591429" width="1259.731056" height="133.784571"/>
  </clipPath>
 </defs>
</svg>
