<?xml version="1.0" encoding="utf-8" standalone="no"?>
<!DOCTYPE svg PUBLIC "-//W3C//DTD SVG 1.1//EN"
  "http://www.w3.org/Graphics/SVG/1.1/DTD/svg11.dtd">
<svg xmlns:xlink="http://www.w3.org/1999/xlink" width="744.422269pt" height="552.164297pt" viewBox="0 0 744.422269 552.164297" xmlns="http://www.w3.org/2000/svg" version="1.1">
 <metadata>
  <rdf:RDF xmlns:dc="http://purl.org/dc/elements/1.1/" xmlns:cc="http://creativecommons.org/ns#" xmlns:rdf="http://www.w3.org/1999/02/22-rdf-syntax-ns#">
   <cc:Work>
    <dc:type rdf:resource="http://purl.org/dc/dcmitype/StillImage"/>
    <dc:date>2024-12-02T12:53:09.930326</dc:date>
    <dc:format>image/svg+xml</dc:format>
    <dc:creator>
     <cc:Agent>
      <dc:title>Matplotlib v3.7.3, https://matplotlib.org/</dc:title>
     </cc:Agent>
    </dc:creator>
   </cc:Work>
  </rdf:RDF>
 </metadata>
 <defs>
  <style type="text/css">*{stroke-linejoin: round; stroke-linecap: butt}</style>
 </defs>
 <g id="figure_1">
  <g id="patch_1">
   <path d="M 0 552.164297 
L 744.422269 552.164297 
L 744.422269 0 
L 0 0 
z
" style="fill: #ffffff"/>
  </g>
  <g id="axes_1">
   <g id="patch_2">
    <path d="M 49.452656 108.448125 
L 534.187369 108.448125 
L 534.187369 26.053125 
L 49.452656 26.053125 
z
" style="fill: #eaeaf2"/>
   </g>
   <g id="patch_3">
    <path d="M 71.486052 108.448125 
L 71.486052 26.053125 
L 159.619636 26.053125 
L 159.619636 108.448125 
z
" clip-path="url(#p7666436a16)" style="fill: #778899; opacity: 0.6; stroke: #778899; stroke-width: 1.5; stroke-linejoin: miter"/>
   </g>
   <g id="patch_4">
    <path d="M 247.75322 108.448125 
L 247.75322 26.053125 
L 335.886805 26.053125 
L 335.886805 108.448125 
z
" clip-path="url(#p7666436a16)" style="fill: #778899; opacity: 0.6; stroke: #778899; stroke-width: 1.5; stroke-linejoin: miter"/>
   </g>
   <g id="patch_5">
    <path d="M 424.020389 108.448125 
L 424.020389 26.053125 
L 512.153973 26.053125 
L 512.153973 108.448125 
z
" clip-path="url(#p7666436a16)" style="fill: #778899; opacity: 0.6; stroke: #778899; stroke-width: 1.5; stroke-linejoin: miter"/>
   </g>
   <g id="matplotlib.axis_1">
    <g id="xtick_1"/>
    <g id="xtick_2"/>
    <g id="xtick_3"/>
    <g id="xtick_4"/>
    <g id="xtick_5"/>
   </g>
   <g id="matplotlib.axis_2">
    <g id="ytick_1">
     <g id="line2d_1">
      <path d="M 49.452656 108.448125 
L 534.187369 108.448125 
" clip-path="url(#p7666436a16)" style="fill: none; stroke: #ffffff; stroke-width: 1.5; stroke-linecap: round"/>
     </g>
     <g id="text_1">
      <!-- 0 -->
      <g style="fill: #262626" transform="translate(27.779688 114.339141) scale(0.165 -0.165)">
       <defs>
        <path id="HelveticaNeue-30" d="M 845 2234 
Q 845 2400 848 2601 
Q 851 2803 880 3004 
Q 909 3206 963 3398 
Q 1018 3590 1123 3734 
Q 1229 3878 1389 3968 
Q 1549 4058 1779 4058 
Q 2010 4058 2170 3968 
Q 2330 3878 2435 3734 
Q 2541 3590 2595 3398 
Q 2650 3206 2678 3004 
Q 2707 2803 2710 2601 
Q 2714 2400 2714 2234 
Q 2714 1978 2698 1661 
Q 2682 1344 2595 1065 
Q 2509 787 2317 595 
Q 2125 403 1779 403 
Q 1434 403 1242 595 
Q 1050 787 963 1065 
Q 877 1344 861 1661 
Q 845 1978 845 2234 
z
M 269 2227 
Q 269 1978 281 1709 
Q 294 1440 345 1184 
Q 397 928 493 701 
Q 589 474 755 301 
Q 922 128 1174 29 
Q 1427 -70 1779 -70 
Q 2138 -70 2387 29 
Q 2637 128 2803 301 
Q 2970 474 3066 701 
Q 3162 928 3213 1184 
Q 3264 1440 3277 1709 
Q 3290 1978 3290 2227 
Q 3290 2477 3277 2745 
Q 3264 3014 3213 3270 
Q 3162 3526 3066 3756 
Q 2970 3987 2803 4160 
Q 2637 4333 2384 4435 
Q 2131 4538 1779 4538 
Q 1427 4538 1174 4435 
Q 922 4333 755 4160 
Q 589 3987 493 3756 
Q 397 3526 345 3270 
Q 294 3014 281 2745 
Q 269 2477 269 2227 
z
" transform="scale(0.015625)"/>
       </defs>
       <use xlink:href="#HelveticaNeue-30"/>
      </g>
     </g>
    </g>
    <g id="ytick_2">
     <g id="line2d_2">
      <path d="M 49.452656 29.976696 
L 534.187369 29.976696 
" clip-path="url(#p7666436a16)" style="fill: none; stroke: #ffffff; stroke-width: 1.5; stroke-linecap: round"/>
     </g>
     <g id="text_2">
      <!-- 1 -->
      <g style="fill: #262626" transform="translate(27.779688 35.867712) scale(0.165 -0.165)">
       <defs>
        <path id="HelveticaNeue-31" d="M 2278 0 
L 2278 4538 
L 1862 4538 
Q 1818 4282 1696 4115 
Q 1574 3949 1398 3853 
Q 1222 3757 1004 3721 
Q 787 3686 557 3686 
L 557 3251 
L 1734 3251 
L 1734 0 
L 2278 0 
z
" transform="scale(0.015625)"/>
       </defs>
       <use xlink:href="#HelveticaNeue-31"/>
      </g>
     </g>
    </g>
    <g id="text_3">
     <!-- Accuracy -->
     <g style="fill: #262626" transform="translate(20.053125 104.915625) rotate(-90) scale(0.18 -0.18)">
      <defs>
       <path id="HelveticaNeue-41" d="M 1286 1888 
L 2061 4019 
L 2074 4019 
L 2835 1888 
L 1286 1888 
z
M 1741 4570 
L -38 0 
L 582 0 
L 1094 1376 
L 3027 1376 
L 3526 0 
L 4198 0 
L 2413 4570 
L 1741 4570 
z
" transform="scale(0.015625)"/>
       <path id="HelveticaNeue-63" d="M 2656 2246 
L 3219 2246 
Q 3187 2541 3065 2755 
Q 2944 2970 2755 3110 
Q 2566 3251 2320 3318 
Q 2074 3386 1792 3386 
Q 1402 3386 1107 3248 
Q 813 3110 617 2870 
Q 422 2630 326 2307 
Q 230 1984 230 1613 
Q 230 1242 329 931 
Q 429 621 624 397 
Q 819 173 1110 51 
Q 1402 -70 1779 -70 
Q 2413 -70 2781 262 
Q 3149 595 3238 1210 
L 2682 1210 
Q 2630 826 2403 614 
Q 2176 403 1773 403 
Q 1517 403 1331 505 
Q 1146 608 1030 777 
Q 915 947 860 1164 
Q 806 1382 806 1613 
Q 806 1862 857 2096 
Q 909 2330 1027 2509 
Q 1146 2688 1344 2797 
Q 1542 2906 1837 2906 
Q 2182 2906 2387 2733 
Q 2592 2560 2656 2246 
z
" transform="scale(0.015625)"/>
       <path id="HelveticaNeue-75" d="M 3149 0 
L 3149 3309 
L 2605 3309 
L 2605 1440 
Q 2605 1216 2544 1027 
Q 2483 838 2361 697 
Q 2240 557 2057 480 
Q 1875 403 1626 403 
Q 1312 403 1133 582 
Q 954 762 954 1069 
L 954 3309 
L 410 3309 
L 410 1133 
Q 410 864 464 643 
Q 518 422 652 262 
Q 787 102 1004 16 
Q 1222 -70 1549 -70 
Q 1914 -70 2182 74 
Q 2451 218 2624 525 
L 2637 525 
L 2637 0 
L 3149 0 
z
" transform="scale(0.015625)"/>
       <path id="HelveticaNeue-72" d="M 390 3309 
L 390 0 
L 934 0 
L 934 1472 
Q 934 1792 998 2038 
Q 1062 2285 1203 2457 
Q 1344 2630 1574 2720 
Q 1805 2810 2131 2810 
L 2131 3386 
Q 1690 3398 1402 3206 
Q 1114 3014 915 2611 
L 902 2611 
L 902 3309 
L 390 3309 
z
" transform="scale(0.015625)"/>
       <path id="HelveticaNeue-61" d="M 3341 13 
Q 3200 -70 2950 -70 
Q 2739 -70 2614 48 
Q 2490 166 2490 435 
Q 2266 166 1968 48 
Q 1670 -70 1325 -70 
Q 1101 -70 899 -19 
Q 698 32 550 141 
Q 403 250 316 426 
Q 230 602 230 851 
Q 230 1133 326 1312 
Q 422 1491 579 1603 
Q 736 1715 937 1772 
Q 1139 1830 1350 1869 
Q 1574 1914 1776 1936 
Q 1978 1958 2131 2000 
Q 2285 2042 2374 2122 
Q 2464 2202 2464 2355 
Q 2464 2534 2397 2643 
Q 2330 2752 2224 2809 
Q 2118 2867 1987 2886 
Q 1856 2906 1728 2906 
Q 1382 2906 1152 2774 
Q 922 2643 902 2278 
L 358 2278 
Q 371 2586 486 2797 
Q 602 3008 794 3139 
Q 986 3270 1232 3328 
Q 1478 3386 1760 3386 
Q 1984 3386 2205 3354 
Q 2426 3322 2605 3222 
Q 2784 3123 2893 2944 
Q 3002 2765 3002 2477 
L 3002 774 
Q 3002 582 3024 492 
Q 3046 403 3174 403 
Q 3245 403 3341 435 
L 3341 13 
z
M 2458 1709 
Q 2355 1632 2188 1597 
Q 2022 1562 1840 1539 
Q 1658 1517 1472 1488 
Q 1286 1459 1139 1395 
Q 992 1331 899 1212 
Q 806 1094 806 890 
Q 806 755 860 662 
Q 915 570 1001 512 
Q 1088 454 1203 428 
Q 1318 403 1446 403 
Q 1715 403 1907 476 
Q 2099 550 2220 662 
Q 2342 774 2400 905 
Q 2458 1037 2458 1152 
L 2458 1709 
z
" transform="scale(0.015625)"/>
       <path id="HelveticaNeue-79" d="M 1709 -442 
Q 1613 -685 1520 -851 
Q 1427 -1018 1315 -1123 
Q 1203 -1229 1065 -1277 
Q 928 -1325 749 -1325 
Q 653 -1325 557 -1312 
Q 461 -1299 371 -1267 
L 371 -768 
Q 442 -800 534 -822 
Q 627 -845 691 -845 
Q 858 -845 970 -765 
Q 1082 -685 1139 -538 
L 1363 19 
L 51 3309 
L 666 3309 
L 1632 602 
L 1645 602 
L 2573 3309 
L 3149 3309 
L 1709 -442 
z
" transform="scale(0.015625)"/>
      </defs>
      <use xlink:href="#HelveticaNeue-41"/>
      <use xlink:href="#HelveticaNeue-63" x="64.799988"/>
      <use xlink:href="#HelveticaNeue-63" x="118.499985"/>
      <use xlink:href="#HelveticaNeue-75" x="172.199982"/>
      <use xlink:href="#HelveticaNeue-72" x="227.799973"/>
      <use xlink:href="#HelveticaNeue-61" x="261.09996"/>
      <use xlink:href="#HelveticaNeue-63" x="314.799957"/>
      <use xlink:href="#HelveticaNeue-79" x="368.499954"/>
     </g>
    </g>
   </g>
   <g id="patch_6">
    <path d="M 80.299411 108.448125 
L 97.926127 108.448125 
L 97.926127 29.976696 
L 80.299411 29.976696 
z
" clip-path="url(#p7666436a16)" style="fill: #252629; stroke: #ffffff; stroke-width: 1.5; stroke-linejoin: miter"/>
   </g>
   <g id="patch_7">
    <path d="M 256.566579 108.448125 
L 274.193296 108.448125 
L 274.193296 108.448125 
L 256.566579 108.448125 
z
" clip-path="url(#p7666436a16)" style="fill: #252629; stroke: #ffffff; stroke-width: 1.5; stroke-linejoin: miter"/>
   </g>
   <g id="patch_8">
    <path d="M 344.700163 108.448125 
L 362.32688 108.448125 
L 362.32688 108.448125 
L 344.700163 108.448125 
z
" clip-path="url(#p7666436a16)" style="fill: #252629; stroke: #ffffff; stroke-width: 1.5; stroke-linejoin: miter"/>
   </g>
   <g id="patch_9">
    <path d="M 432.833747 108.448125 
L 450.460464 108.448125 
L 450.460464 108.448125 
L 432.833747 108.448125 
z
" clip-path="url(#p7666436a16)" style="fill: #252629; stroke: #ffffff; stroke-width: 1.5; stroke-linejoin: miter"/>
   </g>
   <g id="patch_10">
    <path d="M 97.926127 108.448125 
L 115.552844 108.448125 
L 115.552844 29.976696 
L 97.926127 29.976696 
z
" clip-path="url(#p7666436a16)" style="fill: #364052; stroke: #ffffff; stroke-width: 1.5; stroke-linejoin: miter"/>
   </g>
   <g id="patch_11">
    <path d="M 274.193296 108.448125 
L 291.820012 108.448125 
L 291.820012 108.448125 
L 274.193296 108.448125 
z
" clip-path="url(#p7666436a16)" style="fill: #364052; stroke: #ffffff; stroke-width: 1.5; stroke-linejoin: miter"/>
   </g>
   <g id="patch_12">
    <path d="M 362.32688 108.448125 
L 379.953597 108.448125 
L 379.953597 99.031554 
L 362.32688 99.031554 
z
" clip-path="url(#p7666436a16)" style="fill: #364052; stroke: #ffffff; stroke-width: 1.5; stroke-linejoin: miter"/>
   </g>
   <g id="patch_13">
    <path d="M 450.460464 108.448125 
L 468.087181 108.448125 
L 468.087181 108.448125 
L 450.460464 108.448125 
z
" clip-path="url(#p7666436a16)" style="fill: #364052; stroke: #ffffff; stroke-width: 1.5; stroke-linejoin: miter"/>
   </g>
   <g id="patch_14">
    <path d="M 115.552844 108.448125 
L 133.179561 108.448125 
L 133.179561 73.135982 
L 115.552844 73.135982 
z
" clip-path="url(#p7666436a16)" style="fill: #475b7b; stroke: #ffffff; stroke-width: 1.5; stroke-linejoin: miter"/>
   </g>
   <g id="patch_15">
    <path d="M 291.820013 108.448125 
L 309.446729 108.448125 
L 309.446729 108.448125 
L 291.820013 108.448125 
z
" clip-path="url(#p7666436a16)" style="fill: #475b7b; stroke: #ffffff; stroke-width: 1.5; stroke-linejoin: miter"/>
   </g>
   <g id="patch_16">
    <path d="M 379.953597 108.448125 
L 397.580313 108.448125 
L 397.580313 108.448125 
L 379.953597 108.448125 
z
" clip-path="url(#p7666436a16)" style="fill: #475b7b; stroke: #ffffff; stroke-width: 1.5; stroke-linejoin: miter"/>
   </g>
   <g id="patch_17">
    <path d="M 468.087181 108.448125 
L 485.713897 108.448125 
L 485.713897 108.448125 
L 468.087181 108.448125 
z
" clip-path="url(#p7666436a16)" style="fill: #475b7b; stroke: #ffffff; stroke-width: 1.5; stroke-linejoin: miter"/>
   </g>
   <g id="patch_18">
    <path d="M 133.179561 108.448125 
L 150.806278 108.448125 
L 150.806278 29.976696 
L 133.179561 29.976696 
z
" clip-path="url(#p7666436a16)" style="fill: #5875a4; stroke: #ffffff; stroke-width: 1.5; stroke-linejoin: miter"/>
   </g>
   <g id="patch_19">
    <path d="M 309.446729 108.448125 
L 327.073446 108.448125 
L 327.073446 29.976696 
L 309.446729 29.976696 
z
" clip-path="url(#p7666436a16)" style="fill: #5875a4; stroke: #ffffff; stroke-width: 1.5; stroke-linejoin: miter"/>
   </g>
   <g id="patch_20">
    <path d="M 397.580313 108.448125 
L 415.20703 108.448125 
L 415.20703 29.976696 
L 397.580313 29.976696 
z
" clip-path="url(#p7666436a16)" style="fill: #5875a4; stroke: #ffffff; stroke-width: 1.5; stroke-linejoin: miter"/>
   </g>
   <g id="patch_21">
    <path d="M 485.713898 108.448125 
L 503.340614 108.448125 
L 503.340614 108.448125 
L 485.713898 108.448125 
z
" clip-path="url(#p7666436a16)" style="fill: #5875a4; stroke: #ffffff; stroke-width: 1.5; stroke-linejoin: miter"/>
   </g>
   <g id="patch_22">
    <path d="M 115.552844 108.448125 
L 115.552844 108.448125 
L 115.552844 108.448125 
L 115.552844 108.448125 
z
" clip-path="url(#p7666436a16)" style="fill: #252629; stroke: #ffffff; stroke-width: 1.5; stroke-linejoin: miter"/>
   </g>
   <g id="patch_23">
    <path d="M 115.552844 108.448125 
L 115.552844 108.448125 
L 115.552844 108.448125 
L 115.552844 108.448125 
z
" clip-path="url(#p7666436a16)" style="fill: #364052; stroke: #ffffff; stroke-width: 1.5; stroke-linejoin: miter"/>
   </g>
   <g id="patch_24">
    <path d="M 115.552844 108.448125 
L 115.552844 108.448125 
L 115.552844 108.448125 
L 115.552844 108.448125 
z
" clip-path="url(#p7666436a16)" style="fill: #475b7b; stroke: #ffffff; stroke-width: 1.5; stroke-linejoin: miter"/>
   </g>
   <g id="patch_25">
    <path d="M 115.552844 108.448125 
L 115.552844 108.448125 
L 115.552844 108.448125 
L 115.552844 108.448125 
z
" clip-path="url(#p7666436a16)" style="fill: #5875a4; stroke: #ffffff; stroke-width: 1.5; stroke-linejoin: miter"/>
   </g>
   <g id="line2d_3">
    <path clip-path="url(#p7666436a16)" style="fill: none; stroke: #424242; stroke-width: 3.375; stroke-linecap: round"/>
   </g>
   <g id="line2d_4">
    <path clip-path="url(#p7666436a16)" style="fill: none; stroke: #424242; stroke-width: 3.375; stroke-linecap: round"/>
   </g>
   <g id="line2d_5">
    <path clip-path="url(#p7666436a16)" style="fill: none; stroke: #424242; stroke-width: 3.375; stroke-linecap: round"/>
   </g>
   <g id="line2d_6">
    <path clip-path="url(#p7666436a16)" style="fill: none; stroke: #424242; stroke-width: 3.375; stroke-linecap: round"/>
   </g>
   <g id="line2d_7">
    <path clip-path="url(#p7666436a16)" style="fill: none; stroke: #424242; stroke-width: 3.375; stroke-linecap: round"/>
   </g>
   <g id="line2d_8">
    <path clip-path="url(#p7666436a16)" style="fill: none; stroke: #424242; stroke-width: 3.375; stroke-linecap: round"/>
   </g>
   <g id="line2d_9">
    <path clip-path="url(#p7666436a16)" style="fill: none; stroke: #424242; stroke-width: 3.375; stroke-linecap: round"/>
   </g>
   <g id="line2d_10">
    <path clip-path="url(#p7666436a16)" style="fill: none; stroke: #424242; stroke-width: 3.375; stroke-linecap: round"/>
   </g>
   <g id="line2d_11">
    <path clip-path="url(#p7666436a16)" style="fill: none; stroke: #424242; stroke-width: 3.375; stroke-linecap: round"/>
   </g>
   <g id="line2d_12">
    <path clip-path="url(#p7666436a16)" style="fill: none; stroke: #424242; stroke-width: 3.375; stroke-linecap: round"/>
   </g>
   <g id="line2d_13">
    <path clip-path="url(#p7666436a16)" style="fill: none; stroke: #424242; stroke-width: 3.375; stroke-linecap: round"/>
   </g>
   <g id="line2d_14">
    <path clip-path="url(#p7666436a16)" style="fill: none; stroke: #424242; stroke-width: 3.375; stroke-linecap: round"/>
   </g>
   <g id="line2d_15">
    <path clip-path="url(#p7666436a16)" style="fill: none; stroke: #424242; stroke-width: 3.375; stroke-linecap: round"/>
   </g>
   <g id="line2d_16">
    <path clip-path="url(#p7666436a16)" style="fill: none; stroke: #424242; stroke-width: 3.375; stroke-linecap: round"/>
   </g>
   <g id="line2d_17">
    <path clip-path="url(#p7666436a16)" style="fill: none; stroke: #424242; stroke-width: 3.375; stroke-linecap: round"/>
   </g>
   <g id="line2d_18">
    <path clip-path="url(#p7666436a16)" style="fill: none; stroke: #424242; stroke-width: 3.375; stroke-linecap: round"/>
   </g>
   <g id="patch_26">
    <path d="M 49.452656 108.448125 
L 49.452656 26.053125 
" style="fill: none; stroke: #ffffff; stroke-width: 1.875; stroke-linejoin: miter; stroke-linecap: square"/>
   </g>
   <g id="patch_27">
    <path d="M 49.452656 108.448125 
L 534.187369 108.448125 
" style="fill: none; stroke: #ffffff; stroke-width: 1.875; stroke-linejoin: miter; stroke-linecap: square"/>
   </g>
   <g id="text_4">
    <!-- Dataset = Active↔Logical -->
    <g style="fill: #262626" transform="translate(192.078919 20.053125) scale(0.18 -0.18)">
     <defs>
      <path id="HelveticaNeue-44" d="M 1107 512 
L 1107 4058 
L 2131 4058 
Q 2554 4058 2842 3939 
Q 3130 3821 3312 3593 
Q 3494 3366 3574 3043 
Q 3654 2720 3654 2310 
Q 3654 1888 3568 1590 
Q 3482 1293 3347 1094 
Q 3213 896 3043 781 
Q 2874 666 2701 605 
Q 2528 544 2374 528 
Q 2221 512 2118 512 
L 1107 512 
z
M 499 4570 
L 499 0 
L 2067 0 
Q 2637 0 3053 160 
Q 3469 320 3737 624 
Q 4006 928 4134 1373 
Q 4262 1818 4262 2394 
Q 4262 3494 3692 4032 
Q 3123 4570 2067 4570 
L 499 4570 
z
" transform="scale(0.015625)"/>
      <path id="HelveticaNeue-74" d="M 1165 3309 
L 1165 4301 
L 621 4301 
L 621 3309 
L 58 3309 
L 58 2829 
L 621 2829 
L 621 723 
Q 621 493 665 352 
Q 710 211 803 134 
Q 896 58 1046 29 
Q 1197 0 1408 0 
L 1824 0 
L 1824 480 
L 1574 480 
Q 1446 480 1366 489 
Q 1286 499 1241 531 
Q 1197 563 1181 620 
Q 1165 678 1165 774 
L 1165 2829 
L 1824 2829 
L 1824 3309 
L 1165 3309 
z
" transform="scale(0.015625)"/>
      <path id="HelveticaNeue-73" d="M 742 1043 
L 198 1043 
Q 211 736 326 521 
Q 442 307 634 176 
Q 826 45 1075 -12 
Q 1325 -70 1600 -70 
Q 1850 -70 2102 -22 
Q 2355 26 2556 147 
Q 2758 269 2883 467 
Q 3008 666 3008 966 
Q 3008 1203 2915 1363 
Q 2822 1523 2672 1628 
Q 2522 1734 2326 1798 
Q 2131 1862 1926 1907 
Q 1734 1952 1542 1993 
Q 1350 2035 1196 2096 
Q 1043 2157 944 2249 
Q 845 2342 845 2483 
Q 845 2611 909 2691 
Q 973 2771 1075 2819 
Q 1178 2867 1302 2886 
Q 1427 2906 1549 2906 
Q 1683 2906 1814 2877 
Q 1946 2848 2054 2784 
Q 2163 2720 2233 2614 
Q 2304 2509 2317 2349 
L 2861 2349 
Q 2842 2650 2733 2851 
Q 2624 3053 2441 3171 
Q 2259 3290 2022 3338 
Q 1786 3386 1504 3386 
Q 1286 3386 1065 3331 
Q 845 3277 669 3165 
Q 493 3053 381 2873 
Q 269 2694 269 2445 
Q 269 2125 429 1945 
Q 589 1766 829 1667 
Q 1069 1568 1350 1513 
Q 1632 1459 1872 1392 
Q 2112 1325 2272 1216 
Q 2432 1107 2432 896 
Q 2432 742 2355 643 
Q 2278 544 2160 493 
Q 2042 442 1901 422 
Q 1760 403 1632 403 
Q 1466 403 1309 435 
Q 1152 467 1027 540 
Q 902 614 825 739 
Q 749 864 742 1043 
z
" transform="scale(0.015625)"/>
      <path id="HelveticaNeue-65" d="M 2707 1971 
L 806 1971 
Q 819 2163 889 2332 
Q 960 2502 1081 2630 
Q 1203 2758 1372 2832 
Q 1542 2906 1754 2906 
Q 1958 2906 2128 2832 
Q 2298 2758 2422 2633 
Q 2547 2509 2620 2336 
Q 2694 2163 2707 1971 
z
M 3232 1050 
L 2694 1050 
Q 2624 723 2403 563 
Q 2182 403 1837 403 
Q 1568 403 1369 492 
Q 1171 582 1043 732 
Q 915 883 857 1078 
Q 800 1274 806 1491 
L 3283 1491 
Q 3296 1792 3229 2125 
Q 3162 2458 2986 2739 
Q 2810 3021 2518 3203 
Q 2227 3386 1786 3386 
Q 1446 3386 1161 3258 
Q 877 3130 669 2899 
Q 461 2669 345 2355 
Q 230 2042 230 1664 
Q 243 1286 342 966 
Q 442 646 640 416 
Q 838 186 1129 58 
Q 1421 -70 1818 -70 
Q 2381 -70 2752 211 
Q 3123 493 3232 1050 
z
" transform="scale(0.015625)"/>
      <path id="HelveticaNeue-20" transform="scale(0.015625)"/>
      <path id="HelveticaNeue-3d" d="M 307 1190 
L 307 755 
L 3533 755 
L 3533 1190 
L 307 1190 
z
M 3533 2048 
L 3533 2483 
L 307 2483 
L 307 2048 
L 3533 2048 
z
" transform="scale(0.015625)"/>
      <path id="HelveticaNeue-69" d="M 986 3904 
L 986 4570 
L 442 4570 
L 442 3904 
L 986 3904 
z
M 442 3309 
L 442 0 
L 986 0 
L 986 3309 
L 442 3309 
z
" transform="scale(0.015625)"/>
      <path id="HelveticaNeue-76" d="M 1901 0 
L 3110 3309 
L 2541 3309 
L 1638 550 
L 1626 550 
L 698 3309 
L 90 3309 
L 1318 0 
L 1901 0 
z
" transform="scale(0.015625)"/>
      <path id="HelveticaNeue-2194" d="M 2618 4262 
L 653 4262 
L 653 301 
L 2618 301 
L 2618 4262 
z
M 2944 4557 
L 2944 6 
L 326 6 
L 326 4557 
L 2944 4557 
z
" transform="scale(0.015625)"/>
      <path id="HelveticaNeue-4c" d="M 499 4570 
L 499 0 
L 3526 0 
L 3526 512 
L 1107 512 
L 1107 4570 
L 499 4570 
z
" transform="scale(0.015625)"/>
      <path id="HelveticaNeue-6f" d="M 806 1651 
Q 806 1952 886 2185 
Q 966 2419 1107 2579 
Q 1248 2739 1437 2822 
Q 1626 2906 1837 2906 
Q 2048 2906 2237 2822 
Q 2426 2739 2566 2579 
Q 2707 2419 2787 2185 
Q 2867 1952 2867 1651 
Q 2867 1350 2787 1116 
Q 2707 883 2566 726 
Q 2426 570 2237 486 
Q 2048 403 1837 403 
Q 1626 403 1437 486 
Q 1248 570 1107 726 
Q 966 883 886 1116 
Q 806 1350 806 1651 
z
M 230 1651 
Q 230 1286 332 972 
Q 435 659 640 425 
Q 845 192 1145 61 
Q 1446 -70 1837 -70 
Q 2234 -70 2531 61 
Q 2829 192 3033 425 
Q 3238 659 3340 972 
Q 3443 1286 3443 1651 
Q 3443 2016 3340 2333 
Q 3238 2650 3033 2883 
Q 2829 3117 2531 3251 
Q 2234 3386 1837 3386 
Q 1446 3386 1145 3251 
Q 845 3117 640 2883 
Q 435 2650 332 2333 
Q 230 2016 230 1651 
z
" transform="scale(0.015625)"/>
      <path id="HelveticaNeue-67" d="M 3264 282 
L 3264 3309 
L 2752 3309 
L 2752 2835 
L 2746 2835 
Q 2598 3110 2336 3248 
Q 2074 3386 1760 3386 
Q 1331 3386 1036 3222 
Q 742 3059 563 2806 
Q 384 2554 307 2243 
Q 230 1933 230 1638 
Q 230 1299 323 995 
Q 416 691 601 464 
Q 787 237 1062 102 
Q 1338 -32 1709 -32 
Q 2029 -32 2313 112 
Q 2598 256 2739 563 
L 2752 563 
L 2752 346 
Q 2752 70 2697 -160 
Q 2643 -390 2521 -553 
Q 2400 -717 2214 -809 
Q 2029 -902 1760 -902 
Q 1626 -902 1478 -873 
Q 1331 -845 1206 -781 
Q 1082 -717 995 -614 
Q 909 -512 902 -365 
L 358 -365 
Q 371 -634 499 -819 
Q 627 -1005 822 -1120 
Q 1018 -1235 1258 -1286 
Q 1498 -1338 1728 -1338 
Q 2522 -1338 2893 -934 
Q 3264 -531 3264 282 
z
M 1741 442 
Q 1472 442 1293 554 
Q 1114 666 1005 848 
Q 896 1030 851 1254 
Q 806 1478 806 1702 
Q 806 1939 860 2156 
Q 915 2374 1033 2540 
Q 1152 2707 1337 2806 
Q 1523 2906 1786 2906 
Q 2042 2906 2221 2803 
Q 2400 2701 2512 2531 
Q 2624 2362 2675 2150 
Q 2726 1939 2726 1722 
Q 2726 1491 2672 1260 
Q 2618 1030 2502 848 
Q 2387 666 2198 554 
Q 2010 442 1741 442 
z
" transform="scale(0.015625)"/>
      <path id="HelveticaNeue-6c" d="M 442 4570 
L 442 0 
L 986 0 
L 986 4570 
L 442 4570 
z
" transform="scale(0.015625)"/>
     </defs>
     <use xlink:href="#HelveticaNeue-44"/>
     <use xlink:href="#HelveticaNeue-61" x="70.399994"/>
     <use xlink:href="#HelveticaNeue-74" x="124.099991"/>
     <use xlink:href="#HelveticaNeue-61" x="155.599976"/>
     <use xlink:href="#HelveticaNeue-73" x="209.299973"/>
     <use xlink:href="#HelveticaNeue-65" x="259.299957"/>
     <use xlink:href="#HelveticaNeue-74" x="312.999954"/>
     <use xlink:href="#HelveticaNeue-20" x="344.499939"/>
     <use xlink:href="#HelveticaNeue-3d" x="372.299927"/>
     <use xlink:href="#HelveticaNeue-20" x="432.299911"/>
     <use xlink:href="#HelveticaNeue-41" x="460.099899"/>
     <use xlink:href="#HelveticaNeue-63" x="524.899887"/>
     <use xlink:href="#HelveticaNeue-74" x="578.599884"/>
     <use xlink:href="#HelveticaNeue-69" x="610.099869"/>
     <use xlink:href="#HelveticaNeue-76" x="632.299866"/>
     <use xlink:href="#HelveticaNeue-65" x="682.29985"/>
     <use xlink:href="#HelveticaNeue-2194" x="735.999847"/>
     <use xlink:href="#HelveticaNeue-4c" x="785.999832"/>
     <use xlink:href="#HelveticaNeue-6f" x="841.599823"/>
     <use xlink:href="#HelveticaNeue-67" x="898.999817"/>
     <use xlink:href="#HelveticaNeue-69" x="956.399811"/>
     <use xlink:href="#HelveticaNeue-63" x="978.599808"/>
     <use xlink:href="#HelveticaNeue-61" x="1032.299805"/>
     <use xlink:href="#HelveticaNeue-6c" x="1085.999802"/>
    </g>
   </g>
  </g>
  <g id="axes_2">
   <g id="patch_28">
    <path d="M 49.452656 237.883125 
L 534.187369 237.883125 
L 534.187369 155.488125 
L 49.452656 155.488125 
z
" style="fill: #eaeaf2"/>
   </g>
   <g id="patch_29">
    <path d="M 71.486052 237.883125 
L 71.486052 155.488125 
L 159.619636 155.488125 
L 159.619636 237.883125 
z
" clip-path="url(#p5bca587559)" style="fill: #778899; opacity: 0.6; stroke: #778899; stroke-width: 1.5; stroke-linejoin: miter"/>
   </g>
   <g id="patch_30">
    <path d="M 247.75322 237.883125 
L 247.75322 155.488125 
L 335.886805 155.488125 
L 335.886805 237.883125 
z
" clip-path="url(#p5bca587559)" style="fill: #778899; opacity: 0.6; stroke: #778899; stroke-width: 1.5; stroke-linejoin: miter"/>
   </g>
   <g id="patch_31">
    <path d="M 424.020389 237.883125 
L 424.020389 155.488125 
L 512.153973 155.488125 
L 512.153973 237.883125 
z
" clip-path="url(#p5bca587559)" style="fill: #778899; opacity: 0.6; stroke: #778899; stroke-width: 1.5; stroke-linejoin: miter"/>
   </g>
   <g id="matplotlib.axis_3">
    <g id="xtick_6"/>
    <g id="xtick_7"/>
    <g id="xtick_8"/>
    <g id="xtick_9"/>
    <g id="xtick_10"/>
   </g>
   <g id="matplotlib.axis_4">
    <g id="ytick_3">
     <g id="line2d_19">
      <path d="M 49.452656 237.883125 
L 534.187369 237.883125 
" clip-path="url(#p5bca587559)" style="fill: none; stroke: #ffffff; stroke-width: 1.5; stroke-linecap: round"/>
     </g>
     <g id="text_5">
      <!-- 0 -->
      <g style="fill: #262626" transform="translate(27.779688 243.774141) scale(0.165 -0.165)">
       <use xlink:href="#HelveticaNeue-30"/>
      </g>
     </g>
    </g>
    <g id="ytick_4">
     <g id="line2d_20">
      <path d="M 49.452656 159.411696 
L 534.187369 159.411696 
" clip-path="url(#p5bca587559)" style="fill: none; stroke: #ffffff; stroke-width: 1.5; stroke-linecap: round"/>
     </g>
     <g id="text_6">
      <!-- 1 -->
      <g style="fill: #262626" transform="translate(27.779688 165.302712) scale(0.165 -0.165)">
       <use xlink:href="#HelveticaNeue-31"/>
      </g>
     </g>
    </g>
    <g id="text_7">
     <!-- Accuracy -->
     <g style="fill: #262626" transform="translate(20.053125 234.350625) rotate(-90) scale(0.18 -0.18)">
      <use xlink:href="#HelveticaNeue-41"/>
      <use xlink:href="#HelveticaNeue-63" x="64.799988"/>
      <use xlink:href="#HelveticaNeue-63" x="118.499985"/>
      <use xlink:href="#HelveticaNeue-75" x="172.199982"/>
      <use xlink:href="#HelveticaNeue-72" x="227.799973"/>
      <use xlink:href="#HelveticaNeue-61" x="261.09996"/>
      <use xlink:href="#HelveticaNeue-63" x="314.799957"/>
      <use xlink:href="#HelveticaNeue-79" x="368.499954"/>
     </g>
    </g>
   </g>
   <g id="patch_32">
    <path d="M 80.299411 237.883125 
L 97.926127 237.883125 
L 97.926127 159.411696 
L 80.299411 159.411696 
z
" clip-path="url(#p5bca587559)" style="fill: #252629; stroke: #ffffff; stroke-width: 1.5; stroke-linejoin: miter"/>
   </g>
   <g id="patch_33">
    <path d="M 256.566579 237.883125 
L 274.193296 237.883125 
L 274.193296 235.528982 
L 256.566579 235.528982 
z
" clip-path="url(#p5bca587559)" style="fill: #252629; stroke: #ffffff; stroke-width: 1.5; stroke-linejoin: miter"/>
   </g>
   <g id="patch_34">
    <path d="M 432.833747 237.883125 
L 450.460464 237.883125 
L 450.460464 237.883125 
L 432.833747 237.883125 
z
" clip-path="url(#p5bca587559)" style="fill: #252629; stroke: #ffffff; stroke-width: 1.5; stroke-linejoin: miter"/>
   </g>
   <g id="patch_35">
    <path d="M 97.926127 237.883125 
L 115.552844 237.883125 
L 115.552844 159.411696 
L 97.926127 159.411696 
z
" clip-path="url(#p5bca587559)" style="fill: #364052; stroke: #ffffff; stroke-width: 1.5; stroke-linejoin: miter"/>
   </g>
   <g id="patch_36">
    <path d="M 274.193296 237.883125 
L 291.820012 237.883125 
L 291.820012 235.528982 
L 274.193296 235.528982 
z
" clip-path="url(#p5bca587559)" style="fill: #364052; stroke: #ffffff; stroke-width: 1.5; stroke-linejoin: miter"/>
   </g>
   <g id="patch_37">
    <path d="M 450.460464 237.883125 
L 468.087181 237.883125 
L 468.087181 237.883125 
L 450.460464 237.883125 
z
" clip-path="url(#p5bca587559)" style="fill: #364052; stroke: #ffffff; stroke-width: 1.5; stroke-linejoin: miter"/>
   </g>
   <g id="patch_38">
    <path d="M 468.087181 237.883125 
L 485.713897 237.883125 
L 485.713897 237.883125 
L 468.087181 237.883125 
z
" clip-path="url(#p5bca587559)" style="fill: #475b7b; stroke: #ffffff; stroke-width: 1.5; stroke-linejoin: miter"/>
   </g>
   <g id="patch_39">
    <path d="M 133.179561 237.883125 
L 150.806278 237.883125 
L 150.806278 159.411696 
L 133.179561 159.411696 
z
" clip-path="url(#p5bca587559)" style="fill: #5875a4; stroke: #ffffff; stroke-width: 1.5; stroke-linejoin: miter"/>
   </g>
   <g id="patch_40">
    <path d="M 309.446729 237.883125 
L 327.073446 237.883125 
L 327.073446 190.015554 
L 309.446729 190.015554 
z
" clip-path="url(#p5bca587559)" style="fill: #5875a4; stroke: #ffffff; stroke-width: 1.5; stroke-linejoin: miter"/>
   </g>
   <g id="patch_41">
    <path d="M 485.713898 237.883125 
L 503.340614 237.883125 
L 503.340614 237.883125 
L 485.713898 237.883125 
z
" clip-path="url(#p5bca587559)" style="fill: #5875a4; stroke: #ffffff; stroke-width: 1.5; stroke-linejoin: miter"/>
   </g>
   <g id="patch_42">
    <path d="M 115.552844 237.883125 
L 115.552844 237.883125 
L 115.552844 237.883125 
L 115.552844 237.883125 
z
" clip-path="url(#p5bca587559)" style="fill: #252629; stroke: #ffffff; stroke-width: 1.5; stroke-linejoin: miter"/>
   </g>
   <g id="patch_43">
    <path d="M 115.552844 237.883125 
L 115.552844 237.883125 
L 115.552844 237.883125 
L 115.552844 237.883125 
z
" clip-path="url(#p5bca587559)" style="fill: #364052; stroke: #ffffff; stroke-width: 1.5; stroke-linejoin: miter"/>
   </g>
   <g id="patch_44">
    <path d="M 115.552844 237.883125 
L 115.552844 237.883125 
L 115.552844 237.883125 
L 115.552844 237.883125 
z
" clip-path="url(#p5bca587559)" style="fill: #475b7b; stroke: #ffffff; stroke-width: 1.5; stroke-linejoin: miter"/>
   </g>
   <g id="patch_45">
    <path d="M 115.552844 237.883125 
L 115.552844 237.883125 
L 115.552844 237.883125 
L 115.552844 237.883125 
z
" clip-path="url(#p5bca587559)" style="fill: #5875a4; stroke: #ffffff; stroke-width: 1.5; stroke-linejoin: miter"/>
   </g>
   <g id="line2d_21">
    <path clip-path="url(#p5bca587559)" style="fill: none; stroke: #424242; stroke-width: 3.375; stroke-linecap: round"/>
   </g>
   <g id="line2d_22">
    <path clip-path="url(#p5bca587559)" style="fill: none; stroke: #424242; stroke-width: 3.375; stroke-linecap: round"/>
   </g>
   <g id="line2d_23">
    <path clip-path="url(#p5bca587559)" style="fill: none; stroke: #424242; stroke-width: 3.375; stroke-linecap: round"/>
   </g>
   <g id="line2d_24">
    <path clip-path="url(#p5bca587559)" style="fill: none; stroke: #424242; stroke-width: 3.375; stroke-linecap: round"/>
   </g>
   <g id="line2d_25">
    <path clip-path="url(#p5bca587559)" style="fill: none; stroke: #424242; stroke-width: 3.375; stroke-linecap: round"/>
   </g>
   <g id="line2d_26">
    <path clip-path="url(#p5bca587559)" style="fill: none; stroke: #424242; stroke-width: 3.375; stroke-linecap: round"/>
   </g>
   <g id="line2d_27">
    <path clip-path="url(#p5bca587559)" style="fill: none; stroke: #424242; stroke-width: 3.375; stroke-linecap: round"/>
   </g>
   <g id="line2d_28">
    <path clip-path="url(#p5bca587559)" style="fill: none; stroke: #424242; stroke-width: 3.375; stroke-linecap: round"/>
   </g>
   <g id="line2d_29">
    <path clip-path="url(#p5bca587559)" style="fill: none; stroke: #424242; stroke-width: 3.375; stroke-linecap: round"/>
   </g>
   <g id="line2d_30">
    <path clip-path="url(#p5bca587559)" style="fill: none; stroke: #424242; stroke-width: 3.375; stroke-linecap: round"/>
   </g>
   <g id="patch_46">
    <path d="M 49.452656 237.883125 
L 49.452656 155.488125 
" style="fill: none; stroke: #ffffff; stroke-width: 1.875; stroke-linejoin: miter; stroke-linecap: square"/>
   </g>
   <g id="patch_47">
    <path d="M 49.452656 237.883125 
L 534.187369 237.883125 
" style="fill: none; stroke: #ffffff; stroke-width: 1.875; stroke-linejoin: miter; stroke-linecap: square"/>
   </g>
   <g id="text_8">
    <!-- Dataset = FOR2LAM -->
    <g style="fill: #262626" transform="translate(208.561575 149.488125) scale(0.18 -0.18)">
     <defs>
      <path id="HelveticaNeue-46" d="M 499 4570 
L 499 0 
L 1107 0 
L 1107 2093 
L 3206 2093 
L 3206 2605 
L 1107 2605 
L 1107 4058 
L 3501 4058 
L 3501 4570 
L 499 4570 
z
" transform="scale(0.015625)"/>
      <path id="HelveticaNeue-4f" d="M 851 2285 
Q 851 2630 940 2966 
Q 1030 3302 1222 3571 
Q 1414 3840 1715 4003 
Q 2016 4166 2432 4166 
Q 2848 4166 3149 4003 
Q 3450 3840 3642 3571 
Q 3834 3302 3923 2966 
Q 4013 2630 4013 2285 
Q 4013 1939 3923 1603 
Q 3834 1267 3642 998 
Q 3450 730 3149 566 
Q 2848 403 2432 403 
Q 2016 403 1715 566 
Q 1414 730 1222 998 
Q 1030 1267 940 1603 
Q 851 1939 851 2285 
z
M 243 2285 
Q 243 1818 380 1386 
Q 518 954 793 621 
Q 1069 288 1478 93 
Q 1888 -102 2432 -102 
Q 2976 -102 3385 93 
Q 3795 288 4070 621 
Q 4346 954 4483 1386 
Q 4621 1818 4621 2285 
Q 4621 2752 4483 3184 
Q 4346 3616 4070 3949 
Q 3795 4282 3385 4480 
Q 2976 4678 2432 4678 
Q 1888 4678 1478 4480 
Q 1069 4282 793 3949 
Q 518 3616 380 3184 
Q 243 2752 243 2285 
z
" transform="scale(0.015625)"/>
      <path id="HelveticaNeue-52" d="M 499 4570 
L 499 0 
L 1107 0 
L 1107 1952 
L 2592 1952 
Q 2816 1952 2950 1885 
Q 3085 1818 3168 1706 
Q 3251 1594 3289 1443 
Q 3328 1293 3354 1126 
Q 3386 960 3392 787 
Q 3398 614 3404 464 
Q 3411 314 3433 192 
Q 3456 70 3520 0 
L 4198 0 
Q 4102 115 4054 265 
Q 4006 416 3980 582 
Q 3955 749 3948 921 
Q 3942 1094 3930 1261 
Q 3910 1427 3875 1580 
Q 3840 1734 3766 1859 
Q 3693 1984 3568 2073 
Q 3443 2163 3245 2202 
L 3245 2214 
Q 3661 2330 3849 2643 
Q 4038 2957 4038 3373 
Q 4038 3930 3670 4250 
Q 3302 4570 2650 4570 
L 499 4570 
z
M 2374 2464 
L 1107 2464 
L 1107 4058 
L 2618 4058 
Q 3046 4058 3238 3840 
Q 3430 3622 3430 3277 
Q 3430 3027 3344 2870 
Q 3258 2714 3114 2621 
Q 2970 2528 2778 2496 
Q 2586 2464 2374 2464 
z
" transform="scale(0.015625)"/>
      <path id="HelveticaNeue-32" d="M 282 2931 
L 826 2931 
Q 819 3136 867 3337 
Q 915 3539 1024 3699 
Q 1133 3859 1302 3958 
Q 1472 4058 1709 4058 
Q 1888 4058 2048 4000 
Q 2208 3942 2326 3833 
Q 2445 3725 2515 3574 
Q 2586 3424 2586 3238 
Q 2586 3002 2512 2822 
Q 2438 2643 2294 2489 
Q 2150 2336 1932 2185 
Q 1715 2035 1427 1856 
Q 1190 1715 972 1555 
Q 755 1395 582 1184 
Q 410 973 298 688 
Q 186 403 154 0 
L 3117 0 
L 3117 480 
L 787 480 
Q 826 691 950 854 
Q 1075 1018 1251 1158 
Q 1427 1299 1638 1424 
Q 1850 1549 2061 1677 
Q 2272 1811 2470 1958 
Q 2669 2106 2822 2288 
Q 2976 2470 3069 2700 
Q 3162 2931 3162 3232 
Q 3162 3552 3050 3795 
Q 2938 4038 2746 4201 
Q 2554 4365 2294 4451 
Q 2035 4538 1741 4538 
Q 1382 4538 1100 4416 
Q 819 4294 630 4080 
Q 442 3866 352 3571 
Q 262 3277 282 2931 
z
" transform="scale(0.015625)"/>
      <path id="HelveticaNeue-4d" d="M 512 4570 
L 512 0 
L 1088 0 
L 1088 3802 
L 1101 3802 
L 2528 0 
L 3046 0 
L 4474 3802 
L 4486 3802 
L 4486 0 
L 5062 0 
L 5062 4570 
L 4230 4570 
L 2784 730 
L 1344 4570 
L 512 4570 
z
" transform="scale(0.015625)"/>
     </defs>
     <use xlink:href="#HelveticaNeue-44"/>
     <use xlink:href="#HelveticaNeue-61" x="70.399994"/>
     <use xlink:href="#HelveticaNeue-74" x="124.099991"/>
     <use xlink:href="#HelveticaNeue-61" x="155.599976"/>
     <use xlink:href="#HelveticaNeue-73" x="209.299973"/>
     <use xlink:href="#HelveticaNeue-65" x="259.299957"/>
     <use xlink:href="#HelveticaNeue-74" x="312.999954"/>
     <use xlink:href="#HelveticaNeue-20" x="344.499939"/>
     <use xlink:href="#HelveticaNeue-3d" x="372.299927"/>
     <use xlink:href="#HelveticaNeue-20" x="432.299911"/>
     <use xlink:href="#HelveticaNeue-46" x="460.099899"/>
     <use xlink:href="#HelveticaNeue-4f" x="517.499893"/>
     <use xlink:href="#HelveticaNeue-52" x="593.499878"/>
     <use xlink:href="#HelveticaNeue-32" x="661.999863"/>
     <use xlink:href="#HelveticaNeue-4c" x="717.599854"/>
     <use xlink:href="#HelveticaNeue-41" x="773.199844"/>
     <use xlink:href="#HelveticaNeue-4d" x="837.999832"/>
    </g>
   </g>
  </g>
  <g id="axes_3">
   <g id="patch_48">
    <path d="M 49.452656 367.318125 
L 534.187369 367.318125 
L 534.187369 284.923125 
L 49.452656 284.923125 
z
" style="fill: #eaeaf2"/>
   </g>
   <g id="patch_49">
    <path d="M 71.486052 367.318125 
L 71.486052 284.923125 
L 159.619636 284.923125 
L 159.619636 367.318125 
z
" clip-path="url(#p048df907bc)" style="fill: #778899; opacity: 0.6; stroke: #778899; stroke-width: 1.5; stroke-linejoin: miter"/>
   </g>
   <g id="patch_50">
    <path d="M 247.75322 367.318125 
L 247.75322 284.923125 
L 335.886805 284.923125 
L 335.886805 367.318125 
z
" clip-path="url(#p048df907bc)" style="fill: #778899; opacity: 0.6; stroke: #778899; stroke-width: 1.5; stroke-linejoin: miter"/>
   </g>
   <g id="patch_51">
    <path d="M 424.020389 367.318125 
L 424.020389 284.923125 
L 512.153973 284.923125 
L 512.153973 367.318125 
z
" clip-path="url(#p048df907bc)" style="fill: #778899; opacity: 0.6; stroke: #778899; stroke-width: 1.5; stroke-linejoin: miter"/>
   </g>
   <g id="matplotlib.axis_5">
    <g id="xtick_11"/>
    <g id="xtick_12"/>
    <g id="xtick_13"/>
    <g id="xtick_14"/>
    <g id="xtick_15"/>
   </g>
   <g id="matplotlib.axis_6">
    <g id="ytick_5">
     <g id="line2d_31">
      <path d="M 49.452656 367.318125 
L 534.187369 367.318125 
" clip-path="url(#p048df907bc)" style="fill: none; stroke: #ffffff; stroke-width: 1.5; stroke-linecap: round"/>
     </g>
     <g id="text_9">
      <!-- 0 -->
      <g style="fill: #262626" transform="translate(27.779688 373.209141) scale(0.165 -0.165)">
       <use xlink:href="#HelveticaNeue-30"/>
      </g>
     </g>
    </g>
    <g id="ytick_6">
     <g id="line2d_32">
      <path d="M 49.452656 288.846696 
L 534.187369 288.846696 
" clip-path="url(#p048df907bc)" style="fill: none; stroke: #ffffff; stroke-width: 1.5; stroke-linecap: round"/>
     </g>
     <g id="text_10">
      <!-- 1 -->
      <g style="fill: #262626" transform="translate(27.779688 294.737712) scale(0.165 -0.165)">
       <use xlink:href="#HelveticaNeue-31"/>
      </g>
     </g>
    </g>
    <g id="text_11">
     <!-- Accuracy -->
     <g style="fill: #262626" transform="translate(20.053125 363.785625) rotate(-90) scale(0.18 -0.18)">
      <use xlink:href="#HelveticaNeue-41"/>
      <use xlink:href="#HelveticaNeue-63" x="64.799988"/>
      <use xlink:href="#HelveticaNeue-63" x="118.499985"/>
      <use xlink:href="#HelveticaNeue-75" x="172.199982"/>
      <use xlink:href="#HelveticaNeue-72" x="227.799973"/>
      <use xlink:href="#HelveticaNeue-61" x="261.09996"/>
      <use xlink:href="#HelveticaNeue-63" x="314.799957"/>
      <use xlink:href="#HelveticaNeue-79" x="368.499954"/>
     </g>
    </g>
   </g>
   <g id="patch_52">
    <path d="M 80.299411 367.318125 
L 97.926127 367.318125 
L 97.926127 298.263268 
L 80.299411 298.263268 
z
" clip-path="url(#p048df907bc)" style="fill: #252629; stroke: #ffffff; stroke-width: 1.5; stroke-linejoin: miter"/>
   </g>
   <g id="patch_53">
    <path d="M 344.700163 367.318125 
L 362.32688 367.318125 
L 362.32688 346.915554 
L 344.700163 346.915554 
z
" clip-path="url(#p048df907bc)" style="fill: #252629; stroke: #ffffff; stroke-width: 1.5; stroke-linejoin: miter"/>
   </g>
   <g id="patch_54">
    <path d="M 432.833747 367.318125 
L 450.460464 367.318125 
L 450.460464 335.929554 
L 432.833747 335.929554 
z
" clip-path="url(#p048df907bc)" style="fill: #252629; stroke: #ffffff; stroke-width: 1.5; stroke-linejoin: miter"/>
   </g>
   <g id="patch_55">
    <path d="M 97.926127 367.318125 
L 115.552844 367.318125 
L 115.552844 299.047982 
L 97.926127 299.047982 
z
" clip-path="url(#p048df907bc)" style="fill: #364052; stroke: #ffffff; stroke-width: 1.5; stroke-linejoin: miter"/>
   </g>
   <g id="patch_56">
    <path d="M 362.32688 367.318125 
L 379.953597 367.318125 
L 379.953597 347.700268 
L 362.32688 347.700268 
z
" clip-path="url(#p048df907bc)" style="fill: #364052; stroke: #ffffff; stroke-width: 1.5; stroke-linejoin: miter"/>
   </g>
   <g id="patch_57">
    <path d="M 450.460464 367.318125 
L 468.087181 367.318125 
L 468.087181 338.283696 
L 450.460464 338.283696 
z
" clip-path="url(#p048df907bc)" style="fill: #364052; stroke: #ffffff; stroke-width: 1.5; stroke-linejoin: miter"/>
   </g>
   <g id="patch_58">
    <path d="M 115.552844 367.318125 
L 133.179561 367.318125 
L 133.179561 307.679839 
L 115.552844 307.679839 
z
" clip-path="url(#p048df907bc)" style="fill: #475b7b; stroke: #ffffff; stroke-width: 1.5; stroke-linejoin: miter"/>
   </g>
   <g id="patch_59">
    <path d="M 379.953597 367.318125 
L 397.580313 367.318125 
L 397.580313 346.915554 
L 379.953597 346.915554 
z
" clip-path="url(#p048df907bc)" style="fill: #475b7b; stroke: #ffffff; stroke-width: 1.5; stroke-linejoin: miter"/>
   </g>
   <g id="patch_60">
    <path d="M 468.087181 367.318125 
L 485.713897 367.318125 
L 485.713897 335.144839 
L 468.087181 335.144839 
z
" clip-path="url(#p048df907bc)" style="fill: #475b7b; stroke: #ffffff; stroke-width: 1.5; stroke-linejoin: miter"/>
   </g>
   <g id="patch_61">
    <path d="M 133.179561 367.318125 
L 150.806278 367.318125 
L 150.806278 310.033982 
L 133.179561 310.033982 
z
" clip-path="url(#p048df907bc)" style="fill: #5875a4; stroke: #ffffff; stroke-width: 1.5; stroke-linejoin: miter"/>
   </g>
   <g id="patch_62">
    <path d="M 397.580313 367.318125 
L 415.20703 367.318125 
L 415.20703 351.623839 
L 397.580313 351.623839 
z
" clip-path="url(#p048df907bc)" style="fill: #5875a4; stroke: #ffffff; stroke-width: 1.5; stroke-linejoin: miter"/>
   </g>
   <g id="patch_63">
    <path d="M 485.713898 367.318125 
L 503.340614 367.318125 
L 503.340614 339.068411 
L 485.713898 339.068411 
z
" clip-path="url(#p048df907bc)" style="fill: #5875a4; stroke: #ffffff; stroke-width: 1.5; stroke-linejoin: miter"/>
   </g>
   <g id="patch_64">
    <path d="M 115.552844 367.318125 
L 115.552844 367.318125 
L 115.552844 367.318125 
L 115.552844 367.318125 
z
" clip-path="url(#p048df907bc)" style="fill: #252629; stroke: #ffffff; stroke-width: 1.5; stroke-linejoin: miter"/>
   </g>
   <g id="patch_65">
    <path d="M 115.552844 367.318125 
L 115.552844 367.318125 
L 115.552844 367.318125 
L 115.552844 367.318125 
z
" clip-path="url(#p048df907bc)" style="fill: #364052; stroke: #ffffff; stroke-width: 1.5; stroke-linejoin: miter"/>
   </g>
   <g id="patch_66">
    <path d="M 115.552844 367.318125 
L 115.552844 367.318125 
L 115.552844 367.318125 
L 115.552844 367.318125 
z
" clip-path="url(#p048df907bc)" style="fill: #475b7b; stroke: #ffffff; stroke-width: 1.5; stroke-linejoin: miter"/>
   </g>
   <g id="patch_67">
    <path d="M 115.552844 367.318125 
L 115.552844 367.318125 
L 115.552844 367.318125 
L 115.552844 367.318125 
z
" clip-path="url(#p048df907bc)" style="fill: #5875a4; stroke: #ffffff; stroke-width: 1.5; stroke-linejoin: miter"/>
   </g>
   <g id="line2d_33">
    <path clip-path="url(#p048df907bc)" style="fill: none; stroke: #424242; stroke-width: 3.375; stroke-linecap: round"/>
   </g>
   <g id="line2d_34">
    <path clip-path="url(#p048df907bc)" style="fill: none; stroke: #424242; stroke-width: 3.375; stroke-linecap: round"/>
   </g>
   <g id="line2d_35">
    <path clip-path="url(#p048df907bc)" style="fill: none; stroke: #424242; stroke-width: 3.375; stroke-linecap: round"/>
   </g>
   <g id="line2d_36">
    <path clip-path="url(#p048df907bc)" style="fill: none; stroke: #424242; stroke-width: 3.375; stroke-linecap: round"/>
   </g>
   <g id="line2d_37">
    <path clip-path="url(#p048df907bc)" style="fill: none; stroke: #424242; stroke-width: 3.375; stroke-linecap: round"/>
   </g>
   <g id="line2d_38">
    <path clip-path="url(#p048df907bc)" style="fill: none; stroke: #424242; stroke-width: 3.375; stroke-linecap: round"/>
   </g>
   <g id="line2d_39">
    <path clip-path="url(#p048df907bc)" style="fill: none; stroke: #424242; stroke-width: 3.375; stroke-linecap: round"/>
   </g>
   <g id="line2d_40">
    <path clip-path="url(#p048df907bc)" style="fill: none; stroke: #424242; stroke-width: 3.375; stroke-linecap: round"/>
   </g>
   <g id="line2d_41">
    <path clip-path="url(#p048df907bc)" style="fill: none; stroke: #424242; stroke-width: 3.375; stroke-linecap: round"/>
   </g>
   <g id="line2d_42">
    <path clip-path="url(#p048df907bc)" style="fill: none; stroke: #424242; stroke-width: 3.375; stroke-linecap: round"/>
   </g>
   <g id="line2d_43">
    <path clip-path="url(#p048df907bc)" style="fill: none; stroke: #424242; stroke-width: 3.375; stroke-linecap: round"/>
   </g>
   <g id="line2d_44">
    <path clip-path="url(#p048df907bc)" style="fill: none; stroke: #424242; stroke-width: 3.375; stroke-linecap: round"/>
   </g>
   <g id="patch_68">
    <path d="M 49.452656 367.318125 
L 49.452656 284.923125 
" style="fill: none; stroke: #ffffff; stroke-width: 1.875; stroke-linejoin: miter; stroke-linecap: square"/>
   </g>
   <g id="patch_69">
    <path d="M 49.452656 367.318125 
L 534.187369 367.318125 
" style="fill: none; stroke: #ffffff; stroke-width: 1.875; stroke-linejoin: miter; stroke-linecap: square"/>
   </g>
   <g id="text_12">
    <!-- Dataset = GeoQuery -->
    <g style="fill: #262626" transform="translate(209.405325 278.923125) scale(0.18 -0.18)">
     <defs>
      <path id="HelveticaNeue-47" d="M 3917 570 
L 4077 0 
L 4461 0 
L 4461 2406 
L 2458 2406 
L 2458 1894 
L 3917 1894 
Q 3930 1581 3834 1309 
Q 3738 1037 3549 835 
Q 3360 634 3085 518 
Q 2810 403 2451 403 
Q 2067 403 1776 553 
Q 1485 704 1286 957 
Q 1088 1210 985 1539 
Q 883 1869 883 2227 
Q 883 2592 972 2941 
Q 1062 3290 1251 3562 
Q 1440 3834 1737 4000 
Q 2035 4166 2451 4166 
Q 2707 4166 2934 4105 
Q 3162 4045 3341 3923 
Q 3520 3802 3641 3613 
Q 3763 3424 3808 3162 
L 4416 3162 
Q 4352 3565 4176 3849 
Q 4000 4134 3741 4320 
Q 3482 4506 3152 4592 
Q 2822 4678 2451 4678 
Q 1907 4678 1500 4476 
Q 1094 4275 822 3936 
Q 550 3597 412 3145 
Q 275 2694 275 2195 
Q 275 1747 422 1331 
Q 570 915 851 595 
Q 1133 275 1536 86 
Q 1939 -102 2451 -102 
Q 2854 -102 3251 54 
Q 3648 211 3917 570 
z
" transform="scale(0.015625)"/>
      <path id="HelveticaNeue-51" d="M 2880 1306 
L 2560 934 
L 3066 531 
Q 2758 403 2432 403 
Q 2016 403 1715 566 
Q 1414 730 1222 998 
Q 1030 1267 940 1603 
Q 851 1939 851 2285 
Q 851 2630 940 2966 
Q 1030 3302 1222 3571 
Q 1414 3840 1715 4003 
Q 2016 4166 2432 4166 
Q 2848 4166 3149 4003 
Q 3450 3840 3642 3571 
Q 3834 3302 3923 2966 
Q 4013 2630 4013 2285 
Q 4013 1862 3885 1475 
Q 3757 1088 3488 819 
L 2880 1306 
z
M 4224 -390 
L 4531 -6 
L 3930 467 
Q 4275 813 4448 1286 
Q 4621 1760 4621 2285 
Q 4621 2752 4483 3184 
Q 4346 3616 4070 3949 
Q 3795 4282 3385 4480 
Q 2976 4678 2432 4678 
Q 1888 4678 1478 4480 
Q 1069 4282 793 3949 
Q 518 3616 380 3184 
Q 243 2752 243 2285 
Q 243 1818 380 1386 
Q 518 954 793 621 
Q 1069 288 1478 93 
Q 1888 -102 2432 -102 
Q 3066 -102 3526 166 
L 4224 -390 
z
" transform="scale(0.015625)"/>
     </defs>
     <use xlink:href="#HelveticaNeue-44"/>
     <use xlink:href="#HelveticaNeue-61" x="70.399994"/>
     <use xlink:href="#HelveticaNeue-74" x="124.099991"/>
     <use xlink:href="#HelveticaNeue-61" x="155.599976"/>
     <use xlink:href="#HelveticaNeue-73" x="209.299973"/>
     <use xlink:href="#HelveticaNeue-65" x="259.299957"/>
     <use xlink:href="#HelveticaNeue-74" x="312.999954"/>
     <use xlink:href="#HelveticaNeue-20" x="344.499939"/>
     <use xlink:href="#HelveticaNeue-3d" x="372.299927"/>
     <use xlink:href="#HelveticaNeue-20" x="432.299911"/>
     <use xlink:href="#HelveticaNeue-47" x="460.099899"/>
     <use xlink:href="#HelveticaNeue-65" x="535.999893"/>
     <use xlink:href="#HelveticaNeue-6f" x="589.69989"/>
     <use xlink:href="#HelveticaNeue-51" x="647.099884"/>
     <use xlink:href="#HelveticaNeue-75" x="723.099869"/>
     <use xlink:href="#HelveticaNeue-65" x="778.69986"/>
     <use xlink:href="#HelveticaNeue-72" x="832.399857"/>
     <use xlink:href="#HelveticaNeue-79" x="865.699844"/>
    </g>
   </g>
  </g>
  <g id="axes_4">
   <g id="patch_70">
    <path d="M 49.452656 496.753125 
L 534.187369 496.753125 
L 534.187369 414.358125 
L 49.452656 414.358125 
z
" style="fill: #eaeaf2"/>
   </g>
   <g id="patch_71">
    <path d="M 71.486052 496.753125 
L 71.486052 414.358125 
L 159.619636 414.358125 
L 159.619636 496.753125 
z
" clip-path="url(#p795cc6a484)" style="fill: #778899; opacity: 0.6; stroke: #778899; stroke-width: 1.5; stroke-linejoin: miter"/>
   </g>
   <g id="patch_72">
    <path d="M 247.75322 496.753125 
L 247.75322 414.358125 
L 335.886805 414.358125 
L 335.886805 496.753125 
z
" clip-path="url(#p795cc6a484)" style="fill: #778899; opacity: 0.6; stroke: #778899; stroke-width: 1.5; stroke-linejoin: miter"/>
   </g>
   <g id="patch_73">
    <path d="M 424.020389 496.753125 
L 424.020389 414.358125 
L 512.153973 414.358125 
L 512.153973 496.753125 
z
" clip-path="url(#p795cc6a484)" style="fill: #778899; opacity: 0.6; stroke: #778899; stroke-width: 1.5; stroke-linejoin: miter"/>
   </g>
   <g id="matplotlib.axis_7">
    <g id="xtick_16">
     <g id="text_13">
      <!-- IID -->
      <g style="fill: #262626" transform="translate(105.469797 521.035156) scale(0.165 -0.165)">
       <defs>
        <path id="HelveticaNeue-49" d="M 525 4570 
L 525 0 
L 1133 0 
L 1133 4570 
L 525 4570 
z
" transform="scale(0.015625)"/>
       </defs>
       <use xlink:href="#HelveticaNeue-49"/>
       <use xlink:href="#HelveticaNeue-49" x="25.899994"/>
       <use xlink:href="#HelveticaNeue-44" x="51.799988"/>
      </g>
     </g>
    </g>
    <g id="xtick_17">
     <g id="text_14">
      <!-- 1-shot lexical -->
      <g style="fill: #262626" transform="translate(154.490647 521.035156) scale(0.165 -0.165)">
       <defs>
        <path id="HelveticaNeue-2d" d="M 320 2035 
L 320 1523 
L 2170 1523 
L 2170 2035 
L 320 2035 
z
" transform="scale(0.015625)"/>
        <path id="HelveticaNeue-68" d="M 410 4570 
L 410 0 
L 954 0 
L 954 1869 
Q 954 2093 1014 2281 
Q 1075 2470 1196 2611 
Q 1318 2752 1500 2829 
Q 1683 2906 1933 2906 
Q 2246 2906 2425 2726 
Q 2605 2547 2605 2240 
L 2605 0 
L 3149 0 
L 3149 2176 
Q 3149 2445 3094 2665 
Q 3040 2886 2905 3046 
Q 2771 3206 2553 3296 
Q 2336 3386 2010 3386 
Q 1862 3386 1705 3354 
Q 1549 3322 1405 3254 
Q 1261 3187 1145 3081 
Q 1030 2976 966 2822 
L 954 2822 
L 954 4570 
L 410 4570 
z
" transform="scale(0.015625)"/>
        <path id="HelveticaNeue-78" d="M 1299 1741 
L 58 0 
L 717 0 
L 1638 1370 
L 2560 0 
L 3258 0 
L 1978 1786 
L 3117 3309 
L 2464 3309 
L 1638 2150 
L 845 3309 
L 147 3309 
L 1299 1741 
z
" transform="scale(0.015625)"/>
       </defs>
       <use xlink:href="#HelveticaNeue-31"/>
       <use xlink:href="#HelveticaNeue-2d" x="55.599991"/>
       <use xlink:href="#HelveticaNeue-73" x="94.499985"/>
       <use xlink:href="#HelveticaNeue-68" x="144.499969"/>
       <use xlink:href="#HelveticaNeue-6f" x="200.09996"/>
       <use xlink:href="#HelveticaNeue-74" x="257.499954"/>
       <use xlink:href="#HelveticaNeue-20" x="288.999939"/>
       <use xlink:href="#HelveticaNeue-6c" x="316.799927"/>
       <use xlink:href="#HelveticaNeue-65" x="338.999924"/>
       <use xlink:href="#HelveticaNeue-78" x="392.699921"/>
       <use xlink:href="#HelveticaNeue-69" x="444.499908"/>
       <use xlink:href="#HelveticaNeue-63" x="466.699905"/>
       <use xlink:href="#HelveticaNeue-61" x="520.399902"/>
       <use xlink:href="#HelveticaNeue-6c" x="574.099899"/>
      </g>
     </g>
    </g>
    <g id="xtick_18">
     <g id="text_15">
      <!-- 0-shot lexical -->
      <g style="fill: #262626" transform="translate(242.624231 521.035156) scale(0.165 -0.165)">
       <use xlink:href="#HelveticaNeue-30"/>
       <use xlink:href="#HelveticaNeue-2d" x="55.599991"/>
       <use xlink:href="#HelveticaNeue-73" x="94.499985"/>
       <use xlink:href="#HelveticaNeue-68" x="144.499969"/>
       <use xlink:href="#HelveticaNeue-6f" x="200.09996"/>
       <use xlink:href="#HelveticaNeue-74" x="257.499954"/>
       <use xlink:href="#HelveticaNeue-20" x="288.999939"/>
       <use xlink:href="#HelveticaNeue-6c" x="316.799927"/>
       <use xlink:href="#HelveticaNeue-65" x="338.999924"/>
       <use xlink:href="#HelveticaNeue-78" x="392.699921"/>
       <use xlink:href="#HelveticaNeue-69" x="444.499908"/>
       <use xlink:href="#HelveticaNeue-63" x="466.699905"/>
       <use xlink:href="#HelveticaNeue-61" x="520.399902"/>
       <use xlink:href="#HelveticaNeue-6c" x="574.099899"/>
      </g>
     </g>
    </g>
    <g id="xtick_19">
     <g id="text_16">
      <!-- Length -->
      <g style="fill: #262626" transform="translate(354.42887 521.035156) scale(0.165 -0.165)">
       <defs>
        <path id="HelveticaNeue-6e" d="M 410 3309 
L 410 0 
L 954 0 
L 954 1869 
Q 954 2093 1014 2281 
Q 1075 2470 1196 2611 
Q 1318 2752 1500 2829 
Q 1683 2906 1933 2906 
Q 2246 2906 2425 2726 
Q 2605 2547 2605 2240 
L 2605 0 
L 3149 0 
L 3149 2176 
Q 3149 2445 3094 2665 
Q 3040 2886 2905 3046 
Q 2771 3206 2553 3296 
Q 2336 3386 2010 3386 
Q 1274 3386 934 2784 
L 922 2784 
L 922 3309 
L 410 3309 
z
" transform="scale(0.015625)"/>
       </defs>
       <use xlink:href="#HelveticaNeue-4c"/>
       <use xlink:href="#HelveticaNeue-65" x="55.599991"/>
       <use xlink:href="#HelveticaNeue-6e" x="109.299988"/>
       <use xlink:href="#HelveticaNeue-67" x="164.899979"/>
       <use xlink:href="#HelveticaNeue-74" x="222.299973"/>
       <use xlink:href="#HelveticaNeue-68" x="253.799957"/>
      </g>
     </g>
    </g>
    <g id="xtick_20">
     <g id="text_17">
      <!-- (T)MCD -->
      <g style="fill: #262626" transform="translate(440.126126 521.313594) scale(0.165 -0.165)">
       <defs>
        <path id="HelveticaNeue-28" d="M 1306 -1261 
L 1722 -1261 
Q 1267 -525 1072 198 
Q 877 922 877 1728 
Q 877 2515 1069 3232 
Q 1261 3949 1722 4678 
L 1306 4678 
Q 806 4019 553 3251 
Q 301 2483 301 1728 
Q 301 1306 371 922 
Q 442 538 573 173 
Q 704 -192 889 -547 
Q 1075 -902 1306 -1261 
z
" transform="scale(0.015625)"/>
        <path id="HelveticaNeue-54" d="M 1536 4058 
L 1536 0 
L 2144 0 
L 2144 4058 
L 3667 4058 
L 3667 4570 
L 13 4570 
L 13 4058 
L 1536 4058 
z
" transform="scale(0.015625)"/>
        <path id="HelveticaNeue-29" d="M -58 -1261 
L 352 -1261 
Q 851 -602 1104 163 
Q 1357 928 1357 1683 
Q 1357 2106 1286 2490 
Q 1216 2874 1085 3242 
Q 954 3610 768 3965 
Q 582 4320 352 4678 
L -58 4678 
Q 390 3942 585 3216 
Q 781 2490 781 1683 
Q 781 902 589 182 
Q 397 -538 -58 -1261 
z
" transform="scale(0.015625)"/>
        <path id="HelveticaNeue-43" d="M 3712 3194 
L 4320 3194 
Q 4269 3558 4102 3836 
Q 3936 4115 3686 4300 
Q 3437 4486 3117 4582 
Q 2797 4678 2438 4678 
Q 1914 4678 1507 4489 
Q 1101 4301 829 3974 
Q 557 3648 416 3209 
Q 275 2771 275 2272 
Q 275 1773 406 1337 
Q 538 902 800 582 
Q 1062 262 1459 80 
Q 1856 -102 2387 -102 
Q 3264 -102 3769 378 
Q 4275 858 4365 1722 
L 3757 1722 
Q 3738 1440 3642 1197 
Q 3546 954 3376 778 
Q 3206 602 2972 502 
Q 2739 403 2438 403 
Q 2029 403 1734 556 
Q 1440 710 1251 969 
Q 1062 1229 972 1577 
Q 883 1926 883 2317 
Q 883 2675 972 3008 
Q 1062 3341 1251 3600 
Q 1440 3859 1731 4012 
Q 2022 4166 2432 4166 
Q 2912 4166 3261 3923 
Q 3610 3680 3712 3194 
z
" transform="scale(0.015625)"/>
       </defs>
       <use xlink:href="#HelveticaNeue-28"/>
       <use xlink:href="#HelveticaNeue-54" x="25.899994"/>
       <use xlink:href="#HelveticaNeue-29" x="83.299988"/>
       <use xlink:href="#HelveticaNeue-4d" x="109.199982"/>
       <use xlink:href="#HelveticaNeue-43" x="196.299973"/>
       <use xlink:href="#HelveticaNeue-44" x="268.499954"/>
      </g>
     </g>
    </g>
    <g id="text_18">
     <!-- Distributional Shift -->
     <g style="fill: #262626" transform="translate(218.146575 541.417734) scale(0.18 -0.18)">
      <defs>
       <path id="HelveticaNeue-62" d="M 429 4570 
L 429 0 
L 973 0 
L 973 442 
L 986 442 
Q 1075 294 1206 195 
Q 1338 96 1485 38 
Q 1632 -19 1782 -44 
Q 1933 -70 2054 -70 
Q 2432 -70 2717 64 
Q 3002 198 3190 432 
Q 3379 666 3472 979 
Q 3565 1293 3565 1645 
Q 3565 1997 3469 2310 
Q 3373 2624 3184 2864 
Q 2995 3104 2710 3245 
Q 2426 3386 2042 3386 
Q 1696 3386 1408 3261 
Q 1120 3136 986 2861 
L 973 2861 
L 973 4570 
L 429 4570 
z
M 2989 1683 
Q 2989 1440 2937 1209 
Q 2886 979 2771 800 
Q 2656 621 2467 512 
Q 2278 403 1997 403 
Q 1715 403 1516 508 
Q 1318 614 1193 787 
Q 1069 960 1011 1187 
Q 954 1414 954 1658 
Q 954 1888 1008 2112 
Q 1062 2336 1184 2512 
Q 1306 2688 1498 2797 
Q 1690 2906 1965 2906 
Q 2227 2906 2422 2803 
Q 2618 2701 2742 2528 
Q 2867 2355 2928 2134 
Q 2989 1914 2989 1683 
z
" transform="scale(0.015625)"/>
       <path id="HelveticaNeue-53" d="M 3142 3232 
L 3718 3232 
Q 3706 3610 3574 3882 
Q 3443 4154 3216 4333 
Q 2989 4512 2688 4595 
Q 2387 4678 2035 4678 
Q 1722 4678 1424 4598 
Q 1126 4518 892 4355 
Q 659 4192 518 3939 
Q 378 3686 378 3341 
Q 378 3027 502 2819 
Q 627 2611 835 2480 
Q 1043 2349 1305 2269 
Q 1568 2189 1840 2128 
Q 2112 2067 2374 2009 
Q 2637 1952 2845 1859 
Q 3053 1766 3177 1619 
Q 3302 1472 3302 1235 
Q 3302 986 3200 826 
Q 3098 666 2931 573 
Q 2765 480 2557 441 
Q 2349 403 2144 403 
Q 1888 403 1645 467 
Q 1402 531 1219 665 
Q 1037 800 925 1008 
Q 813 1216 813 1504 
L 237 1504 
Q 237 1088 387 784 
Q 538 480 797 285 
Q 1056 90 1398 -6 
Q 1741 -102 2125 -102 
Q 2438 -102 2755 -28 
Q 3072 45 3328 208 
Q 3584 371 3747 630 
Q 3910 890 3910 1254 
Q 3910 1594 3785 1818 
Q 3661 2042 3453 2189 
Q 3245 2336 2982 2422 
Q 2720 2509 2448 2573 
Q 2176 2637 1913 2691 
Q 1651 2746 1443 2829 
Q 1235 2912 1110 3043 
Q 986 3174 986 3386 
Q 986 3610 1072 3760 
Q 1158 3910 1302 4000 
Q 1446 4090 1632 4128 
Q 1818 4166 2010 4166 
Q 2483 4166 2787 3945 
Q 3091 3725 3142 3232 
z
" transform="scale(0.015625)"/>
       <path id="HelveticaNeue-66" d="M 634 2829 
L 634 0 
L 1178 0 
L 1178 2829 
L 1818 2829 
L 1818 3309 
L 1178 3309 
L 1178 3770 
Q 1178 3987 1286 4064 
Q 1395 4141 1594 4141 
Q 1664 4141 1747 4131 
Q 1830 4122 1901 4096 
L 1901 4570 
Q 1824 4595 1725 4608 
Q 1626 4621 1549 4621 
Q 1101 4621 867 4413 
Q 634 4205 634 3802 
L 634 3309 
L 77 3309 
L 77 2829 
L 634 2829 
z
" transform="scale(0.015625)"/>
      </defs>
      <use xlink:href="#HelveticaNeue-44"/>
      <use xlink:href="#HelveticaNeue-69" x="70.399994"/>
      <use xlink:href="#HelveticaNeue-73" x="92.599991"/>
      <use xlink:href="#HelveticaNeue-74" x="142.599976"/>
      <use xlink:href="#HelveticaNeue-72" x="174.09996"/>
      <use xlink:href="#HelveticaNeue-69" x="207.399948"/>
      <use xlink:href="#HelveticaNeue-62" x="229.599945"/>
      <use xlink:href="#HelveticaNeue-75" x="288.899933"/>
      <use xlink:href="#HelveticaNeue-74" x="344.499924"/>
      <use xlink:href="#HelveticaNeue-69" x="375.999908"/>
      <use xlink:href="#HelveticaNeue-6f" x="398.199905"/>
      <use xlink:href="#HelveticaNeue-6e" x="455.599899"/>
      <use xlink:href="#HelveticaNeue-61" x="511.19989"/>
      <use xlink:href="#HelveticaNeue-6c" x="564.899887"/>
      <use xlink:href="#HelveticaNeue-20" x="587.099884"/>
      <use xlink:href="#HelveticaNeue-53" x="614.899872"/>
      <use xlink:href="#HelveticaNeue-68" x="679.69986"/>
      <use xlink:href="#HelveticaNeue-69" x="735.29985"/>
      <use xlink:href="#HelveticaNeue-66" x="757.499847"/>
      <use xlink:href="#HelveticaNeue-74" x="787.099838"/>
     </g>
    </g>
   </g>
   <g id="matplotlib.axis_8">
    <g id="ytick_7">
     <g id="line2d_45">
      <path d="M 49.452656 496.753125 
L 534.187369 496.753125 
" clip-path="url(#p795cc6a484)" style="fill: none; stroke: #ffffff; stroke-width: 1.5; stroke-linecap: round"/>
     </g>
     <g id="text_19">
      <!-- 0 -->
      <g style="fill: #262626" transform="translate(27.779688 502.644141) scale(0.165 -0.165)">
       <use xlink:href="#HelveticaNeue-30"/>
      </g>
     </g>
    </g>
    <g id="ytick_8">
     <g id="line2d_46">
      <path d="M 49.452656 418.281696 
L 534.187369 418.281696 
" clip-path="url(#p795cc6a484)" style="fill: none; stroke: #ffffff; stroke-width: 1.5; stroke-linecap: round"/>
     </g>
     <g id="text_20">
      <!-- 1 -->
      <g style="fill: #262626" transform="translate(27.779688 424.172712) scale(0.165 -0.165)">
       <use xlink:href="#HelveticaNeue-31"/>
      </g>
     </g>
    </g>
    <g id="text_21">
     <!-- Accuracy -->
     <g style="fill: #262626" transform="translate(20.053125 493.220625) rotate(-90) scale(0.18 -0.18)">
      <use xlink:href="#HelveticaNeue-41"/>
      <use xlink:href="#HelveticaNeue-63" x="64.799988"/>
      <use xlink:href="#HelveticaNeue-63" x="118.499985"/>
      <use xlink:href="#HelveticaNeue-75" x="172.199982"/>
      <use xlink:href="#HelveticaNeue-72" x="227.799973"/>
      <use xlink:href="#HelveticaNeue-61" x="261.09996"/>
      <use xlink:href="#HelveticaNeue-63" x="314.799957"/>
      <use xlink:href="#HelveticaNeue-79" x="368.499954"/>
     </g>
    </g>
   </g>
   <g id="patch_74">
    <path d="M 80.299411 496.753125 
L 94.400784 496.753125 
L 94.400784 418.281696 
L 80.299411 418.281696 
z
" clip-path="url(#p795cc6a484)" style="fill: #252629; stroke: #ffffff; stroke-width: 1.5; stroke-linejoin: miter"/>
   </g>
   <g id="patch_75">
    <path d="M 168.432995 496.753125 
L 182.534368 496.753125 
L 182.534368 490.475411 
L 168.432995 490.475411 
z
" clip-path="url(#p795cc6a484)" style="fill: #252629; stroke: #ffffff; stroke-width: 1.5; stroke-linejoin: miter"/>
   </g>
   <g id="patch_76">
    <path d="M 256.566579 496.753125 
L 270.667952 496.753125 
L 270.667952 496.753125 
L 256.566579 496.753125 
z
" clip-path="url(#p795cc6a484)" style="fill: #252629; stroke: #ffffff; stroke-width: 1.5; stroke-linejoin: miter"/>
   </g>
   <g id="patch_77">
    <path d="M 344.700163 496.753125 
L 358.801536 496.753125 
L 358.801536 491.260125 
L 344.700163 491.260125 
z
" clip-path="url(#p795cc6a484)" style="fill: #252629; stroke: #ffffff; stroke-width: 1.5; stroke-linejoin: miter"/>
   </g>
   <g id="patch_78">
    <path d="M 432.833747 496.753125 
L 446.935121 496.753125 
L 446.935121 495.183696 
L 432.833747 495.183696 
z
" clip-path="url(#p795cc6a484)" style="fill: #252629; stroke: #ffffff; stroke-width: 1.5; stroke-linejoin: miter"/>
   </g>
   <g id="patch_79">
    <path d="M 94.400784 496.753125 
L 108.502158 496.753125 
L 108.502158 418.281696 
L 94.400784 418.281696 
z
" clip-path="url(#p795cc6a484)" style="fill: #323a48; stroke: #ffffff; stroke-width: 1.5; stroke-linejoin: miter"/>
   </g>
   <g id="patch_80">
    <path d="M 182.534368 496.753125 
L 196.635742 496.753125 
L 196.635742 488.121268 
L 182.534368 488.121268 
z
" clip-path="url(#p795cc6a484)" style="fill: #323a48; stroke: #ffffff; stroke-width: 1.5; stroke-linejoin: miter"/>
   </g>
   <g id="patch_81">
    <path d="M 270.667952 496.753125 
L 284.769326 496.753125 
L 284.769326 496.753125 
L 270.667952 496.753125 
z
" clip-path="url(#p795cc6a484)" style="fill: #323a48; stroke: #ffffff; stroke-width: 1.5; stroke-linejoin: miter"/>
   </g>
   <g id="patch_82">
    <path d="M 358.801536 496.753125 
L 372.90291 496.753125 
L 372.90291 481.843554 
L 358.801536 481.843554 
z
" clip-path="url(#p795cc6a484)" style="fill: #323a48; stroke: #ffffff; stroke-width: 1.5; stroke-linejoin: miter"/>
   </g>
   <g id="patch_83">
    <path d="M 446.93512 496.753125 
L 461.036494 496.753125 
L 461.036494 495.968411 
L 446.93512 495.968411 
z
" clip-path="url(#p795cc6a484)" style="fill: #323a48; stroke: #ffffff; stroke-width: 1.5; stroke-linejoin: miter"/>
   </g>
   <g id="patch_84">
    <path d="M 108.502158 496.753125 
L 122.603531 496.753125 
L 122.603531 418.281696 
L 108.502158 418.281696 
z
" clip-path="url(#p795cc6a484)" style="fill: #3f4e67; stroke: #ffffff; stroke-width: 1.5; stroke-linejoin: miter"/>
   </g>
   <g id="patch_85">
    <path d="M 196.635742 496.753125 
L 210.737115 496.753125 
L 210.737115 418.281696 
L 196.635742 418.281696 
z
" clip-path="url(#p795cc6a484)" style="fill: #3f4e67; stroke: #ffffff; stroke-width: 1.5; stroke-linejoin: miter"/>
   </g>
   <g id="patch_86">
    <path d="M 284.769326 496.753125 
L 298.870699 496.753125 
L 298.870699 496.753125 
L 284.769326 496.753125 
z
" clip-path="url(#p795cc6a484)" style="fill: #3f4e67; stroke: #ffffff; stroke-width: 1.5; stroke-linejoin: miter"/>
   </g>
   <g id="patch_87">
    <path d="M 372.90291 496.753125 
L 387.004283 496.753125 
L 387.004283 418.281696 
L 372.90291 418.281696 
z
" clip-path="url(#p795cc6a484)" style="fill: #3f4e67; stroke: #ffffff; stroke-width: 1.5; stroke-linejoin: miter"/>
   </g>
   <g id="patch_88">
    <path d="M 461.036494 496.753125 
L 475.137867 496.753125 
L 475.137867 418.281696 
L 461.036494 418.281696 
z
" clip-path="url(#p795cc6a484)" style="fill: #3f4e67; stroke: #ffffff; stroke-width: 1.5; stroke-linejoin: miter"/>
   </g>
   <g id="patch_89">
    <path d="M 122.603531 496.753125 
L 136.704904 496.753125 
L 136.704904 418.281696 
L 122.603531 418.281696 
z
" clip-path="url(#p795cc6a484)" style="fill: #4c6185; stroke: #ffffff; stroke-width: 1.5; stroke-linejoin: miter"/>
   </g>
   <g id="patch_90">
    <path d="M 210.737115 496.753125 
L 224.838489 496.753125 
L 224.838489 419.066411 
L 210.737115 419.066411 
z
" clip-path="url(#p795cc6a484)" style="fill: #4c6185; stroke: #ffffff; stroke-width: 1.5; stroke-linejoin: miter"/>
   </g>
   <g id="patch_91">
    <path d="M 298.870699 496.753125 
L 312.972073 496.753125 
L 312.972073 419.066411 
L 298.870699 419.066411 
z
" clip-path="url(#p795cc6a484)" style="fill: #4c6185; stroke: #ffffff; stroke-width: 1.5; stroke-linejoin: miter"/>
   </g>
   <g id="patch_92">
    <path d="M 387.004283 496.753125 
L 401.105657 496.753125 
L 401.105657 437.899554 
L 387.004283 437.899554 
z
" clip-path="url(#p795cc6a484)" style="fill: #4c6185; stroke: #ffffff; stroke-width: 1.5; stroke-linejoin: miter"/>
   </g>
   <g id="patch_93">
    <path d="M 475.137867 496.753125 
L 489.239241 496.753125 
L 489.239241 494.398982 
L 475.137867 494.398982 
z
" clip-path="url(#p795cc6a484)" style="fill: #4c6185; stroke: #ffffff; stroke-width: 1.5; stroke-linejoin: miter"/>
   </g>
   <g id="patch_94">
    <path d="M 136.704904 496.753125 
L 150.806278 496.753125 
L 150.806278 418.281696 
L 136.704904 418.281696 
z
" clip-path="url(#p795cc6a484)" style="fill: #5875a4; stroke: #ffffff; stroke-width: 1.5; stroke-linejoin: miter"/>
   </g>
   <g id="patch_95">
    <path d="M 224.838489 496.753125 
L 238.939862 496.753125 
L 238.939862 428.482982 
L 224.838489 428.482982 
z
" clip-path="url(#p795cc6a484)" style="fill: #5875a4; stroke: #ffffff; stroke-width: 1.5; stroke-linejoin: miter"/>
   </g>
   <g id="patch_96">
    <path d="M 312.972073 496.753125 
L 327.073446 496.753125 
L 327.073446 419.851125 
L 312.972073 419.851125 
z
" clip-path="url(#p795cc6a484)" style="fill: #5875a4; stroke: #ffffff; stroke-width: 1.5; stroke-linejoin: miter"/>
   </g>
   <g id="patch_97">
    <path d="M 401.105657 496.753125 
L 415.20703 496.753125 
L 415.20703 492.044839 
L 401.105657 492.044839 
z
" clip-path="url(#p795cc6a484)" style="fill: #5875a4; stroke: #ffffff; stroke-width: 1.5; stroke-linejoin: miter"/>
   </g>
   <g id="patch_98">
    <path d="M 489.239241 496.753125 
L 503.340614 496.753125 
L 503.340614 496.753125 
L 489.239241 496.753125 
z
" clip-path="url(#p795cc6a484)" style="fill: #5875a4; stroke: #ffffff; stroke-width: 1.5; stroke-linejoin: miter"/>
   </g>
   <g id="patch_99">
    <path d="M 115.552844 496.753125 
L 115.552844 496.753125 
L 115.552844 496.753125 
L 115.552844 496.753125 
z
" clip-path="url(#p795cc6a484)" style="fill: #252629; stroke: #ffffff; stroke-width: 1.5; stroke-linejoin: miter"/>
   </g>
   <g id="patch_100">
    <path d="M 115.552844 496.753125 
L 115.552844 496.753125 
L 115.552844 496.753125 
L 115.552844 496.753125 
z
" clip-path="url(#p795cc6a484)" style="fill: #323a48; stroke: #ffffff; stroke-width: 1.5; stroke-linejoin: miter"/>
   </g>
   <g id="patch_101">
    <path d="M 115.552844 496.753125 
L 115.552844 496.753125 
L 115.552844 496.753125 
L 115.552844 496.753125 
z
" clip-path="url(#p795cc6a484)" style="fill: #3f4e67; stroke: #ffffff; stroke-width: 1.5; stroke-linejoin: miter"/>
   </g>
   <g id="patch_102">
    <path d="M 115.552844 496.753125 
L 115.552844 496.753125 
L 115.552844 496.753125 
L 115.552844 496.753125 
z
" clip-path="url(#p795cc6a484)" style="fill: #4c6185; stroke: #ffffff; stroke-width: 1.5; stroke-linejoin: miter"/>
   </g>
   <g id="patch_103">
    <path d="M 115.552844 496.753125 
L 115.552844 496.753125 
L 115.552844 496.753125 
L 115.552844 496.753125 
z
" clip-path="url(#p795cc6a484)" style="fill: #5875a4; stroke: #ffffff; stroke-width: 1.5; stroke-linejoin: miter"/>
   </g>
   <g id="line2d_47">
    <path clip-path="url(#p795cc6a484)" style="fill: none; stroke: #424242; stroke-width: 3.375; stroke-linecap: round"/>
   </g>
   <g id="line2d_48">
    <path clip-path="url(#p795cc6a484)" style="fill: none; stroke: #424242; stroke-width: 3.375; stroke-linecap: round"/>
   </g>
   <g id="line2d_49">
    <path clip-path="url(#p795cc6a484)" style="fill: none; stroke: #424242; stroke-width: 3.375; stroke-linecap: round"/>
   </g>
   <g id="line2d_50">
    <path clip-path="url(#p795cc6a484)" style="fill: none; stroke: #424242; stroke-width: 3.375; stroke-linecap: round"/>
   </g>
   <g id="line2d_51">
    <path clip-path="url(#p795cc6a484)" style="fill: none; stroke: #424242; stroke-width: 3.375; stroke-linecap: round"/>
   </g>
   <g id="line2d_52">
    <path clip-path="url(#p795cc6a484)" style="fill: none; stroke: #424242; stroke-width: 3.375; stroke-linecap: round"/>
   </g>
   <g id="line2d_53">
    <path clip-path="url(#p795cc6a484)" style="fill: none; stroke: #424242; stroke-width: 3.375; stroke-linecap: round"/>
   </g>
   <g id="line2d_54">
    <path clip-path="url(#p795cc6a484)" style="fill: none; stroke: #424242; stroke-width: 3.375; stroke-linecap: round"/>
   </g>
   <g id="line2d_55">
    <path clip-path="url(#p795cc6a484)" style="fill: none; stroke: #424242; stroke-width: 3.375; stroke-linecap: round"/>
   </g>
   <g id="line2d_56">
    <path clip-path="url(#p795cc6a484)" style="fill: none; stroke: #424242; stroke-width: 3.375; stroke-linecap: round"/>
   </g>
   <g id="line2d_57">
    <path clip-path="url(#p795cc6a484)" style="fill: none; stroke: #424242; stroke-width: 3.375; stroke-linecap: round"/>
   </g>
   <g id="line2d_58">
    <path clip-path="url(#p795cc6a484)" style="fill: none; stroke: #424242; stroke-width: 3.375; stroke-linecap: round"/>
   </g>
   <g id="line2d_59">
    <path clip-path="url(#p795cc6a484)" style="fill: none; stroke: #424242; stroke-width: 3.375; stroke-linecap: round"/>
   </g>
   <g id="line2d_60">
    <path clip-path="url(#p795cc6a484)" style="fill: none; stroke: #424242; stroke-width: 3.375; stroke-linecap: round"/>
   </g>
   <g id="line2d_61">
    <path clip-path="url(#p795cc6a484)" style="fill: none; stroke: #424242; stroke-width: 3.375; stroke-linecap: round"/>
   </g>
   <g id="line2d_62">
    <path clip-path="url(#p795cc6a484)" style="fill: none; stroke: #424242; stroke-width: 3.375; stroke-linecap: round"/>
   </g>
   <g id="line2d_63">
    <path clip-path="url(#p795cc6a484)" style="fill: none; stroke: #424242; stroke-width: 3.375; stroke-linecap: round"/>
   </g>
   <g id="line2d_64">
    <path clip-path="url(#p795cc6a484)" style="fill: none; stroke: #424242; stroke-width: 3.375; stroke-linecap: round"/>
   </g>
   <g id="line2d_65">
    <path clip-path="url(#p795cc6a484)" style="fill: none; stroke: #424242; stroke-width: 3.375; stroke-linecap: round"/>
   </g>
   <g id="line2d_66">
    <path clip-path="url(#p795cc6a484)" style="fill: none; stroke: #424242; stroke-width: 3.375; stroke-linecap: round"/>
   </g>
   <g id="line2d_67">
    <path clip-path="url(#p795cc6a484)" style="fill: none; stroke: #424242; stroke-width: 3.375; stroke-linecap: round"/>
   </g>
   <g id="line2d_68">
    <path clip-path="url(#p795cc6a484)" style="fill: none; stroke: #424242; stroke-width: 3.375; stroke-linecap: round"/>
   </g>
   <g id="line2d_69">
    <path clip-path="url(#p795cc6a484)" style="fill: none; stroke: #424242; stroke-width: 3.375; stroke-linecap: round"/>
   </g>
   <g id="line2d_70">
    <path clip-path="url(#p795cc6a484)" style="fill: none; stroke: #424242; stroke-width: 3.375; stroke-linecap: round"/>
   </g>
   <g id="line2d_71">
    <path clip-path="url(#p795cc6a484)" style="fill: none; stroke: #424242; stroke-width: 3.375; stroke-linecap: round"/>
   </g>
   <g id="patch_104">
    <path d="M 49.452656 496.753125 
L 49.452656 414.358125 
" style="fill: none; stroke: #ffffff; stroke-width: 1.875; stroke-linejoin: miter; stroke-linecap: square"/>
   </g>
   <g id="patch_105">
    <path d="M 49.452656 496.753125 
L 534.187369 496.753125 
" style="fill: none; stroke: #ffffff; stroke-width: 1.875; stroke-linejoin: miter; stroke-linecap: square"/>
   </g>
   <g id="text_22">
    <!-- Dataset = SCAN -->
    <g style="fill: #262626" transform="translate(225.750169 408.358125) scale(0.18 -0.18)">
     <defs>
      <path id="HelveticaNeue-4e" d="M 493 4570 
L 493 0 
L 1069 0 
L 1069 3667 
L 1082 3667 
L 3469 0 
L 4134 0 
L 4134 4570 
L 3558 4570 
L 3558 864 
L 3546 864 
L 1139 4570 
L 493 4570 
z
" transform="scale(0.015625)"/>
     </defs>
     <use xlink:href="#HelveticaNeue-44"/>
     <use xlink:href="#HelveticaNeue-61" x="70.399994"/>
     <use xlink:href="#HelveticaNeue-74" x="124.099991"/>
     <use xlink:href="#HelveticaNeue-61" x="155.599976"/>
     <use xlink:href="#HelveticaNeue-73" x="209.299973"/>
     <use xlink:href="#HelveticaNeue-65" x="259.299957"/>
     <use xlink:href="#HelveticaNeue-74" x="312.999954"/>
     <use xlink:href="#HelveticaNeue-20" x="344.499939"/>
     <use xlink:href="#HelveticaNeue-3d" x="372.299927"/>
     <use xlink:href="#HelveticaNeue-20" x="432.299911"/>
     <use xlink:href="#HelveticaNeue-53" x="460.099899"/>
     <use xlink:href="#HelveticaNeue-43" x="524.899887"/>
     <use xlink:href="#HelveticaNeue-41" x="597.099869"/>
     <use xlink:href="#HelveticaNeue-4e" x="661.899857"/>
    </g>
   </g>
  </g>
  <g id="legend_1">
   <g id="patch_106">
    <path d="M 539.729456 233.642344 
L 572.729456 233.642344 
L 572.729456 222.092344 
L 539.729456 222.092344 
z
" style="fill: #252629; stroke: #ffffff; stroke-width: 1.5; stroke-linejoin: miter"/>
   </g>
   <g id="text_23">
    <!-- Transformer -->
    <g style="fill: #262626" transform="translate(585.929456 233.642344) scale(0.165 -0.165)">
     <defs>
      <path id="HelveticaNeue-6d" d="M 410 3309 
L 410 0 
L 954 0 
L 954 2061 
Q 954 2157 1002 2301 
Q 1050 2445 1155 2579 
Q 1261 2714 1430 2810 
Q 1600 2906 1837 2906 
Q 2022 2906 2140 2851 
Q 2259 2797 2329 2697 
Q 2400 2598 2429 2464 
Q 2458 2330 2458 2170 
L 2458 0 
L 3002 0 
L 3002 2061 
Q 3002 2445 3232 2675 
Q 3462 2906 3866 2906 
Q 4064 2906 4189 2848 
Q 4314 2790 4384 2691 
Q 4454 2592 4480 2457 
Q 4506 2323 4506 2170 
L 4506 0 
L 5050 0 
L 5050 2426 
Q 5050 2682 4970 2864 
Q 4890 3046 4746 3161 
Q 4602 3277 4400 3331 
Q 4198 3386 3949 3386 
Q 3622 3386 3350 3238 
Q 3078 3091 2912 2822 
Q 2810 3130 2560 3258 
Q 2310 3386 2003 3386 
Q 1306 3386 934 2822 
L 922 2822 
L 922 3309 
L 410 3309 
z
" transform="scale(0.015625)"/>
     </defs>
     <use xlink:href="#HelveticaNeue-54"/>
     <use xlink:href="#HelveticaNeue-72" x="48.149994"/>
     <use xlink:href="#HelveticaNeue-61" x="81.449982"/>
     <use xlink:href="#HelveticaNeue-6e" x="135.149979"/>
     <use xlink:href="#HelveticaNeue-73" x="190.749969"/>
     <use xlink:href="#HelveticaNeue-66" x="240.749954"/>
     <use xlink:href="#HelveticaNeue-6f" x="270.349945"/>
     <use xlink:href="#HelveticaNeue-72" x="327.749939"/>
     <use xlink:href="#HelveticaNeue-6d" x="361.049927"/>
     <use xlink:href="#HelveticaNeue-65" x="446.349915"/>
     <use xlink:href="#HelveticaNeue-72" x="500.049911"/>
    </g>
   </g>
   <g id="patch_107">
    <path d="M 539.729456 256.925391 
L 572.729456 256.925391 
L 572.729456 245.375391 
L 539.729456 245.375391 
z
" style="fill: #323a48; stroke: #ffffff; stroke-width: 1.5; stroke-linejoin: miter"/>
   </g>
   <g id="text_24">
    <!-- RU-Transformer -->
    <g style="fill: #262626" transform="translate(585.929456 256.925391) scale(0.165 -0.165)">
     <defs>
      <path id="HelveticaNeue-55" d="M 4147 1651 
L 4147 4570 
L 3539 4570 
L 3539 1651 
Q 3539 1037 3235 720 
Q 2931 403 2349 403 
Q 1734 403 1408 720 
Q 1082 1037 1082 1651 
L 1082 4570 
L 474 4570 
L 474 1651 
Q 474 736 970 317 
Q 1466 -102 2349 -102 
Q 3213 -102 3680 336 
Q 4147 774 4147 1651 
z
" transform="scale(0.015625)"/>
     </defs>
     <use xlink:href="#HelveticaNeue-52"/>
     <use xlink:href="#HelveticaNeue-55" x="68.499985"/>
     <use xlink:href="#HelveticaNeue-2d" x="140.699966"/>
     <use xlink:href="#HelveticaNeue-54" x="179.59996"/>
     <use xlink:href="#HelveticaNeue-72" x="227.749954"/>
     <use xlink:href="#HelveticaNeue-61" x="261.049942"/>
     <use xlink:href="#HelveticaNeue-6e" x="314.749939"/>
     <use xlink:href="#HelveticaNeue-73" x="370.34993"/>
     <use xlink:href="#HelveticaNeue-66" x="420.349915"/>
     <use xlink:href="#HelveticaNeue-6f" x="449.949905"/>
     <use xlink:href="#HelveticaNeue-72" x="507.349899"/>
     <use xlink:href="#HelveticaNeue-6d" x="540.649887"/>
     <use xlink:href="#HelveticaNeue-65" x="625.949875"/>
     <use xlink:href="#HelveticaNeue-72" x="679.649872"/>
    </g>
   </g>
   <g id="patch_108">
    <path d="M 539.729456 280.208438 
L 572.729456 280.208438 
L 572.729456 268.658437 
L 539.729456 268.658437 
z
" style="fill: #3f4e67; stroke: #ffffff; stroke-width: 1.5; stroke-linejoin: miter"/>
   </g>
   <g id="text_25">
    <!-- NQG -->
    <g style="fill: #262626" transform="translate(585.929456 280.208438) scale(0.165 -0.165)">
     <use xlink:href="#HelveticaNeue-4e"/>
     <use xlink:href="#HelveticaNeue-51" x="72.199982"/>
     <use xlink:href="#HelveticaNeue-47" x="148.199966"/>
    </g>
   </g>
   <g id="patch_109">
    <path d="M 539.729456 303.491484 
L 572.729456 303.491484 
L 572.729456 291.941484 
L 539.729456 291.941484 
z
" style="fill: #4c6185; stroke: #ffffff; stroke-width: 1.5; stroke-linejoin: miter"/>
   </g>
   <g id="text_26">
    <!-- SDTM -->
    <g style="fill: #262626" transform="translate(585.929456 303.491484) scale(0.165 -0.165)">
     <use xlink:href="#HelveticaNeue-53"/>
     <use xlink:href="#HelveticaNeue-44" x="64.799988"/>
     <use xlink:href="#HelveticaNeue-54" x="135.199982"/>
     <use xlink:href="#HelveticaNeue-4d" x="192.599976"/>
    </g>
   </g>
   <g id="patch_110">
    <path d="M 539.729456 327.052969 
L 572.729456 327.052969 
L 572.729456 315.502969 
L 539.729456 315.502969 
z
" style="fill: #5875a4; stroke: #ffffff; stroke-width: 1.5; stroke-linejoin: miter"/>
   </g>
   <g id="text_27">
    <!-- SDTM (LAUD trees) -->
    <g style="fill: #262626" transform="translate(585.929456 327.052969) scale(0.165 -0.165)">
     <use xlink:href="#HelveticaNeue-53"/>
     <use xlink:href="#HelveticaNeue-44" x="64.799988"/>
     <use xlink:href="#HelveticaNeue-54" x="135.199982"/>
     <use xlink:href="#HelveticaNeue-4d" x="192.599976"/>
     <use xlink:href="#HelveticaNeue-20" x="279.699966"/>
     <use xlink:href="#HelveticaNeue-28" x="307.499954"/>
     <use xlink:href="#HelveticaNeue-4c" x="333.399948"/>
     <use xlink:href="#HelveticaNeue-41" x="388.999939"/>
     <use xlink:href="#HelveticaNeue-55" x="453.799927"/>
     <use xlink:href="#HelveticaNeue-44" x="525.999908"/>
     <use xlink:href="#HelveticaNeue-20" x="596.399902"/>
     <use xlink:href="#HelveticaNeue-74" x="624.19989"/>
     <use xlink:href="#HelveticaNeue-72" x="655.699875"/>
     <use xlink:href="#HelveticaNeue-65" x="687.249863"/>
     <use xlink:href="#HelveticaNeue-65" x="740.94986"/>
     <use xlink:href="#HelveticaNeue-73" x="794.649857"/>
     <use xlink:href="#HelveticaNeue-29" x="844.649841"/>
    </g>
   </g>
  </g>
 </g>
 <defs>
  <clipPath id="p7666436a16">
   <rect x="49.452656" y="26.053125" width="484.734713" height="82.395"/>
  </clipPath>
  <clipPath id="p5bca587559">
   <rect x="49.452656" y="155.488125" width="484.734713" height="82.395"/>
  </clipPath>
  <clipPath id="p048df907bc">
   <rect x="49.452656" y="284.923125" width="484.734713" height="82.395"/>
  </clipPath>
  <clipPath id="p795cc6a484">
   <rect x="49.452656" y="414.358125" width="484.734713" height="82.395"/>
  </clipPath>
 </defs>
</svg>
